<?xml version="1.0" encoding="UTF-8" standalone="no"?>
<!-- Created with Inkscape (http://www.inkscape.org/) -->

<svg
   xmlns:dc="http://purl.org/dc/elements/1.1/"
   xmlns:cc="http://creativecommons.org/ns#"
   xmlns:rdf="http://www.w3.org/1999/02/22-rdf-syntax-ns#"
   xmlns:svg="http://www.w3.org/2000/svg"
   xmlns="http://www.w3.org/2000/svg"
   xmlns:sodipodi="http://sodipodi.sourceforge.net/DTD/sodipodi-0.dtd"
   xmlns:inkscape="http://www.inkscape.org/namespaces/inkscape"
   width="70.836014mm"
   height="70.836014mm"
   viewBox="0 0 70.836014 70.836014"
   version="1.1"
   id="svg25767"
   inkscape:version="0.92.4 (5da689c313, 2019-01-14)"
   sodipodi:docname="10.svg">
  <defs
     id="defs25761">
    <clipPath
       clipPathUnits="userSpaceOnUse"
       id="clipPath5383">
      <path
         d="M 369.864,674.239 H 471.928 V 625.048 H 369.864 Z"
         id="path5381"
         inkscape:connector-curvature="0" />
    </clipPath>
    <clipPath
       clipPathUnits="userSpaceOnUse"
       id="clipPath5387">
      <path
         d="m 370.99,645.675 c 10.051,17.091 28.633,28.564 49.893,28.564 21.283,0 39.881,-11.496 49.923,-28.616 8.058,-13.732 -29.238,-20.584 -49.908,-20.575 -20.663,0.011 -57.985,6.894 -49.908,20.627"
         id="path5385"
         inkscape:connector-curvature="0" />
    </clipPath>
    <mask
       maskUnits="userSpaceOnUse"
       x="0"
       y="0"
       width="1"
       height="1"
       id="mask5401">
      <g
         id="g5411">
        <g
           id="g5409">
          <g
             id="g5407">
            <g
               id="g5405">
              <path
                 d="M -32768,32767 H 32767 V -32767 H -32768 Z"
                 style="fill:url(#linearGradient5399);stroke:none"
                 id="path5403"
                 inkscape:connector-curvature="0" />
            </g>
          </g>
        </g>
      </g>
    </mask>
    <linearGradient
       x1="0"
       y1="0"
       x2="1"
       y2="0"
       gradientUnits="userSpaceOnUse"
       gradientTransform="matrix(0,-49.19043,-49.19043,0,420.896,674.23877)"
       spreadMethod="pad"
       id="linearGradient5399">
      <stop
         style="stop-opacity:1;stop-color:#ffffff"
         offset="0"
         id="stop5393" />
      <stop
         style="stop-opacity:0;stop-color:#ffffff"
         offset="0.41503764"
         id="stop5395" />
      <stop
         style="stop-opacity:0;stop-color:#ffffff"
         offset="1"
         id="stop5397" />
    </linearGradient>
    <linearGradient
       x1="0"
       y1="0"
       x2="1"
       y2="0"
       gradientUnits="userSpaceOnUse"
       gradientTransform="matrix(0,-49.19043,-49.19043,0,420.896,674.23877)"
       spreadMethod="pad"
       id="linearGradient5419">
      <stop
         style="stop-opacity:1;stop-color:#ffffff"
         offset="0"
         id="stop5413" />
      <stop
         style="stop-opacity:1;stop-color:#ffffff"
         offset="0.41503764"
         id="stop5415" />
      <stop
         style="stop-opacity:1;stop-color:#ffffff"
         offset="1"
         id="stop5417" />
    </linearGradient>
    <linearGradient
       x1="0"
       y1="0"
       x2="1"
       y2="0"
       gradientUnits="userSpaceOnUse"
       gradientTransform="matrix(89.539261,89.539261,89.539261,-89.539246,376.11279,572.03955)"
       spreadMethod="pad"
       id="linearGradient5161">
      <stop
         style="stop-opacity:1;stop-color:#636466"
         offset="0"
         id="stop5151" />
      <stop
         style="stop-opacity:1;stop-color:#414142"
         offset="0.31074429"
         id="stop5153" />
      <stop
         style="stop-opacity:1;stop-color:#414142"
         offset="0.5"
         id="stop5155" />
      <stop
         style="stop-opacity:1;stop-color:#414142"
         offset="0.68925571"
         id="stop5157" />
      <stop
         style="stop-opacity:1;stop-color:#636466"
         offset="1"
         id="stop5159" />
    </linearGradient>
    <clipPath
       clipPathUnits="userSpaceOnUse"
       id="clipPath5085">
      <path
         d="M 0,780 H 1096 V 0 H 0 Z"
         id="path5083"
         inkscape:connector-curvature="0" />
    </clipPath>
    <linearGradient
       x1="0"
       y1="0"
       x2="1"
       y2="0"
       gradientUnits="userSpaceOnUse"
       gradientTransform="matrix(125.46048,125.46048,125.46048,-125.46048,358.15332,554.0791)"
       spreadMethod="pad"
       id="linearGradient5075">
      <stop
         style="stop-opacity:1;stop-color:#414142"
         offset="0"
         id="stop5065" />
      <stop
         style="stop-opacity:1;stop-color:#636466"
         offset="0.31074429"
         id="stop5067" />
      <stop
         style="stop-opacity:1;stop-color:#636466"
         offset="0.5"
         id="stop5069" />
      <stop
         style="stop-opacity:1;stop-color:#636466"
         offset="0.68925571"
         id="stop5071" />
      <stop
         style="stop-opacity:1;stop-color:#414142"
         offset="1"
         id="stop5073" />
    </linearGradient>
    <linearGradient
       x1="0"
       y1="0"
       x2="1"
       y2="0"
       gradientUnits="userSpaceOnUse"
       gradientTransform="matrix(139.23401,139.23401,139.23401,-139.23401,351.2666,547.19238)"
       spreadMethod="pad"
       id="linearGradient5049">
      <stop
         style="stop-opacity:1;stop-color:#636466"
         offset="0"
         id="stop5039" />
      <stop
         style="stop-opacity:1;stop-color:#414142"
         offset="0.31074429"
         id="stop5041" />
      <stop
         style="stop-opacity:1;stop-color:#414142"
         offset="0.5"
         id="stop5043" />
      <stop
         style="stop-opacity:1;stop-color:#414142"
         offset="0.68925571"
         id="stop5045" />
      <stop
         style="stop-opacity:1;stop-color:#636466"
         offset="1"
         id="stop5047" />
    </linearGradient>
    <linearGradient
       x1="0"
       y1="0"
       x2="1"
       y2="0"
       gradientUnits="userSpaceOnUse"
       gradientTransform="matrix(141.98349,141.98349,141.98349,-141.98349,349.8916,545.81738)"
       spreadMethod="pad"
       id="linearGradient5023">
      <stop
         style="stop-opacity:1;stop-color:#414142"
         offset="0"
         id="stop5013" />
      <stop
         style="stop-opacity:1;stop-color:#636466"
         offset="0.31074429"
         id="stop5015" />
      <stop
         style="stop-opacity:1;stop-color:#636466"
         offset="0.5"
         id="stop5017" />
      <stop
         style="stop-opacity:1;stop-color:#636466"
         offset="0.68925571"
         id="stop5019" />
      <stop
         style="stop-opacity:1;stop-color:#414142"
         offset="1"
         id="stop5021" />
    </linearGradient>
  </defs>
  <sodipodi:namedview
     id="base"
     pagecolor="#ffffff"
     bordercolor="#666666"
     borderopacity="1.0"
     inkscape:pageopacity="0.0"
     inkscape:pageshadow="2"
     inkscape:zoom="0.98994949"
     inkscape:cx="175.40482"
     inkscape:cy="60.316413"
     inkscape:document-units="mm"
     inkscape:current-layer="layer1"
     showgrid="false"
     inkscape:window-width="1920"
     inkscape:window-height="1017"
     inkscape:window-x="-8"
     inkscape:window-y="-8"
     inkscape:window-maximized="1" />
  <metadata
     id="metadata25764">
    <rdf:RDF>
      <cc:Work
         rdf:about="">
        <dc:format>image/svg+xml</dc:format>
        <dc:type
           rdf:resource="http://purl.org/dc/dcmitype/StillImage" />
        <dc:title></dc:title>
      </cc:Work>
    </rdf:RDF>
  </metadata>
  <g
     inkscape:label="Layer 1"
     inkscape:groupmode="layer"
     id="layer1"
     transform="translate(-111.23598,-171.62751)">
    <g
       transform="matrix(0.35277777,0,0,-0.35277777,-1.8243573,424.6422)"
       id="g5001">
      <g
         id="g5003">
        <g
           id="g5009">
          <g
             id="g5011">
            <path
               d="m 320.486,616.81 c 0,-55.448 44.949,-100.398 100.397,-100.398 v 0 c 55.448,0 100.398,44.95 100.398,100.398 v 0 c 0,55.448 -44.95,100.397 -100.398,100.397 v 0 c -55.448,0 -100.397,-44.949 -100.397,-100.397"
               style="fill:url(#linearGradient5023);stroke:none"
               id="path5025"
               inkscape:connector-curvature="0" />
          </g>
        </g>
      </g>
    </g>
    <g
       transform="matrix(0.35277777,0,0,-0.35277777,-1.8243573,424.6422)"
       id="g5027">
      <g
         id="g5029">
        <g
           id="g5035">
          <g
             id="g5037">
            <path
               d="m 322.43,616.81 c 0,-54.375 44.08,-98.454 98.453,-98.454 v 0 c 54.374,0 98.453,44.079 98.453,98.454 v 0 c 0,54.373 -44.079,98.453 -98.453,98.453 v 0 c -54.373,0 -98.453,-44.08 -98.453,-98.453"
               style="fill:url(#linearGradient5049);stroke:none"
               id="path5051"
               inkscape:connector-curvature="0" />
          </g>
        </g>
      </g>
    </g>
    <g
       transform="matrix(0.35277777,0,0,-0.35277777,-1.8243573,424.6422)"
       id="g5053">
      <g
         id="g5055">
        <g
           id="g5061">
          <g
             id="g5063">
            <path
               d="m 332.169,616.81 c 0,-48.996 39.718,-88.713 88.714,-88.713 v 0 c 48.996,0 88.714,39.717 88.714,88.713 v 0 c 0,48.995 -39.718,88.713 -88.714,88.713 v 0 c -48.996,0 -88.714,-39.718 -88.714,-88.713"
               style="fill:url(#linearGradient5075);stroke:none"
               id="path5077"
               inkscape:connector-curvature="0" />
          </g>
        </g>
      </g>
    </g>
    <g
       transform="matrix(0.35277777,0,0,-0.35277777,-1.8243573,424.6422)"
       id="g5079">
      <g
         id="g5081"
         clip-path="url(#clipPath5085)">
        <g
           id="g5087"
           transform="translate(506.8418,616.8101)">
          <path
             d="m 0,0 c 0,-47.477 -38.483,-85.96 -85.959,-85.96 -47.476,0 -85.959,38.483 -85.959,85.96 0,47.475 38.483,85.958 85.959,85.958 C -38.483,85.958 0,47.475 0,0"
             style="fill:#ffffff;fill-opacity:1;fill-rule:nonzero;stroke:none"
             id="path5089"
             inkscape:connector-curvature="0" />
        </g>
        <g
           id="g5091"
           transform="translate(420.8843,702.7681)">
          <path
             d="M 0,0 H -0.001 C -15.661,0 -30.33,-4.208 -42.975,-11.524 L -0.001,-85.958 Z"
             style="fill:#ffffff;fill-opacity:1;fill-rule:nonzero;stroke:none"
             id="path5093"
             inkscape:connector-curvature="0" />
        </g>
        <g
           id="g5095"
           transform="translate(463.8584,691.2437)">
          <path
             d="m 0,0 c -12.645,7.316 -27.314,11.524 -42.974,11.524 l -0.002,-85.958 z"
             style="fill:#06bfd7;fill-opacity:1;fill-rule:nonzero;stroke:none"
             id="path5097"
             inkscape:connector-curvature="0" />
        </g>
        <g
           id="g5099"
           transform="translate(495.3174,573.8345)">
          <path
             d="M 0,0 C 7.315,12.646 11.524,27.315 11.524,42.976 H -74.435 Z"
             style="fill:#ffffff;fill-opacity:1;fill-rule:nonzero;stroke:none"
             id="path5101"
             inkscape:connector-curvature="0" />
        </g>
        <g
           id="g5103"
           transform="translate(506.8418,616.8101)">
          <path
             d="M 0,0 C 0,15.661 -4.209,30.33 -11.524,42.974 L -85.959,0 Z"
             style="fill:#dcddde;fill-opacity:1;fill-rule:nonzero;stroke:none"
             id="path5105"
             inkscape:connector-curvature="0" />
        </g>
        <g
           id="g5107"
           transform="translate(495.3174,659.7837)">
          <path
             d="M 0,0 C -7.547,13.044 -18.415,23.912 -31.459,31.46 L -74.435,-42.974 Z"
             style="fill:#06bfd7;fill-opacity:1;fill-rule:nonzero;stroke:none"
             id="path5109"
             inkscape:connector-curvature="0" />
        </g>
        <g
           id="g5111"
           transform="translate(377.9097,691.2437)">
          <path
             d="M 0,0 C -13.044,-7.546 -23.913,-18.415 -31.461,-31.458 L 42.973,-74.434 Z"
             style="fill:#dcddde;fill-opacity:1;fill-rule:nonzero;stroke:none"
             id="path5113"
             inkscape:connector-curvature="0" />
        </g>
        <g
           id="g5115"
           transform="translate(420.8828,530.8501)">
          <path
             d="M 0,0 C 15.66,0 30.33,4.208 42.974,11.525 L 0,85.96 Z"
             style="fill:#ffffff;fill-opacity:1;fill-rule:nonzero;stroke:none"
             id="path5117"
             inkscape:connector-curvature="0" />
        </g>
        <g
           id="g5119"
           transform="translate(377.9077,542.375)">
          <path
             d="m 0,0 c 12.646,-7.317 27.315,-11.525 42.975,-11.525 v 85.96 z"
             style="fill:#dcddde;fill-opacity:1;fill-rule:nonzero;stroke:none"
             id="path5121"
             inkscape:connector-curvature="0" />
        </g>
        <g
           id="g5123"
           transform="translate(495.3174,573.8345)">
          <path
             d="M 0,0 -74.435,42.976 -31.46,-31.459 C -18.415,-23.912 -7.547,-13.044 0,0"
             style="fill:#dcddde;fill-opacity:1;fill-rule:nonzero;stroke:none"
             id="path5125"
             inkscape:connector-curvature="0" />
        </g>
        <g
           id="g5127"
           transform="translate(346.4482,573.8345)">
          <path
             d="M 0,0 C 7.547,-13.044 18.416,-23.912 31.459,-31.459 L 74.435,42.976 Z"
             style="fill:#ffffff;fill-opacity:1;fill-rule:nonzero;stroke:none"
             id="path5129"
             inkscape:connector-curvature="0" />
        </g>
        <g
           id="g5131"
           transform="translate(334.9233,616.8101)">
          <path
             d="M 0,0 V 0 C 0,-15.661 4.208,-30.33 11.525,-42.976 L 85.959,0 Z"
             style="fill:#dcddde;fill-opacity:1;fill-rule:nonzero;stroke:none"
             id="path5133"
             inkscape:connector-curvature="0" />
        </g>
        <g
           id="g5135"
           transform="translate(346.4487,659.7852)">
          <path
             d="M 0,0 C -7.317,-12.644 -11.525,-27.313 -11.525,-42.975 H 74.434 Z"
             style="fill:#ffffff;fill-opacity:1;fill-rule:nonzero;stroke:none"
             id="path5137"
             inkscape:connector-curvature="0" />
        </g>
      </g>
    </g>
    <g
       transform="matrix(0.35277777,0,0,-0.35277777,-1.8243573,424.6422)"
       id="g5139">
      <g
         id="g5141">
        <g
           id="g5147">
          <g
             id="g5149">
            <path
               d="m 357.569,616.81 c 0,-34.967 28.346,-63.315 63.314,-63.315 v 0 c 34.966,0 63.313,28.348 63.313,63.315 v 0 c 0,34.966 -28.347,63.314 -63.313,63.314 v 0 c -34.968,0 -63.314,-28.348 -63.314,-63.314"
               style="fill:url(#linearGradient5161);stroke:none"
               id="path5163"
               inkscape:connector-curvature="0" />
          </g>
        </g>
      </g>
    </g>
    <g
       id="g5173"
       transform="matrix(0.35277777,0,0,-0.35277777,168.1849,207.04583)">
      <path
         d="m 0,0 c 0,-33.705 -27.326,-61.03 -61.033,-61.03 -33.706,0 -61.033,27.325 -61.033,61.03 0,33.708 27.327,61.034 61.033,61.034 C -27.326,61.034 0,33.708 0,0"
         style="fill:#333132;fill-opacity:1;fill-rule:nonzero;stroke:none"
         id="path5175"
         inkscape:connector-curvature="0" />
    </g>
    <g
       id="g5177"
       transform="matrix(0.35277777,0,0,-0.35277777,146.67667,177.34498)">
      <path
         d="M 0,0 V -13.716"
         style="fill:none;stroke:#231f20;stroke-width:1.17999995;stroke-linecap:butt;stroke-linejoin:miter;stroke-miterlimit:10;stroke-dasharray:none;stroke-opacity:1"
         id="path5179"
         inkscape:connector-curvature="0" />
    </g>
    <g
       id="g5181"
       transform="matrix(0.35277777,0,0,-0.35277777,131.82709,181.32442)">
      <path
         d="M 0,0 6.857,-11.877"
         style="fill:none;stroke:#231f20;stroke-width:1.17999995;stroke-linecap:butt;stroke-linejoin:miter;stroke-miterlimit:10;stroke-dasharray:none;stroke-opacity:1"
         id="path5183"
         inkscape:connector-curvature="0" />
    </g>
    <g
       id="g5185"
       transform="matrix(0.35277777,0,0,-0.35277777,120.95628,192.19541)">
      <path
         d="M 0,0 11.878,-6.857"
         style="fill:none;stroke:#231f20;stroke-width:1.17999995;stroke-linecap:butt;stroke-linejoin:miter;stroke-miterlimit:10;stroke-dasharray:none;stroke-opacity:1"
         id="path5187"
         inkscape:connector-curvature="0" />
    </g>
    <g
       id="g5189"
       transform="matrix(0.35277777,0,0,-0.35277777,116.97719,207.0453)">
      <path
         d="M 0,0 13.716,0.001"
         style="fill:none;stroke:#231f20;stroke-width:1.17999995;stroke-linecap:butt;stroke-linejoin:miter;stroke-miterlimit:10;stroke-dasharray:none;stroke-opacity:1"
         id="path5191"
         inkscape:connector-curvature="0" />
    </g>
    <g
       id="g5193"
       transform="matrix(0.35277777,0,0,-0.35277777,171.49254,207.0453)">
      <path
         d="M 0,0 13.717,0.001"
         style="fill:none;stroke:#231f20;stroke-width:1.17999995;stroke-linecap:butt;stroke-linejoin:miter;stroke-miterlimit:10;stroke-dasharray:none;stroke-opacity:1"
         id="path5195"
         inkscape:connector-curvature="0" />
    </g>
    <g
       id="g5197"
       transform="matrix(0.35277777,0,0,-0.35277777,120.95628,221.89541)">
      <path
         d="M 0,0 11.878,6.86"
         style="fill:none;stroke:#231f20;stroke-width:1.17999995;stroke-linecap:butt;stroke-linejoin:miter;stroke-miterlimit:10;stroke-dasharray:none;stroke-opacity:1"
         id="path5199"
         inkscape:connector-curvature="0" />
    </g>
    <g
       id="g5201"
       transform="matrix(0.35277777,0,0,-0.35277777,131.82709,232.7664)">
      <path
         d="M 0,0 6.857,11.88"
         style="fill:none;stroke:#231f20;stroke-width:1.17999995;stroke-linecap:butt;stroke-linejoin:miter;stroke-miterlimit:10;stroke-dasharray:none;stroke-opacity:1"
         id="path5203"
         inkscape:connector-curvature="0" />
    </g>
    <g
       id="g5205"
       transform="matrix(0.35277777,0,0,-0.35277777,146.67716,236.74549)">
      <path
         d="M 0,0 -0.001,13.717"
         style="fill:none;stroke:#231f20;stroke-width:1.17999995;stroke-linecap:butt;stroke-linejoin:miter;stroke-miterlimit:10;stroke-dasharray:none;stroke-opacity:1"
         id="path5207"
         inkscape:connector-curvature="0" />
    </g>
    <g
       id="g5209"
       transform="matrix(0.35277777,0,0,-0.35277777,161.52777,232.7664)">
      <path
         d="M 0,0 -6.862,11.879"
         style="fill:none;stroke:#231f20;stroke-width:1.17999995;stroke-linecap:butt;stroke-linejoin:miter;stroke-miterlimit:10;stroke-dasharray:none;stroke-opacity:1"
         id="path5211"
         inkscape:connector-curvature="0" />
    </g>
    <g
       id="g5213"
       transform="matrix(0.35277777,0,0,-0.35277777,172.39911,221.89506)">
      <path
         d="M 0,0 -11.884,6.856"
         style="fill:none;stroke:#231f20;stroke-width:1.17999995;stroke-linecap:butt;stroke-linejoin:miter;stroke-miterlimit:10;stroke-dasharray:none;stroke-opacity:1"
         id="path5215"
         inkscape:connector-curvature="0" />
    </g>
    <g
       id="g5217"
       transform="matrix(0.35277777,0,0,-0.35277777,172.39844,192.1942)">
      <path
         d="M 0,0 -11.88,-6.863"
         style="fill:none;stroke:#231f20;stroke-width:1.17999995;stroke-linecap:butt;stroke-linejoin:miter;stroke-miterlimit:10;stroke-dasharray:none;stroke-opacity:1"
         id="path5219"
         inkscape:connector-curvature="0" />
    </g>
    <g
       id="g5221"
       transform="matrix(0.35277777,0,0,-0.35277777,161.5271,181.32322)">
      <path
         d="M 0,0 -6.856,-11.884"
         style="fill:none;stroke:#231f20;stroke-width:1.17999995;stroke-linecap:butt;stroke-linejoin:miter;stroke-miterlimit:10;stroke-dasharray:none;stroke-opacity:1"
         id="path5223"
         inkscape:connector-curvature="0" />
    </g>
    <g
       id="g5225"
       transform="matrix(0.35277777,0,0,-0.35277777,142.79989,177.59905)">
      <path
         d="M 0,0 1.144,-8.691"
         style="fill:none;stroke:#231f20;stroke-width:0.58999997;stroke-linecap:butt;stroke-linejoin:miter;stroke-miterlimit:10;stroke-dasharray:none;stroke-opacity:1"
         id="path5227"
         inkscape:connector-curvature="0" />
    </g>
    <g
       id="g5229"
       transform="matrix(0.35277777,0,0,-0.35277777,138.98911,178.35713)">
      <path
         d="M 0,0 2.269,-8.466"
         style="fill:none;stroke:#231f20;stroke-width:0.58999997;stroke-linecap:butt;stroke-linejoin:miter;stroke-miterlimit:10;stroke-dasharray:none;stroke-opacity:1"
         id="path5231"
         inkscape:connector-curvature="0" />
    </g>
    <g
       id="g5233"
       transform="matrix(0.35277777,0,0,-0.35277777,135.31059,179.606)">
      <path
         d="M 0,0 3.354,-8.097"
         style="fill:none;stroke:#231f20;stroke-width:0.58999997;stroke-linecap:butt;stroke-linejoin:miter;stroke-miterlimit:10;stroke-dasharray:none;stroke-opacity:1"
         id="path5235"
         inkscape:connector-curvature="0" />
    </g>
    <g
       id="g5237"
       transform="matrix(0.35277777,0,0,-0.35277777,128.59575,183.48257)">
      <path
         d="M 0,0 5.337,-6.954"
         style="fill:none;stroke:#231f20;stroke-width:0.58999997;stroke-linecap:butt;stroke-linejoin:miter;stroke-miterlimit:10;stroke-dasharray:none;stroke-opacity:1"
         id="path5239"
         inkscape:connector-curvature="0" />
    </g>
    <g
       id="g5241"
       transform="matrix(0.35277777,0,0,-0.35277777,125.6745,186.04367)">
      <path
         d="M 0,0 6.199,-6.198"
         style="fill:none;stroke:#231f20;stroke-width:0.58999997;stroke-linecap:butt;stroke-linejoin:miter;stroke-miterlimit:10;stroke-dasharray:none;stroke-opacity:1"
         id="path5243"
         inkscape:connector-curvature="0" />
    </g>
    <g
       id="g5245"
       transform="matrix(0.35277777,0,0,-0.35277777,123.11288,188.96495)">
      <path
         d="M 0,0 6.955,-5.335"
         style="fill:none;stroke:#231f20;stroke-width:0.58999997;stroke-linecap:butt;stroke-linejoin:miter;stroke-miterlimit:10;stroke-dasharray:none;stroke-opacity:1"
         id="path5247"
         inkscape:connector-curvature="0" />
    </g>
    <g
       id="g5249"
       transform="matrix(0.35277777,0,0,-0.35277777,119.23613,195.67873)">
      <path
         d="M 0,0 8.097,-3.355"
         style="fill:none;stroke:#231f20;stroke-width:0.58999997;stroke-linecap:butt;stroke-linejoin:miter;stroke-miterlimit:10;stroke-dasharray:none;stroke-opacity:1"
         id="path5251"
         inkscape:connector-curvature="0" />
    </g>
    <g
       id="g5253"
       transform="matrix(0.35277777,0,0,-0.35277777,117.98726,199.35775)">
      <path
         d="M 0,0 8.466,-2.269"
         style="fill:none;stroke:#231f20;stroke-width:0.58999997;stroke-linecap:butt;stroke-linejoin:miter;stroke-miterlimit:10;stroke-dasharray:none;stroke-opacity:1"
         id="path5255"
         inkscape:connector-curvature="0" />
    </g>
    <g
       id="g5257"
       transform="matrix(0.35277777,0,0,-0.35277777,117.22936,203.16754)">
      <path
         d="M 0,0 8.689,-1.146"
         style="fill:none;stroke:#231f20;stroke-width:0.58999997;stroke-linecap:butt;stroke-linejoin:miter;stroke-miterlimit:10;stroke-dasharray:none;stroke-opacity:1"
         id="path5259"
         inkscape:connector-curvature="0" />
    </g>
    <g
       id="g5261"
       transform="matrix(0.35277777,0,0,-0.35277777,117.22865,210.92124)">
      <path
         d="M 0,0 8.691,1.143"
         style="fill:none;stroke:#231f20;stroke-width:0.58999997;stroke-linecap:butt;stroke-linejoin:miter;stroke-miterlimit:10;stroke-dasharray:none;stroke-opacity:1"
         id="path5263"
         inkscape:connector-curvature="0" />
    </g>
    <g
       id="g5265"
       transform="matrix(0.35277777,0,0,-0.35277777,117.98677,214.73184)">
      <path
         d="M 0,0 8.466,2.267"
         style="fill:none;stroke:#231f20;stroke-width:0.58999997;stroke-linecap:butt;stroke-linejoin:miter;stroke-miterlimit:10;stroke-dasharray:none;stroke-opacity:1"
         id="path5267"
         inkscape:connector-curvature="0" />
    </g>
    <g
       id="g5269"
       transform="matrix(0.35277777,0,0,-0.35277777,119.23508,218.41085)">
      <path
         d="M 0,0 8.099,3.354"
         style="fill:none;stroke:#231f20;stroke-width:0.58999997;stroke-linecap:butt;stroke-linejoin:miter;stroke-miterlimit:10;stroke-dasharray:none;stroke-opacity:1"
         id="path5271"
         inkscape:connector-curvature="0" />
    </g>
    <g
       id="g5273"
       transform="matrix(0.35277777,0,0,-0.35277777,123.11168,225.12587)">
      <path
         d="M 0,0 6.955,5.337"
         style="fill:none;stroke:#231f20;stroke-width:0.58999997;stroke-linecap:butt;stroke-linejoin:miter;stroke-miterlimit:10;stroke-dasharray:none;stroke-opacity:1"
         id="path5275"
         inkscape:connector-curvature="0" />
    </g>
    <g
       id="g5277"
       transform="matrix(0.35277777,0,0,-0.35277777,125.67313,228.0468)">
      <path
         d="M 0,0 6.199,6.198"
         style="fill:none;stroke:#231f20;stroke-width:0.58999997;stroke-linecap:butt;stroke-linejoin:miter;stroke-miterlimit:10;stroke-dasharray:none;stroke-opacity:1"
         id="path5279"
         inkscape:connector-curvature="0" />
    </g>
    <g
       id="g5281"
       transform="matrix(0.35277777,0,0,-0.35277777,128.5937,230.60874)">
      <path
         d="M 0,0 5.338,6.956"
         style="fill:none;stroke:#231f20;stroke-width:0.58999997;stroke-linecap:butt;stroke-linejoin:miter;stroke-miterlimit:10;stroke-dasharray:none;stroke-opacity:1"
         id="path5283"
         inkscape:connector-curvature="0" />
    </g>
    <g
       id="g5285"
       transform="matrix(0.35277777,0,0,-0.35277777,135.30784,234.48566)">
      <path
         d="M 0,0 3.356,8.099"
         style="fill:none;stroke:#231f20;stroke-width:0.58999997;stroke-linecap:butt;stroke-linejoin:miter;stroke-miterlimit:10;stroke-dasharray:none;stroke-opacity:1"
         id="path5287"
         inkscape:connector-curvature="0" />
    </g>
    <g
       id="g5289"
       transform="matrix(0.35277777,0,0,-0.35277777,138.98668,235.73453)">
      <path
         d="M 0,0 2.27,8.467"
         style="fill:none;stroke:#231f20;stroke-width:0.58999997;stroke-linecap:butt;stroke-linejoin:miter;stroke-miterlimit:10;stroke-dasharray:none;stroke-opacity:1"
         id="path5291"
         inkscape:connector-curvature="0" />
    </g>
    <g
       id="g5293"
       transform="matrix(0.35277777,0,0,-0.35277777,142.79696,236.49279)">
      <path
         d="M 0,0 1.147,8.691"
         style="fill:none;stroke:#231f20;stroke-width:0.58999997;stroke-linecap:butt;stroke-linejoin:miter;stroke-miterlimit:10;stroke-dasharray:none;stroke-opacity:1"
         id="path5295"
         inkscape:connector-curvature="0" />
    </g>
    <g
       id="g5297"
       transform="matrix(0.35277777,0,0,-0.35277777,150.55049,236.49332)">
      <path
         d="M 0,0 -1.142,8.69"
         style="fill:none;stroke:#231f20;stroke-width:0.58999997;stroke-linecap:butt;stroke-linejoin:miter;stroke-miterlimit:10;stroke-dasharray:none;stroke-opacity:1"
         id="path5299"
         inkscape:connector-curvature="0" />
    </g>
    <g
       id="g5301"
       transform="matrix(0.35277777,0,0,-0.35277777,154.3613,235.73608)">
      <path
         d="M 0,0 -2.268,8.469"
         style="fill:none;stroke:#231f20;stroke-width:0.58999997;stroke-linecap:butt;stroke-linejoin:miter;stroke-miterlimit:10;stroke-dasharray:none;stroke-opacity:1"
         id="path5303"
         inkscape:connector-curvature="0" />
    </g>
    <g
       id="g5305"
       transform="matrix(0.35277777,0,0,-0.35277777,158.04014,234.48775)">
      <path
         d="M 0,0 -3.353,8.102"
         style="fill:none;stroke:#231f20;stroke-width:0.58999997;stroke-linecap:butt;stroke-linejoin:miter;stroke-miterlimit:10;stroke-dasharray:none;stroke-opacity:1"
         id="path5307"
         inkscape:connector-curvature="0" />
    </g>
    <g
       id="g5309"
       transform="matrix(0.35277777,0,0,-0.35277777,164.75565,230.61114)">
      <path
         d="M 0,0 -5.336,6.957"
         style="fill:none;stroke:#231f20;stroke-width:0.58999997;stroke-linecap:butt;stroke-linejoin:miter;stroke-miterlimit:10;stroke-dasharray:none;stroke-opacity:1"
         id="path5311"
         inkscape:connector-curvature="0" />
    </g>
    <g
       id="g5313"
       transform="matrix(0.35277777,0,0,-0.35277777,167.67658,228.04955)">
      <path
         d="M 0,0 -6.199,6.2"
         style="fill:none;stroke:#231f20;stroke-width:0.58999997;stroke-linecap:butt;stroke-linejoin:miter;stroke-miterlimit:10;stroke-dasharray:none;stroke-opacity:1"
         id="path5315"
         inkscape:connector-curvature="0" />
    </g>
    <g
       id="g5317"
       transform="matrix(0.35277777,0,0,-0.35277777,170.23799,225.12915)">
      <path
         d="M 0,0 -6.954,5.339"
         style="fill:none;stroke:#231f20;stroke-width:0.58999997;stroke-linecap:butt;stroke-linejoin:miter;stroke-miterlimit:10;stroke-dasharray:none;stroke-opacity:1"
         id="path5319"
         inkscape:connector-curvature="0" />
    </g>
    <g
       id="g5321"
       transform="matrix(0.35277777,0,0,-0.35277777,174.11548,218.41413)">
      <path
         d="M 0,0 -8.098,3.355"
         style="fill:none;stroke:#231f20;stroke-width:0.58999997;stroke-linecap:butt;stroke-linejoin:miter;stroke-miterlimit:10;stroke-dasharray:none;stroke-opacity:1"
         id="path5323"
         inkscape:connector-curvature="0" />
    </g>
    <g
       id="g5325"
       transform="matrix(0.35277777,0,0,-0.35277777,175.36466,214.73547)">
      <path
         d="M 0,0 -8.466,2.273"
         style="fill:none;stroke:#231f20;stroke-width:0.58999997;stroke-linecap:butt;stroke-linejoin:miter;stroke-miterlimit:10;stroke-dasharray:none;stroke-opacity:1"
         id="path5327"
         inkscape:connector-curvature="0" />
    </g>
    <g
       id="g5329"
       transform="matrix(0.35277777,0,0,-0.35277777,176.12292,210.92519)">
      <path
         d="M 0,0 -8.691,1.148"
         style="fill:none;stroke:#231f20;stroke-width:0.58999997;stroke-linecap:butt;stroke-linejoin:miter;stroke-miterlimit:10;stroke-dasharray:none;stroke-opacity:1"
         id="path5331"
         inkscape:connector-curvature="0" />
    </g>
    <g
       id="g5333"
       transform="matrix(0.35277777,0,0,-0.35277777,176.1231,203.17131)">
      <path
         d="M 0,0 -8.691,-1.141"
         style="fill:none;stroke:#231f20;stroke-width:0.58999997;stroke-linecap:butt;stroke-linejoin:miter;stroke-miterlimit:10;stroke-dasharray:none;stroke-opacity:1"
         id="path5335"
         inkscape:connector-curvature="0" />
    </g>
    <g
       id="g5337"
       transform="matrix(0.35277777,0,0,-0.35277777,175.36533,199.3605)">
      <path
         d="M 0,0 -8.467,-2.268"
         style="fill:none;stroke:#231f20;stroke-width:0.58999997;stroke-linecap:butt;stroke-linejoin:miter;stroke-miterlimit:10;stroke-dasharray:none;stroke-opacity:1"
         id="path5339"
         inkscape:connector-curvature="0" />
    </g>
    <g
       id="g5341"
       transform="matrix(0.35277777,0,0,-0.35277777,174.11699,195.68148)">
      <path
         d="M 0,0 -8.101,-3.354"
         style="fill:none;stroke:#231f20;stroke-width:0.58999997;stroke-linecap:butt;stroke-linejoin:miter;stroke-miterlimit:10;stroke-dasharray:none;stroke-opacity:1"
         id="path5343"
         inkscape:connector-curvature="0" />
    </g>
    <g
       id="g5345"
       transform="matrix(0.35277777,0,0,-0.35277777,170.24042,188.96615)">
      <path
         d="M 0,0 -6.955,-5.336"
         style="fill:none;stroke:#231f20;stroke-width:0.58999997;stroke-linecap:butt;stroke-linejoin:miter;stroke-miterlimit:10;stroke-dasharray:none;stroke-opacity:1"
         id="path5347"
         inkscape:connector-curvature="0" />
    </g>
    <g
       id="g5349"
       transform="matrix(0.35277777,0,0,-0.35277777,167.6788,186.04486)">
      <path
         d="M 0,0 -6.199,-6.198"
         style="fill:none;stroke:#231f20;stroke-width:0.58999997;stroke-linecap:butt;stroke-linejoin:miter;stroke-miterlimit:10;stroke-dasharray:none;stroke-opacity:1"
         id="path5351"
         inkscape:connector-curvature="0" />
    </g>
    <g
       id="g5353"
       transform="matrix(0.35277777,0,0,-0.35277777,164.75805,183.48327)">
      <path
         d="M 0,0 -5.337,-6.952"
         style="fill:none;stroke:#231f20;stroke-width:0.58999997;stroke-linecap:butt;stroke-linejoin:miter;stroke-miterlimit:10;stroke-dasharray:none;stroke-opacity:1"
         id="path5355"
         inkscape:connector-curvature="0" />
    </g>
    <g
       id="g5357"
       transform="matrix(0.35277777,0,0,-0.35277777,158.04356,179.606)">
      <path
         d="M 0,0 -3.356,-8.097"
         style="fill:none;stroke:#231f20;stroke-width:0.58999997;stroke-linecap:butt;stroke-linejoin:miter;stroke-miterlimit:10;stroke-dasharray:none;stroke-opacity:1"
         id="path5359"
         inkscape:connector-curvature="0" />
    </g>
    <g
       id="g5361"
       transform="matrix(0.35277777,0,0,-0.35277777,154.36472,178.35664)">
      <path
         d="M 0,0 -2.271,-8.468"
         style="fill:none;stroke:#231f20;stroke-width:0.58999997;stroke-linecap:butt;stroke-linejoin:miter;stroke-miterlimit:10;stroke-dasharray:none;stroke-opacity:1"
         id="path5363"
         inkscape:connector-curvature="0" />
    </g>
    <g
       id="g5365"
       transform="matrix(0.35277777,0,0,-0.35277777,150.55395,177.5987)">
      <path
         d="M 0,0 -1.146,-8.691"
         style="fill:none;stroke:#231f20;stroke-width:0.58999997;stroke-linecap:butt;stroke-linejoin:miter;stroke-miterlimit:10;stroke-dasharray:none;stroke-opacity:1"
         id="path5367"
         inkscape:connector-curvature="0" />
    </g>
    <g
       id="g5369"
       transform="matrix(0.35277777,0,0,-0.35277777,145.0771,214.35341)">
      <path
         d="M 0,0 C 0,-5.549 -4.476,-10.025 -10.025,-10.025 V 0 Z m -20.855,0.806 h 10.025 v 14.679 h -10.025 z m 0,15.485 h 10.025 v 10.025 h -10.025 z m 0,10.83 H -10.83 V 41.8 h -10.025 z m -8.415,25.51 h 18.439 V 42.606 H -29.27 Z m 18.439,-62.656 h -19.244 c -5.55,0 -10.025,4.476 -10.025,10.025 h 29.269 z M -40.1,42.606 c 0,5.549 4.475,10.025 10.025,10.025 V 42.606 Z"
         style="fill:#06bfd7;fill-opacity:1;fill-rule:nonzero;stroke:none"
         id="path5371"
         inkscape:connector-curvature="0" />
    </g>
    <g
       id="g5373"
       transform="matrix(0.35277777,0,0,-0.35277777,162.37941,214.35341)">
      <path
         d="M 0,0 C 0,-5.549 -4.476,-10.025 -10.025,-10.025 V 0 Z m -10.025,15.485 c 3.849,0 7.161,1.969 9.13,5.013 C -0.358,19.155 0,17.812 0,16.291 V 0.806 h -10.025 z m 0,0.806 v 10.024 c 3.67,0 6.982,-1.969 8.682,-5.012 -1.7,-2.954 -5.012,-5.012 -8.682,-5.012 m 0,10.83 c 3.849,0 7.161,-1.969 9.13,-5.013 C -0.358,23.451 0,24.794 0,26.315 V 41.8 H -10.025 Z M 0,42.606 c 0,5.549 -4.476,10.025 -10.025,10.025 V 42.606 Z m -29.27,10.025 h 18.439 V 42.606 H -29.27 Z m -0.805,-36.34 v 10.024 c -3.67,0 -6.892,-1.969 -8.682,-5.012 1.79,-2.954 5.012,-5.012 8.682,-5.012 m 19.244,-26.316 h -19.244 c -5.55,0 -10.025,4.476 -10.025,10.025 h 29.269 z m -19.244,25.51 c -3.849,0 -7.16,1.969 -9.13,5.013 -0.537,-1.343 -0.895,-2.686 -0.895,-4.207 V 0.806 h 10.025 z m 0,11.636 c -3.849,0 -7.16,-1.969 -9.13,-5.013 -0.537,1.343 -0.895,2.686 -0.895,4.207 V 41.8 h 10.025 z M -40.1,42.606 c 0,5.549 4.475,10.025 10.025,10.025 V 42.606 Z"
         style="fill:#06bfd7;fill-opacity:1;fill-rule:nonzero;stroke:none"
         id="path5375"
         inkscape:connector-curvature="0" />
    </g>
    <g
       transform="matrix(0.35277777,0,0,-0.35277777,-1.8243573,424.6422)"
       id="g5377">
      <g
         id="g5379" />
      <g
         id="g5437">
        <g
           clip-path="url(#clipPath5383)"
           id="g5435"
           style="opacity:0.5">
          <g
             id="g5433">
            <g
               clip-path="url(#clipPath5387)"
               id="g5431">
              <g
                 id="g5429">
                <g
                   id="g5421" />
                <g
                   mask="url(#mask5401)"
                   id="g5427">
                  <g
                     id="g5425">
                    <path
                       d="m 370.99,645.675 c 10.051,17.091 28.633,28.564 49.893,28.564 21.283,0 39.881,-11.496 49.923,-28.616 8.058,-13.732 -29.238,-20.584 -49.908,-20.575 -20.663,0.011 -57.985,6.894 -49.908,20.627"
                       style="fill:url(#linearGradient5419);stroke:none"
                       id="path5423"
                       inkscape:connector-curvature="0" />
                  </g>
                </g>
              </g>
            </g>
          </g>
        </g>
      </g>
    </g>
  </g>
</svg>
