<?xml version="1.0" encoding="UTF-8" standalone="no"?>
<!-- Created with Inkscape (http://www.inkscape.org/) -->

<svg
   xmlns:dc="http://purl.org/dc/elements/1.1/"
   xmlns:cc="http://creativecommons.org/ns#"
   xmlns:rdf="http://www.w3.org/1999/02/22-rdf-syntax-ns#"
   xmlns:svg="http://www.w3.org/2000/svg"
   xmlns="http://www.w3.org/2000/svg"
   xmlns:sodipodi="http://sodipodi.sourceforge.net/DTD/sodipodi-0.dtd"
   xmlns:inkscape="http://www.inkscape.org/namespaces/inkscape"
   width="70.836365mm"
   height="70.836014mm"
   viewBox="0 0 70.836365 70.836014"
   version="1.1"
   id="svg26505"
   inkscape:version="0.92.4 (5da689c313, 2019-01-14)"
   sodipodi:docname="15.svg">
  <defs
     id="defs26499">
    <clipPath
       clipPathUnits="userSpaceOnUse"
       id="clipPath6025">
      <path
         d="M 0,780 H 1096 V 0 H 0 Z"
         id="path6023"
         inkscape:connector-curvature="0" />
    </clipPath>
    <clipPath
       clipPathUnits="userSpaceOnUse"
       id="clipPath6237">
      <path
         d="M 624.094,674.239 H 726.158 V 625.048 H 624.094 Z"
         id="path6235"
         inkscape:connector-curvature="0" />
    </clipPath>
    <clipPath
       clipPathUnits="userSpaceOnUse"
       id="clipPath6241">
      <path
         d="m 625.22,645.675 c 10.051,17.091 28.633,28.564 49.893,28.564 21.283,0 39.881,-11.496 49.923,-28.616 8.057,-13.732 -29.238,-20.584 -49.908,-20.575 -20.664,0.011 -57.985,6.894 -49.908,20.627"
         id="path6239"
         inkscape:connector-curvature="0" />
    </clipPath>
    <mask
       maskUnits="userSpaceOnUse"
       x="0"
       y="0"
       width="1"
       height="1"
       id="mask6255">
      <g
         id="g6265">
        <g
           id="g6263">
          <g
             id="g6261">
            <g
               id="g6259">
              <path
                 d="M -32768,32767 H 32767 V -32767 H -32768 Z"
                 style="fill:url(#linearGradient6253);stroke:none"
                 id="path6257"
                 inkscape:connector-curvature="0" />
            </g>
          </g>
        </g>
      </g>
    </mask>
    <linearGradient
       x1="0"
       y1="0"
       x2="1"
       y2="0"
       gradientUnits="userSpaceOnUse"
       gradientTransform="matrix(0,-49.19043,-49.19043,0,675.12598,674.23877)"
       spreadMethod="pad"
       id="linearGradient6253">
      <stop
         style="stop-opacity:1;stop-color:#ffffff"
         offset="0"
         id="stop6247" />
      <stop
         style="stop-opacity:0;stop-color:#ffffff"
         offset="0.41503764"
         id="stop6249" />
      <stop
         style="stop-opacity:0;stop-color:#ffffff"
         offset="1"
         id="stop6251" />
    </linearGradient>
    <linearGradient
       x1="0"
       y1="0"
       x2="1"
       y2="0"
       gradientUnits="userSpaceOnUse"
       gradientTransform="matrix(0,-49.19043,-49.19043,0,675.12598,674.23877)"
       spreadMethod="pad"
       id="linearGradient6273">
      <stop
         style="stop-opacity:1;stop-color:#ffffff"
         offset="0"
         id="stop6267" />
      <stop
         style="stop-opacity:1;stop-color:#ffffff"
         offset="0.41503764"
         id="stop6269" />
      <stop
         style="stop-opacity:1;stop-color:#ffffff"
         offset="1"
         id="stop6271" />
    </linearGradient>
    <linearGradient
       x1="0"
       y1="0"
       x2="1"
       y2="0"
       gradientUnits="userSpaceOnUse"
       gradientTransform="matrix(89.539215,89.539215,89.539215,-89.5392,630.34326,572.03955)"
       spreadMethod="pad"
       id="linearGradient6015">
      <stop
         style="stop-opacity:1;stop-color:#636466"
         offset="0"
         id="stop6005" />
      <stop
         style="stop-opacity:1;stop-color:#414142"
         offset="0.31074429"
         id="stop6007" />
      <stop
         style="stop-opacity:1;stop-color:#414142"
         offset="0.5"
         id="stop6009" />
      <stop
         style="stop-opacity:1;stop-color:#414142"
         offset="0.68925571"
         id="stop6011" />
      <stop
         style="stop-opacity:1;stop-color:#636466"
         offset="1"
         id="stop6013" />
    </linearGradient>
    <clipPath
       clipPathUnits="userSpaceOnUse"
       id="clipPath5939">
      <path
         d="M 0,780 H 1096 V 0 H 0 Z"
         id="path5937"
         inkscape:connector-curvature="0" />
    </clipPath>
    <linearGradient
       x1="0"
       y1="0"
       x2="1"
       y2="0"
       gradientUnits="userSpaceOnUse"
       gradientTransform="matrix(125.46045,125.46045,125.46045,-125.46043,612.38281,554.0791)"
       spreadMethod="pad"
       id="linearGradient5929">
      <stop
         style="stop-opacity:1;stop-color:#414142"
         offset="0"
         id="stop5919" />
      <stop
         style="stop-opacity:1;stop-color:#636466"
         offset="0.31074429"
         id="stop5921" />
      <stop
         style="stop-opacity:1;stop-color:#636466"
         offset="0.5"
         id="stop5923" />
      <stop
         style="stop-opacity:1;stop-color:#636466"
         offset="0.68925571"
         id="stop5925" />
      <stop
         style="stop-opacity:1;stop-color:#414142"
         offset="1"
         id="stop5927" />
    </linearGradient>
    <linearGradient
       x1="0"
       y1="0"
       x2="1"
       y2="0"
       gradientUnits="userSpaceOnUse"
       gradientTransform="matrix(139.23352,139.23352,139.23352,-139.23352,605.49658,547.19287)"
       spreadMethod="pad"
       id="linearGradient5903">
      <stop
         style="stop-opacity:1;stop-color:#636466"
         offset="0"
         id="stop5893" />
      <stop
         style="stop-opacity:1;stop-color:#414142"
         offset="0.31074429"
         id="stop5895" />
      <stop
         style="stop-opacity:1;stop-color:#414142"
         offset="0.5"
         id="stop5897" />
      <stop
         style="stop-opacity:1;stop-color:#414142"
         offset="0.68925571"
         id="stop5899" />
      <stop
         style="stop-opacity:1;stop-color:#636466"
         offset="1"
         id="stop5901" />
    </linearGradient>
    <linearGradient
       x1="0"
       y1="0"
       x2="1"
       y2="0"
       gradientUnits="userSpaceOnUse"
       gradientTransform="matrix(141.9838,141.9838,141.9838,-141.9838,604.12109,545.81738)"
       spreadMethod="pad"
       id="linearGradient5877">
      <stop
         style="stop-opacity:1;stop-color:#414142"
         offset="0"
         id="stop5867" />
      <stop
         style="stop-opacity:1;stop-color:#636466"
         offset="0.31074429"
         id="stop5869" />
      <stop
         style="stop-opacity:1;stop-color:#636466"
         offset="0.5"
         id="stop5871" />
      <stop
         style="stop-opacity:1;stop-color:#636466"
         offset="0.68925571"
         id="stop5873" />
      <stop
         style="stop-opacity:1;stop-color:#414142"
         offset="1"
         id="stop5875" />
    </linearGradient>
  </defs>
  <sodipodi:namedview
     id="base"
     pagecolor="#ffffff"
     bordercolor="#666666"
     borderopacity="1.0"
     inkscape:pageopacity="0.0"
     inkscape:pageshadow="2"
     inkscape:zoom="0.98994949"
     inkscape:cx="388.27197"
     inkscape:cy="26.670363"
     inkscape:document-units="mm"
     inkscape:current-layer="layer1"
     showgrid="false"
     inkscape:window-width="1920"
     inkscape:window-height="1017"
     inkscape:window-x="-8"
     inkscape:window-y="-8"
     inkscape:window-maximized="1" />
  <metadata
     id="metadata26502">
    <rdf:RDF>
      <cc:Work
         rdf:about="">
        <dc:format>image/svg+xml</dc:format>
        <dc:type
           rdf:resource="http://purl.org/dc/dcmitype/StillImage" />
        <dc:title></dc:title>
      </cc:Work>
    </rdf:RDF>
  </metadata>
  <g
     inkscape:label="Layer 1"
     inkscape:groupmode="layer"
     id="layer1"
     transform="translate(-16.499666,-75.332244)">
    <g
       id="g29412">
      <g
         id="g5855"
         transform="matrix(0.35277777,0,0,-0.35277777,-186.24701,328.34693)">
        <g
           id="g5857">
          <g
             id="g5863">
            <g
               id="g5865">
              <path
                 inkscape:connector-curvature="0"
                 id="path5879"
                 style="fill:url(#linearGradient5877);stroke:none"
                 d="m 574.715,616.81 c 0,-55.448 44.95,-100.398 100.397,-100.398 v 0 c 55.449,0 100.399,44.95 100.399,100.398 v 0 c 0,55.448 -44.95,100.397 -100.399,100.397 v 0 c -55.447,0 -100.397,-44.949 -100.397,-100.397" />
            </g>
          </g>
        </g>
      </g>
      <g
         id="g5881"
         transform="matrix(0.35277777,0,0,-0.35277777,-186.24701,328.34693)">
        <g
           id="g5883">
          <g
             id="g5889">
            <g
               id="g5891">
              <path
                 inkscape:connector-curvature="0"
                 id="path5905"
                 style="fill:url(#linearGradient5903);stroke:none"
                 d="m 576.66,616.81 c 0,-54.375 44.08,-98.454 98.452,-98.454 v 0 c 54.374,0 98.454,44.079 98.454,98.454 v 0 c 0,54.373 -44.08,98.453 -98.454,98.453 v 0 c -54.372,0 -98.452,-44.08 -98.452,-98.453" />
            </g>
          </g>
        </g>
      </g>
      <g
         id="g5907"
         transform="matrix(0.35277777,0,0,-0.35277777,-186.24701,328.34693)">
        <g
           id="g5909">
          <g
             id="g5915">
            <g
               id="g5917">
              <path
                 inkscape:connector-curvature="0"
                 id="path5931"
                 style="fill:url(#linearGradient5929);stroke:none"
                 d="m 586.399,616.81 c 0,-48.996 39.718,-88.713 88.713,-88.713 v 0 c 48.997,0 88.714,39.717 88.714,88.713 v 0 c 0,48.995 -39.717,88.713 -88.714,88.713 v 0 c -48.995,0 -88.713,-39.718 -88.713,-88.713" />
            </g>
          </g>
        </g>
      </g>
      <g
         id="g5933"
         transform="matrix(0.35277777,0,0,-0.35277777,-186.24701,328.34693)">
        <g
           clip-path="url(#clipPath5939)"
           id="g5935">
          <g
             transform="translate(761.0718,616.8101)"
             id="g5941">
            <path
               inkscape:connector-curvature="0"
               id="path5943"
               style="fill:#ffffff;fill-opacity:1;fill-rule:nonzero;stroke:none"
               d="m 0,0 c 0,-47.477 -38.483,-85.96 -85.959,-85.96 -47.477,0 -85.959,38.483 -85.959,85.96 0,47.475 38.482,85.958 85.959,85.958 C -38.483,85.958 0,47.475 0,0" />
          </g>
          <g
             transform="translate(675.1143,702.7681)"
             id="g5945">
            <path
               inkscape:connector-curvature="0"
               id="path5947"
               style="fill:#ffffff;fill-opacity:1;fill-rule:nonzero;stroke:none"
               d="M 0,0 H -0.001 C -15.662,0 -30.33,-4.208 -42.975,-11.524 l 42.974,-74.434 z" />
          </g>
          <g
             transform="translate(718.0879,691.2437)"
             id="g5949">
            <path
               inkscape:connector-curvature="0"
               id="path5951"
               style="fill:#81c99c;fill-opacity:1;fill-rule:nonzero;stroke:none"
               d="m 0,0 c -12.645,7.316 -27.313,11.524 -42.974,11.524 l -0.001,-85.958 z" />
          </g>
          <g
             transform="translate(749.5474,573.8345)"
             id="g5953">
            <path
               inkscape:connector-curvature="0"
               id="path5955"
               style="fill:#ffffff;fill-opacity:1;fill-rule:nonzero;stroke:none"
               d="M 0,0 C 7.315,12.646 11.524,27.315 11.524,42.976 H -74.435 Z" />
          </g>
          <g
             transform="translate(761.0718,616.8101)"
             id="g5957">
            <path
               inkscape:connector-curvature="0"
               id="path5959"
               style="fill:#81c99c;fill-opacity:1;fill-rule:nonzero;stroke:none"
               d="M 0,0 C 0,15.661 -4.209,30.33 -11.524,42.974 L -85.959,0 Z" />
          </g>
          <g
             transform="translate(749.5474,659.7837)"
             id="g5961">
            <path
               inkscape:connector-curvature="0"
               id="path5963"
               style="fill:#81c99c;fill-opacity:1;fill-rule:nonzero;stroke:none"
               d="M 0,0 C -7.547,13.044 -18.415,23.912 -31.459,31.46 L -74.435,-42.974 Z" />
          </g>
          <g
             transform="translate(632.1396,691.2437)"
             id="g5965">
            <path
               inkscape:connector-curvature="0"
               id="path5967"
               style="fill:#dcddde;fill-opacity:1;fill-rule:nonzero;stroke:none"
               d="M 0,0 C -13.045,-7.546 -23.913,-18.415 -31.461,-31.458 L 42.973,-74.434 Z" />
          </g>
          <g
             transform="translate(675.1128,530.8501)"
             id="g5969">
            <path
               inkscape:connector-curvature="0"
               id="path5971"
               style="fill:#ffffff;fill-opacity:1;fill-rule:nonzero;stroke:none"
               d="M 0,0 C 15.66,0 30.33,4.208 42.974,11.525 L 0,85.96 Z" />
          </g>
          <g
             transform="translate(632.1377,542.375)"
             id="g5973">
            <path
               inkscape:connector-curvature="0"
               id="path5975"
               style="fill:#dcddde;fill-opacity:1;fill-rule:nonzero;stroke:none"
               d="m 0,0 c 12.645,-7.317 27.315,-11.525 42.975,-11.525 v 85.96 z" />
          </g>
          <g
             transform="translate(749.5474,573.8345)"
             id="g5977">
            <path
               inkscape:connector-curvature="0"
               id="path5979"
               style="fill:#dcddde;fill-opacity:1;fill-rule:nonzero;stroke:none"
               d="M 0,0 -74.435,42.976 -31.46,-31.459 C -18.415,-23.912 -7.547,-13.044 0,0" />
          </g>
          <g
             transform="translate(600.6782,573.8345)"
             id="g5981">
            <path
               inkscape:connector-curvature="0"
               id="path5983"
               style="fill:#ffffff;fill-opacity:1;fill-rule:nonzero;stroke:none"
               d="M 0,0 C 7.546,-13.044 18.416,-23.912 31.459,-31.459 L 74.435,42.976 Z" />
          </g>
          <g
             transform="translate(589.1533,616.8101)"
             id="g5985">
            <path
               inkscape:connector-curvature="0"
               id="path5987"
               style="fill:#dcddde;fill-opacity:1;fill-rule:nonzero;stroke:none"
               d="M 0,0 V 0 C 0,-15.661 4.208,-30.33 11.525,-42.976 L 85.959,0 Z" />
          </g>
          <g
             transform="translate(600.6787,659.7852)"
             id="g5989">
            <path
               inkscape:connector-curvature="0"
               id="path5991"
               style="fill:#ffffff;fill-opacity:1;fill-rule:nonzero;stroke:none"
               d="M 0,0 C -7.317,-12.644 -11.525,-27.313 -11.525,-42.975 H 74.434 Z" />
          </g>
        </g>
      </g>
      <g
         id="g5993"
         transform="matrix(0.35277777,0,0,-0.35277777,-186.24701,328.34693)">
        <g
           id="g5995">
          <g
             id="g6001">
            <g
               id="g6003">
              <path
                 inkscape:connector-curvature="0"
                 id="path6017"
                 style="fill:url(#linearGradient6015);stroke:none"
                 d="m 611.798,616.81 c 0,-34.967 28.347,-63.315 63.314,-63.315 v 0 c 34.967,0 63.315,28.348 63.315,63.315 v 0 c 0,34.966 -28.348,63.314 -63.315,63.314 v 0 c -34.967,0 -63.314,-28.348 -63.314,-63.314" />
            </g>
          </g>
        </g>
      </g>
      <g
         transform="matrix(0.35277777,0,0,-0.35277777,73.448934,110.75057)"
         id="g6027">
        <path
           inkscape:connector-curvature="0"
           id="path6029"
           style="fill:#333132;fill-opacity:1;fill-rule:nonzero;stroke:none"
           d="m 0,0 c 0,-33.705 -27.326,-61.03 -61.033,-61.03 -33.706,0 -61.033,27.325 -61.033,61.03 0,33.708 27.327,61.034 61.033,61.034 C -27.326,61.034 0,33.708 0,0" />
      </g>
      <g
         transform="matrix(0.35277777,0,0,-0.35277777,51.940673,81.049713)"
         id="g6031">
        <path
           inkscape:connector-curvature="0"
           id="path6033"
           style="fill:none;stroke:#231f20;stroke-width:1.17999995;stroke-linecap:butt;stroke-linejoin:miter;stroke-miterlimit:10;stroke-dasharray:none;stroke-opacity:1"
           d="M 0,0 V -13.716" />
      </g>
      <g
         transform="matrix(0.35277777,0,0,-0.35277777,37.090952,85.029152)"
         id="g6035">
        <path
           inkscape:connector-curvature="0"
           id="path6037"
           style="fill:none;stroke:#231f20;stroke-width:1.17999995;stroke-linecap:butt;stroke-linejoin:miter;stroke-miterlimit:10;stroke-dasharray:none;stroke-opacity:1"
           d="M 0,0 6.857,-11.877" />
      </g>
      <g
         transform="matrix(0.35277777,0,0,-0.35277777,26.220281,95.90014)"
         id="g6039">
        <path
           inkscape:connector-curvature="0"
           id="path6041"
           style="fill:none;stroke:#231f20;stroke-width:1.17999995;stroke-linecap:butt;stroke-linejoin:miter;stroke-miterlimit:10;stroke-dasharray:none;stroke-opacity:1"
           d="M 0,0 11.878,-6.857" />
      </g>
      <g
         transform="matrix(0.35277777,0,0,-0.35277777,22.241195,110.75004)"
         id="g6043">
        <path
           inkscape:connector-curvature="0"
           id="path6045"
           style="fill:none;stroke:#231f20;stroke-width:1.17999995;stroke-linecap:butt;stroke-linejoin:miter;stroke-miterlimit:10;stroke-dasharray:none;stroke-opacity:1"
           d="M 0,0 13.716,0.001" />
      </g>
      <g
         transform="matrix(0.35277777,0,0,-0.35277777,76.756579,110.75004)"
         id="g6047">
        <path
           inkscape:connector-curvature="0"
           id="path6049"
           style="fill:none;stroke:#231f20;stroke-width:1.17999995;stroke-linecap:butt;stroke-linejoin:miter;stroke-miterlimit:10;stroke-dasharray:none;stroke-opacity:1"
           d="M 0,0 13.716,0.001" />
      </g>
      <g
         transform="matrix(0.35277777,0,0,-0.35277777,26.220281,125.60015)"
         id="g6051">
        <path
           inkscape:connector-curvature="0"
           id="path6053"
           style="fill:none;stroke:#231f20;stroke-width:1.17999995;stroke-linecap:butt;stroke-linejoin:miter;stroke-miterlimit:10;stroke-dasharray:none;stroke-opacity:1"
           d="M 0,0 11.878,6.86" />
      </g>
      <g
         transform="matrix(0.35277777,0,0,-0.35277777,37.090952,136.47114)"
         id="g6055">
        <path
           inkscape:connector-curvature="0"
           id="path6057"
           style="fill:none;stroke:#231f20;stroke-width:1.17999995;stroke-linecap:butt;stroke-linejoin:miter;stroke-miterlimit:10;stroke-dasharray:none;stroke-opacity:1"
           d="M 0,0 6.857,11.88" />
      </g>
      <g
         transform="matrix(0.35277777,0,0,-0.35277777,51.941203,140.45022)"
         id="g6059">
        <path
           inkscape:connector-curvature="0"
           id="path6061"
           style="fill:none;stroke:#231f20;stroke-width:1.17999995;stroke-linecap:butt;stroke-linejoin:miter;stroke-miterlimit:10;stroke-dasharray:none;stroke-opacity:1"
           d="M 0,0 -0.001,13.717" />
      </g>
      <g
         transform="matrix(0.35277777,0,0,-0.35277777,66.791806,136.47114)"
         id="g6063">
        <path
           inkscape:connector-curvature="0"
           id="path6065"
           style="fill:none;stroke:#231f20;stroke-width:1.17999995;stroke-linecap:butt;stroke-linejoin:miter;stroke-miterlimit:10;stroke-dasharray:none;stroke-opacity:1"
           d="M 0,0 -6.862,11.879" />
      </g>
      <g
         transform="matrix(0.35277777,0,0,-0.35277777,77.663147,125.5998)"
         id="g6067">
        <path
           inkscape:connector-curvature="0"
           id="path6069"
           style="fill:none;stroke:#231f20;stroke-width:1.17999995;stroke-linecap:butt;stroke-linejoin:miter;stroke-miterlimit:10;stroke-dasharray:none;stroke-opacity:1"
           d="M 0,0 -11.884,6.856" />
      </g>
      <g
         transform="matrix(0.35277777,0,0,-0.35277777,77.6623,95.898941)"
         id="g6071">
        <path
           inkscape:connector-curvature="0"
           id="path6073"
           style="fill:none;stroke:#231f20;stroke-width:1.17999995;stroke-linecap:butt;stroke-linejoin:miter;stroke-miterlimit:10;stroke-dasharray:none;stroke-opacity:1"
           d="M 0,0 -11.879,-6.863" />
      </g>
      <g
         transform="matrix(0.35277777,0,0,-0.35277777,66.790924,85.027953)"
         id="g6075">
        <path
           inkscape:connector-curvature="0"
           id="path6077"
           style="fill:none;stroke:#231f20;stroke-width:1.17999995;stroke-linecap:butt;stroke-linejoin:miter;stroke-miterlimit:10;stroke-dasharray:none;stroke-opacity:1"
           d="M 0,0 -6.855,-11.884" />
      </g>
      <g
         transform="matrix(0.35277777,0,0,-0.35277777,48.063752,81.303784)"
         id="g6079">
        <path
           inkscape:connector-curvature="0"
           id="path6081"
           style="fill:none;stroke:#231f20;stroke-width:0.58999997;stroke-linecap:butt;stroke-linejoin:miter;stroke-miterlimit:10;stroke-dasharray:none;stroke-opacity:1"
           d="M 0,0 1.144,-8.691" />
      </g>
      <g
         transform="matrix(0.35277777,0,0,-0.35277777,44.253117,82.061868)"
         id="g6083">
        <path
           inkscape:connector-curvature="0"
           id="path6085"
           style="fill:none;stroke:#231f20;stroke-width:0.58999997;stroke-linecap:butt;stroke-linejoin:miter;stroke-miterlimit:10;stroke-dasharray:none;stroke-opacity:1"
           d="M 0,0 2.269,-8.466" />
      </g>
      <g
         transform="matrix(0.35277777,0,0,-0.35277777,40.574632,83.310737)"
         id="g6087">
        <path
           inkscape:connector-curvature="0"
           id="path6089"
           style="fill:none;stroke:#231f20;stroke-width:0.58999997;stroke-linecap:butt;stroke-linejoin:miter;stroke-miterlimit:10;stroke-dasharray:none;stroke-opacity:1"
           d="M 0,0 3.354,-8.097" />
      </g>
      <g
         transform="matrix(0.35277777,0,0,-0.35277777,33.85979,87.187306)"
         id="g6091">
        <path
           inkscape:connector-curvature="0"
           id="path6093"
           style="fill:none;stroke:#231f20;stroke-width:0.58999997;stroke-linecap:butt;stroke-linejoin:miter;stroke-miterlimit:10;stroke-dasharray:none;stroke-opacity:1"
           d="M 0,0 5.337,-6.954" />
      </g>
      <g
         transform="matrix(0.35277777,0,0,-0.35277777,30.938366,89.748402)"
         id="g6095">
        <path
           inkscape:connector-curvature="0"
           id="path6097"
           style="fill:none;stroke:#231f20;stroke-width:0.58999997;stroke-linecap:butt;stroke-linejoin:miter;stroke-miterlimit:10;stroke-dasharray:none;stroke-opacity:1"
           d="M 0,0 6.199,-6.198" />
      </g>
      <g
         transform="matrix(0.35277777,0,0,-0.35277777,28.376917,92.669684)"
         id="g6099">
        <path
           inkscape:connector-curvature="0"
           id="path6101"
           style="fill:none;stroke:#231f20;stroke-width:0.58999997;stroke-linecap:butt;stroke-linejoin:miter;stroke-miterlimit:10;stroke-dasharray:none;stroke-opacity:1"
           d="M 0,0 6.954,-5.335" />
      </g>
      <g
         transform="matrix(0.35277777,0,0,-0.35277777,24.500172,99.383468)"
         id="g6103">
        <path
           inkscape:connector-curvature="0"
           id="path6105"
           style="fill:none;stroke:#231f20;stroke-width:0.58999997;stroke-linecap:butt;stroke-linejoin:miter;stroke-miterlimit:10;stroke-dasharray:none;stroke-opacity:1"
           d="M 0,0 8.097,-3.355" />
      </g>
      <g
         transform="matrix(0.35277777,0,0,-0.35277777,23.251303,103.06248)"
         id="g6107">
        <path
           inkscape:connector-curvature="0"
           id="path6109"
           style="fill:none;stroke:#231f20;stroke-width:0.58999997;stroke-linecap:butt;stroke-linejoin:miter;stroke-miterlimit:10;stroke-dasharray:none;stroke-opacity:1"
           d="M 0,0 8.466,-2.269" />
      </g>
      <g
         transform="matrix(0.35277777,0,0,-0.35277777,22.493396,106.87227)"
         id="g6111">
        <path
           inkscape:connector-curvature="0"
           id="path6113"
           style="fill:none;stroke:#231f20;stroke-width:0.58999997;stroke-linecap:butt;stroke-linejoin:miter;stroke-miterlimit:10;stroke-dasharray:none;stroke-opacity:1"
           d="M 0,0 8.689,-1.146" />
      </g>
      <g
         transform="matrix(0.35277777,0,0,-0.35277777,22.49269,114.62597)"
         id="g6115">
        <path
           inkscape:connector-curvature="0"
           id="path6117"
           style="fill:none;stroke:#231f20;stroke-width:0.58999997;stroke-linecap:butt;stroke-linejoin:miter;stroke-miterlimit:10;stroke-dasharray:none;stroke-opacity:1"
           d="M 0,0 8.691,1.143" />
      </g>
      <g
         transform="matrix(0.35277777,0,0,-0.35277777,23.250633,118.43657)"
         id="g6119">
        <path
           inkscape:connector-curvature="0"
           id="path6121"
           style="fill:none;stroke:#231f20;stroke-width:0.58999997;stroke-linecap:butt;stroke-linejoin:miter;stroke-miterlimit:10;stroke-dasharray:none;stroke-opacity:1"
           d="M 0,0 8.466,2.267" />
      </g>
      <g
         transform="matrix(0.35277777,0,0,-0.35277777,24.499114,122.11559)"
         id="g6123">
        <path
           inkscape:connector-curvature="0"
           id="path6125"
           style="fill:none;stroke:#231f20;stroke-width:0.58999997;stroke-linecap:butt;stroke-linejoin:miter;stroke-miterlimit:10;stroke-dasharray:none;stroke-opacity:1"
           d="M 0,0 8.099,3.354" />
      </g>
      <g
         transform="matrix(0.35277777,0,0,-0.35277777,28.375718,128.8306)"
         id="g6127">
        <path
           inkscape:connector-curvature="0"
           id="path6129"
           style="fill:none;stroke:#231f20;stroke-width:0.58999997;stroke-linecap:butt;stroke-linejoin:miter;stroke-miterlimit:10;stroke-dasharray:none;stroke-opacity:1"
           d="M 0,0 6.955,5.337" />
      </g>
      <g
         transform="matrix(0.35277777,0,0,-0.35277777,30.937132,131.75153)"
         id="g6131">
        <path
           inkscape:connector-curvature="0"
           id="path6133"
           style="fill:none;stroke:#231f20;stroke-width:0.58999997;stroke-linecap:butt;stroke-linejoin:miter;stroke-miterlimit:10;stroke-dasharray:none;stroke-opacity:1"
           d="M 0,0 6.199,6.198" />
      </g>
      <g
         transform="matrix(0.35277777,0,0,-0.35277777,33.857708,134.31348)"
         id="g6135">
        <path
           inkscape:connector-curvature="0"
           id="path6137"
           style="fill:none;stroke:#231f20;stroke-width:0.58999997;stroke-linecap:butt;stroke-linejoin:miter;stroke-miterlimit:10;stroke-dasharray:none;stroke-opacity:1"
           d="M 0,0 5.337,6.956" />
      </g>
      <g
         transform="matrix(0.35277777,0,0,-0.35277777,40.571881,138.1904)"
         id="g6139">
        <path
           inkscape:connector-curvature="0"
           id="path6141"
           style="fill:none;stroke:#231f20;stroke-width:0.58999997;stroke-linecap:butt;stroke-linejoin:miter;stroke-miterlimit:10;stroke-dasharray:none;stroke-opacity:1"
           d="M 0,0 3.355,8.099" />
      </g>
      <g
         transform="matrix(0.35277777,0,0,-0.35277777,44.250718,139.43927)"
         id="g6143">
        <path
           inkscape:connector-curvature="0"
           id="path6145"
           style="fill:none;stroke:#231f20;stroke-width:0.58999997;stroke-linecap:butt;stroke-linejoin:miter;stroke-miterlimit:10;stroke-dasharray:none;stroke-opacity:1"
           d="M 0,0 2.27,8.467" />
      </g>
      <g
         transform="matrix(0.35277777,0,0,-0.35277777,48.061,140.19753)"
         id="g6147">
        <path
           inkscape:connector-curvature="0"
           id="path6149"
           style="fill:none;stroke:#231f20;stroke-width:0.58999997;stroke-linecap:butt;stroke-linejoin:miter;stroke-miterlimit:10;stroke-dasharray:none;stroke-opacity:1"
           d="M 0,0 1.147,8.691" />
      </g>
      <g
         transform="matrix(0.35277777,0,0,-0.35277777,55.814526,140.19806)"
         id="g6151">
        <path
           inkscape:connector-curvature="0"
           id="path6153"
           style="fill:none;stroke:#231f20;stroke-width:0.58999997;stroke-linecap:butt;stroke-linejoin:miter;stroke-miterlimit:10;stroke-dasharray:none;stroke-opacity:1"
           d="M 0,0 -1.142,8.69" />
      </g>
      <g
         transform="matrix(0.35277777,0,0,-0.35277777,59.625302,139.44082)"
         id="g6155">
        <path
           inkscape:connector-curvature="0"
           id="path6157"
           style="fill:none;stroke:#231f20;stroke-width:0.58999997;stroke-linecap:butt;stroke-linejoin:miter;stroke-miterlimit:10;stroke-dasharray:none;stroke-opacity:1"
           d="M 0,0 -2.268,8.469" />
      </g>
      <g
         transform="matrix(0.35277777,0,0,-0.35277777,63.304174,138.19248)"
         id="g6159">
        <path
           inkscape:connector-curvature="0"
           id="path6161"
           style="fill:none;stroke:#231f20;stroke-width:0.58999997;stroke-linecap:butt;stroke-linejoin:miter;stroke-miterlimit:10;stroke-dasharray:none;stroke-opacity:1"
           d="M 0,0 -3.353,8.102" />
      </g>
      <g
         transform="matrix(0.35277777,0,0,-0.35277777,70.019511,134.31588)"
         id="g6163">
        <path
           inkscape:connector-curvature="0"
           id="path6165"
           style="fill:none;stroke:#231f20;stroke-width:0.58999997;stroke-linecap:butt;stroke-linejoin:miter;stroke-miterlimit:10;stroke-dasharray:none;stroke-opacity:1"
           d="M 0,0 -5.336,6.957" />
      </g>
      <g
         transform="matrix(0.35277777,0,0,-0.35277777,72.940617,131.75429)"
         id="g6167">
        <path
           inkscape:connector-curvature="0"
           id="path6169"
           style="fill:none;stroke:#231f20;stroke-width:0.58999997;stroke-linecap:butt;stroke-linejoin:miter;stroke-miterlimit:10;stroke-dasharray:none;stroke-opacity:1"
           d="M 0,0 -6.199,6.2" />
      </g>
      <g
         transform="matrix(0.35277777,0,0,-0.35277777,75.50203,128.83389)"
         id="g6171">
        <path
           inkscape:connector-curvature="0"
           id="path6173"
           style="fill:none;stroke:#231f20;stroke-width:0.58999997;stroke-linecap:butt;stroke-linejoin:miter;stroke-miterlimit:10;stroke-dasharray:none;stroke-opacity:1"
           d="M 0,0 -6.954,5.339" />
      </g>
      <g
         transform="matrix(0.35277777,0,0,-0.35277777,79.379481,122.11887)"
         id="g6175">
        <path
           inkscape:connector-curvature="0"
           id="path6177"
           style="fill:none;stroke:#231f20;stroke-width:0.58999997;stroke-linecap:butt;stroke-linejoin:miter;stroke-miterlimit:10;stroke-dasharray:none;stroke-opacity:1"
           d="M 0,0 -8.098,3.355" />
      </g>
      <g
         transform="matrix(0.35277777,0,0,-0.35277777,80.628667,118.44021)"
         id="g6179">
        <path
           inkscape:connector-curvature="0"
           id="path6181"
           style="fill:none;stroke:#231f20;stroke-width:0.58999997;stroke-linecap:butt;stroke-linejoin:miter;stroke-miterlimit:10;stroke-dasharray:none;stroke-opacity:1"
           d="M 0,0 -8.467,2.273" />
      </g>
      <g
         transform="matrix(0.35277777,0,0,-0.35277777,81.386963,114.62992)"
         id="g6183">
        <path
           inkscape:connector-curvature="0"
           id="path6185"
           style="fill:none;stroke:#231f20;stroke-width:0.58999997;stroke-linecap:butt;stroke-linejoin:miter;stroke-miterlimit:10;stroke-dasharray:none;stroke-opacity:1"
           d="M 0,0 -8.691,1.148" />
      </g>
      <g
         transform="matrix(0.35277777,0,0,-0.35277777,81.387104,106.87604)"
         id="g6187">
        <path
           inkscape:connector-curvature="0"
           id="path6189"
           style="fill:none;stroke:#231f20;stroke-width:0.58999997;stroke-linecap:butt;stroke-linejoin:miter;stroke-miterlimit:10;stroke-dasharray:none;stroke-opacity:1"
           d="M 0,0 -8.691,-1.141" />
      </g>
      <g
         transform="matrix(0.35277777,0,0,-0.35277777,80.629197,103.06523)"
         id="g6191">
        <path
           inkscape:connector-curvature="0"
           id="path6193"
           style="fill:none;stroke:#231f20;stroke-width:0.58999997;stroke-linecap:butt;stroke-linejoin:miter;stroke-miterlimit:10;stroke-dasharray:none;stroke-opacity:1"
           d="M 0,0 -8.466,-2.268" />
      </g>
      <g
         transform="matrix(0.35277777,0,0,-0.35277777,79.381034,99.38622)"
         id="g6195">
        <path
           inkscape:connector-curvature="0"
           id="path6197"
           style="fill:none;stroke:#231f20;stroke-width:0.58999997;stroke-linecap:butt;stroke-linejoin:miter;stroke-miterlimit:10;stroke-dasharray:none;stroke-opacity:1"
           d="M 0,0 -8.101,-3.354" />
      </g>
      <g
         transform="matrix(0.35277777,0,0,-0.35277777,75.504465,92.670883)"
         id="g6199">
        <path
           inkscape:connector-curvature="0"
           id="path6201"
           style="fill:none;stroke:#231f20;stroke-width:0.58999997;stroke-linecap:butt;stroke-linejoin:miter;stroke-miterlimit:10;stroke-dasharray:none;stroke-opacity:1"
           d="M 0,0 -6.955,-5.336" />
      </g>
      <g
         transform="matrix(0.35277777,0,0,-0.35277777,72.942839,89.749601)"
         id="g6203">
        <path
           inkscape:connector-curvature="0"
           id="path6205"
           style="fill:none;stroke:#231f20;stroke-width:0.58999997;stroke-linecap:butt;stroke-linejoin:miter;stroke-miterlimit:10;stroke-dasharray:none;stroke-opacity:1"
           d="M 0,0 -6.199,-6.198" />
      </g>
      <g
         transform="matrix(0.35277777,0,0,-0.35277777,70.022086,87.188011)"
         id="g6207">
        <path
           inkscape:connector-curvature="0"
           id="path6209"
           style="fill:none;stroke:#231f20;stroke-width:0.58999997;stroke-linecap:butt;stroke-linejoin:miter;stroke-miterlimit:10;stroke-dasharray:none;stroke-opacity:1"
           d="M 0,0 -5.337,-6.952" />
      </g>
      <g
         transform="matrix(0.35277777,0,0,-0.35277777,63.307596,83.310737)"
         id="g6211">
        <path
           inkscape:connector-curvature="0"
           id="path6213"
           style="fill:none;stroke:#231f20;stroke-width:0.58999997;stroke-linecap:butt;stroke-linejoin:miter;stroke-miterlimit:10;stroke-dasharray:none;stroke-opacity:1"
           d="M 0,0 -3.356,-8.097" />
      </g>
      <g
         transform="matrix(0.35277777,0,0,-0.35277777,59.628759,82.061374)"
         id="g6215">
        <path
           inkscape:connector-curvature="0"
           id="path6217"
           style="fill:none;stroke:#231f20;stroke-width:0.58999997;stroke-linecap:butt;stroke-linejoin:miter;stroke-miterlimit:10;stroke-dasharray:none;stroke-opacity:1"
           d="M 0,0 -2.271,-8.468" />
      </g>
      <g
         transform="matrix(0.35277777,0,0,-0.35277777,55.817983,81.303431)"
         id="g6219">
        <path
           inkscape:connector-curvature="0"
           id="path6221"
           style="fill:none;stroke:#231f20;stroke-width:0.58999997;stroke-linecap:butt;stroke-linejoin:miter;stroke-miterlimit:10;stroke-dasharray:none;stroke-opacity:1"
           d="M 0,0 -1.146,-8.691" />
      </g>
      <g
         transform="matrix(0.35277777,0,0,-0.35277777,50.341144,118.05815)"
         id="g6223">
        <path
           inkscape:connector-curvature="0"
           id="path6225"
           style="fill:#81c99c;fill-opacity:1;fill-rule:nonzero;stroke:none"
           d="M 0,0 C 0,-5.549 -4.476,-10.025 -10.025,-10.025 V 0 Z m -20.855,0.806 h 10.025 v 14.679 h -10.025 z m 0,15.485 h 10.025 v 10.025 h -10.025 z m 0,10.83 H -10.83 V 41.8 h -10.025 z m -8.415,25.51 h 18.439 V 42.606 H -29.27 Z m 18.439,-62.656 h -19.244 c -5.55,0 -10.025,4.476 -10.025,10.025 h 29.269 z M -40.1,42.606 c 0,5.549 4.475,10.025 10.025,10.025 V 42.606 Z" />
      </g>
      <g
         transform="matrix(0.35277777,0,0,-0.35277777,67.643447,118.05815)"
         id="g6227">
        <path
           inkscape:connector-curvature="0"
           id="path6229"
           style="fill:#81c99c;fill-opacity:1;fill-rule:nonzero;stroke:none"
           d="M 0,0 C 0,-5.549 -4.476,-10.025 -10.025,-10.025 V 0 Z m -10.025,15.485 c 3.849,0 7.161,1.969 9.129,5.013 C -0.358,19.155 0,17.812 0,16.291 V 0.806 h -10.025 z m 0,0.806 v 10.024 c 3.67,0 6.982,-1.969 8.682,-5.012 -1.7,-2.954 -5.012,-5.012 -8.682,-5.012 M 0,42.606 c 0,5.549 -4.476,10.025 -10.025,10.025 V 42.606 Z M -20.855,16.291 h 10.025 v 10.025 h -10.025 z m -8.415,0 h 7.519 v 10.025 h -7.519 z m 0,36.34 h 18.439 V 42.606 H -29.27 Z m -0.805,-36.34 v 10.024 c -3.67,0 -6.892,-1.969 -8.682,-5.012 1.79,-2.954 5.012,-5.012 8.682,-5.012 m 19.244,-26.316 h -19.244 c -5.55,0 -10.025,4.476 -10.025,10.025 h 29.269 z m -19.244,37.146 c -3.849,0 -7.16,-1.969 -9.13,-5.013 -0.537,1.343 -0.895,2.686 -0.895,4.207 V 41.8 h 10.025 z M -40.1,42.606 c 0,5.549 4.475,10.025 10.025,10.025 V 42.606 Z" />
      </g>
      <g
         transform="matrix(0.35277777,0,0,-0.35277777,-186.24701,328.34693)"
         id="g6231">
        <g
           id="g6233" />
        <g
           id="g6291">
          <g
             style="opacity:0.5"
             id="g6289"
             clip-path="url(#clipPath6237)">
            <g
               id="g6287">
              <g
                 id="g6285"
                 clip-path="url(#clipPath6241)">
                <g
                   id="g6283">
                  <g
                     id="g6275" />
                  <g
                     id="g6281"
                     mask="url(#mask6255)">
                    <g
                       id="g6279">
                      <path
                         inkscape:connector-curvature="0"
                         id="path6277"
                         style="fill:url(#linearGradient6273);stroke:none"
                         d="m 625.22,645.675 c 10.051,17.091 28.633,28.564 49.893,28.564 21.283,0 39.881,-11.496 49.923,-28.616 8.057,-13.732 -29.238,-20.584 -49.908,-20.575 -20.664,0.011 -57.985,6.894 -49.908,20.627" />
                    </g>
                  </g>
                </g>
              </g>
            </g>
          </g>
        </g>
      </g>
    </g>
  </g>
</svg>
