<?xml version="1.0" encoding="UTF-8" standalone="no"?>
<!-- Created with Inkscape (http://www.inkscape.org/) -->

<svg
   xmlns:dc="http://purl.org/dc/elements/1.1/"
   xmlns:cc="http://creativecommons.org/ns#"
   xmlns:rdf="http://www.w3.org/1999/02/22-rdf-syntax-ns#"
   xmlns:svg="http://www.w3.org/2000/svg"
   xmlns="http://www.w3.org/2000/svg"
   xmlns:sodipodi="http://sodipodi.sourceforge.net/DTD/sodipodi-0.dtd"
   xmlns:inkscape="http://www.inkscape.org/namespaces/inkscape"
   width="70.836014mm"
   height="70.836014mm"
   viewBox="0 0 70.836014 70.836014"
   version="1.1"
   id="svg29927"
   inkscape:version="0.92.4 (5da689c313, 2019-01-14)"
   sodipodi:docname="20.svg">
  <defs
     id="defs29921">
    <clipPath
       clipPathUnits="userSpaceOnUse"
       id="clipPath6879">
      <path
         d="M 0,780 H 1096 V 0 H 0 Z"
         id="path6877"
         inkscape:connector-curvature="0" />
    </clipPath>
    <clipPath
       clipPathUnits="userSpaceOnUse"
       id="clipPath7091">
      <path
         d="M 878.324,674.239 H 980.388 V 625.048 H 878.324 Z"
         id="path7089"
         inkscape:connector-curvature="0" />
    </clipPath>
    <clipPath
       clipPathUnits="userSpaceOnUse"
       id="clipPath7095">
      <path
         d="m 879.45,645.675 c 10.05,17.091 28.632,28.564 49.893,28.564 21.283,0 39.881,-11.496 49.923,-28.616 8.057,-13.732 -29.238,-20.584 -49.908,-20.575 -20.664,0.011 -57.985,6.894 -49.908,20.627"
         id="path7093"
         inkscape:connector-curvature="0" />
    </clipPath>
    <mask
       maskUnits="userSpaceOnUse"
       x="0"
       y="0"
       width="1"
       height="1"
       id="mask7109">
      <g
         id="g7119">
        <g
           id="g7117">
          <g
             id="g7115">
            <g
               id="g7113">
              <path
                 d="M -32768,32767 H 32767 V -32767 H -32768 Z"
                 style="fill:url(#linearGradient7107);stroke:none"
                 id="path7111"
                 inkscape:connector-curvature="0" />
            </g>
          </g>
        </g>
      </g>
    </mask>
    <linearGradient
       x1="0"
       y1="0"
       x2="1"
       y2="0"
       gradientUnits="userSpaceOnUse"
       gradientTransform="matrix(0,-49.19043,-49.19043,0,929.35596,674.23877)"
       spreadMethod="pad"
       id="linearGradient7107">
      <stop
         style="stop-opacity:1;stop-color:#ffffff"
         offset="0"
         id="stop7101" />
      <stop
         style="stop-opacity:0;stop-color:#ffffff"
         offset="0.41503764"
         id="stop7103" />
      <stop
         style="stop-opacity:0;stop-color:#ffffff"
         offset="1"
         id="stop7105" />
    </linearGradient>
    <linearGradient
       x1="0"
       y1="0"
       x2="1"
       y2="0"
       gradientUnits="userSpaceOnUse"
       gradientTransform="matrix(0,-49.19043,-49.19043,0,929.35596,674.23877)"
       spreadMethod="pad"
       id="linearGradient7127">
      <stop
         style="stop-opacity:1;stop-color:#ffffff"
         offset="0"
         id="stop7121" />
      <stop
         style="stop-opacity:1;stop-color:#ffffff"
         offset="0.41503764"
         id="stop7123" />
      <stop
         style="stop-opacity:1;stop-color:#ffffff"
         offset="1"
         id="stop7125" />
    </linearGradient>
    <linearGradient
       x1="0"
       y1="0"
       x2="1"
       y2="0"
       gradientUnits="userSpaceOnUse"
       gradientTransform="matrix(89.539078,89.539078,89.539078,-89.539078,884.57324,572.03906)"
       spreadMethod="pad"
       id="linearGradient6869">
      <stop
         style="stop-opacity:1;stop-color:#636466"
         offset="0"
         id="stop6859" />
      <stop
         style="stop-opacity:1;stop-color:#414142"
         offset="0.31074429"
         id="stop6861" />
      <stop
         style="stop-opacity:1;stop-color:#414142"
         offset="0.5"
         id="stop6863" />
      <stop
         style="stop-opacity:1;stop-color:#414142"
         offset="0.68925571"
         id="stop6865" />
      <stop
         style="stop-opacity:1;stop-color:#636466"
         offset="1"
         id="stop6867" />
    </linearGradient>
    <clipPath
       clipPathUnits="userSpaceOnUse"
       id="clipPath6793">
      <path
         d="M 0,780 H 1096 V 0 H 0 Z"
         id="path6791"
         inkscape:connector-curvature="0" />
    </clipPath>
    <linearGradient
       x1="0"
       y1="0"
       x2="1"
       y2="0"
       gradientUnits="userSpaceOnUse"
       gradientTransform="matrix(125.46031,125.46031,125.46031,-125.46031,866.61328,554.0791)"
       spreadMethod="pad"
       id="linearGradient6783">
      <stop
         style="stop-opacity:1;stop-color:#414142"
         offset="0"
         id="stop6773" />
      <stop
         style="stop-opacity:1;stop-color:#636466"
         offset="0.31074429"
         id="stop6775" />
      <stop
         style="stop-opacity:1;stop-color:#636466"
         offset="0.5"
         id="stop6777" />
      <stop
         style="stop-opacity:1;stop-color:#636466"
         offset="0.68925571"
         id="stop6779" />
      <stop
         style="stop-opacity:1;stop-color:#414142"
         offset="1"
         id="stop6781" />
    </linearGradient>
    <linearGradient
       x1="0"
       y1="0"
       x2="1"
       y2="0"
       gradientUnits="userSpaceOnUse"
       gradientTransform="matrix(139.2337,139.2337,139.2337,-139.2337,859.72656,547.19238)"
       spreadMethod="pad"
       id="linearGradient6757">
      <stop
         style="stop-opacity:1;stop-color:#636466"
         offset="0"
         id="stop6747" />
      <stop
         style="stop-opacity:1;stop-color:#414142"
         offset="0.31074429"
         id="stop6749" />
      <stop
         style="stop-opacity:1;stop-color:#414142"
         offset="0.5"
         id="stop6751" />
      <stop
         style="stop-opacity:1;stop-color:#414142"
         offset="0.68925571"
         id="stop6753" />
      <stop
         style="stop-opacity:1;stop-color:#636466"
         offset="1"
         id="stop6755" />
    </linearGradient>
    <linearGradient
       x1="0"
       y1="0"
       x2="1"
       y2="0"
       gradientUnits="userSpaceOnUse"
       gradientTransform="matrix(141.98363,141.98363,141.98363,-141.98363,858.35156,545.81738)"
       spreadMethod="pad"
       id="linearGradient6731">
      <stop
         style="stop-opacity:1;stop-color:#414142"
         offset="0"
         id="stop6721" />
      <stop
         style="stop-opacity:1;stop-color:#636466"
         offset="0.31074429"
         id="stop6723" />
      <stop
         style="stop-opacity:1;stop-color:#636466"
         offset="0.5"
         id="stop6725" />
      <stop
         style="stop-opacity:1;stop-color:#636466"
         offset="0.68925571"
         id="stop6727" />
      <stop
         style="stop-opacity:1;stop-color:#414142"
         offset="1"
         id="stop6729" />
    </linearGradient>
  </defs>
  <sodipodi:namedview
     id="base"
     pagecolor="#ffffff"
     bordercolor="#666666"
     borderopacity="1.0"
     inkscape:pageopacity="0.0"
     inkscape:pageshadow="2"
     inkscape:zoom="0.35"
     inkscape:cx="193.23298"
     inkscape:cy="-55.025508"
     inkscape:document-units="mm"
     inkscape:current-layer="layer1"
     showgrid="false"
     inkscape:window-width="1920"
     inkscape:window-height="1017"
     inkscape:window-x="-8"
     inkscape:window-y="-8"
     inkscape:window-maximized="1" />
  <metadata
     id="metadata29924">
    <rdf:RDF>
      <cc:Work
         rdf:about="">
        <dc:format>image/svg+xml</dc:format>
        <dc:type
           rdf:resource="http://purl.org/dc/dcmitype/StillImage" />
        <dc:title></dc:title>
      </cc:Work>
    </rdf:RDF>
  </metadata>
  <g
     inkscape:label="Layer 1"
     inkscape:groupmode="layer"
     id="layer1"
     transform="translate(-54.707108,-63.438489)">
    <g
       id="g31571"
       transform="translate(-86.178571,1.5119048)">
      <g
         id="g6709"
         transform="matrix(0.35277777,0,0,-0.35277777,-151.54769,314.94127)">
        <g
           id="g6711">
          <g
             id="g6717">
            <g
               id="g6719">
              <path
                 inkscape:connector-curvature="0"
                 id="path6733"
                 style="fill:url(#linearGradient6731);stroke:none"
                 d="m 828.945,616.81 c 0,-55.448 44.95,-100.398 100.398,-100.398 v 0 c 55.448,0 100.397,44.95 100.397,100.398 v 0 c 0,55.448 -44.949,100.397 -100.397,100.397 v 0 c -55.448,0 -100.398,-44.949 -100.398,-100.397" />
            </g>
          </g>
        </g>
      </g>
      <g
         id="g6735"
         transform="matrix(0.35277777,0,0,-0.35277777,-151.54769,314.94127)">
        <g
           id="g6737">
          <g
             id="g6743">
            <g
               id="g6745">
              <path
                 inkscape:connector-curvature="0"
                 id="path6759"
                 style="fill:url(#linearGradient6757);stroke:none"
                 d="m 830.89,616.81 c 0,-54.375 44.08,-98.454 98.453,-98.454 v 0 c 54.373,0 98.452,44.079 98.452,98.454 v 0 c 0,54.373 -44.079,98.453 -98.452,98.453 v 0 c -54.373,0 -98.453,-44.08 -98.453,-98.453" />
            </g>
          </g>
        </g>
      </g>
      <g
         id="g6761"
         transform="matrix(0.35277777,0,0,-0.35277777,-151.54769,314.94127)">
        <g
           id="g6763">
          <g
             id="g6769">
            <g
               id="g6771">
              <path
                 inkscape:connector-curvature="0"
                 id="path6785"
                 style="fill:url(#linearGradient6783);stroke:none"
                 d="m 840.629,616.81 c 0,-48.996 39.718,-88.713 88.714,-88.713 v 0 c 48.996,0 88.713,39.717 88.713,88.713 v 0 c 0,48.995 -39.717,88.713 -88.713,88.713 v 0 c -48.996,0 -88.714,-39.718 -88.714,-88.713" />
            </g>
          </g>
        </g>
      </g>
      <g
         id="g6787"
         transform="matrix(0.35277777,0,0,-0.35277777,-151.54769,314.94127)">
        <g
           clip-path="url(#clipPath6793)"
           id="g6789">
          <g
             transform="translate(1015.3018,616.8101)"
             id="g6795">
            <path
               inkscape:connector-curvature="0"
               id="path6797"
               style="fill:#ffffff;fill-opacity:1;fill-rule:nonzero;stroke:none"
               d="m 0,0 c 0,-47.477 -38.483,-85.96 -85.959,-85.96 -47.477,0 -85.959,38.483 -85.959,85.96 0,47.475 38.482,85.958 85.959,85.958 C -38.483,85.958 0,47.475 0,0" />
          </g>
          <g
             transform="translate(929.3438,702.7681)"
             id="g6799">
            <path
               inkscape:connector-curvature="0"
               id="path6801"
               style="fill:#ffffff;fill-opacity:1;fill-rule:nonzero;stroke:none"
               d="m 0,0 h -0.001 c -15.66,0 -30.328,-4.208 -42.974,-11.524 l 42.974,-74.434 z" />
          </g>
          <g
             transform="translate(972.3179,691.2437)"
             id="g6803">
            <path
               inkscape:connector-curvature="0"
               id="path6805"
               style="fill:#81c99c;fill-opacity:1;fill-rule:nonzero;stroke:none"
               d="m 0,0 c -12.645,7.316 -27.314,11.524 -42.974,11.524 l -0.001,-85.958 z" />
          </g>
          <g
             transform="translate(1003.7769,573.8345)"
             id="g6807">
            <path
               inkscape:connector-curvature="0"
               id="path6809"
               style="fill:#81c99c;fill-opacity:1;fill-rule:nonzero;stroke:none"
               d="M 0,0 C 7.316,12.646 11.525,27.315 11.525,42.976 H -74.434 Z" />
          </g>
          <g
             transform="translate(1015.3018,616.8101)"
             id="g6811">
            <path
               inkscape:connector-curvature="0"
               id="path6813"
               style="fill:#81c99c;fill-opacity:1;fill-rule:nonzero;stroke:none"
               d="M 0,0 C 0,15.661 -4.209,30.33 -11.525,42.974 L -85.959,0 Z" />
          </g>
          <g
             transform="translate(1003.7769,659.7837)"
             id="g6815">
            <path
               inkscape:connector-curvature="0"
               id="path6817"
               style="fill:#81c99c;fill-opacity:1;fill-rule:nonzero;stroke:none"
               d="M 0,0 C -7.546,13.044 -18.415,23.912 -31.459,31.46 L -74.434,-42.974 Z" />
          </g>
          <g
             transform="translate(886.3691,691.2437)"
             id="g6819">
            <path
               inkscape:connector-curvature="0"
               id="path6821"
               style="fill:#dcddde;fill-opacity:1;fill-rule:nonzero;stroke:none"
               d="M 0,0 C -13.044,-7.546 -23.913,-18.415 -31.46,-31.458 L 42.974,-74.434 Z" />
          </g>
          <g
             transform="translate(929.3428,530.8501)"
             id="g6823">
            <path
               inkscape:connector-curvature="0"
               id="path6825"
               style="fill:#ffffff;fill-opacity:1;fill-rule:nonzero;stroke:none"
               d="M 0,0 C 15.66,0 30.33,4.208 42.974,11.525 L 0,85.96 Z" />
          </g>
          <g
             transform="translate(886.3677,542.375)"
             id="g6827">
            <path
               inkscape:connector-curvature="0"
               id="path6829"
               style="fill:#dcddde;fill-opacity:1;fill-rule:nonzero;stroke:none"
               d="m 0,0 c 12.645,-7.317 27.315,-11.525 42.975,-11.525 v 85.96 z" />
          </g>
          <g
             transform="translate(1003.7769,573.8345)"
             id="g6831">
            <path
               inkscape:connector-curvature="0"
               id="path6833"
               style="fill:#dcddde;fill-opacity:1;fill-rule:nonzero;stroke:none"
               d="M 0,0 -74.434,42.976 -31.46,-31.459 C -18.415,-23.912 -7.546,-13.044 0,0" />
          </g>
          <g
             transform="translate(854.9082,573.8345)"
             id="g6835">
            <path
               inkscape:connector-curvature="0"
               id="path6837"
               style="fill:#ffffff;fill-opacity:1;fill-rule:nonzero;stroke:none"
               d="M 0,0 C 7.546,-13.044 18.416,-23.912 31.459,-31.459 L 74.435,42.976 Z" />
          </g>
          <g
             transform="translate(843.3833,616.8101)"
             id="g6839">
            <path
               inkscape:connector-curvature="0"
               id="path6841"
               style="fill:#dcddde;fill-opacity:1;fill-rule:nonzero;stroke:none"
               d="M 0,0 V 0 C 0,-15.661 4.208,-30.33 11.525,-42.976 L 85.959,0 Z" />
          </g>
          <g
             transform="translate(854.9087,659.7852)"
             id="g6843">
            <path
               inkscape:connector-curvature="0"
               id="path6845"
               style="fill:#ffffff;fill-opacity:1;fill-rule:nonzero;stroke:none"
               d="M 0,0 C -7.317,-12.644 -11.525,-27.313 -11.525,-42.975 H 74.434 Z" />
          </g>
        </g>
      </g>
      <g
         id="g6847"
         transform="matrix(0.35277777,0,0,-0.35277777,-151.54769,314.94127)">
        <g
           id="g6849">
          <g
             id="g6855">
            <g
               id="g6857">
              <path
                 inkscape:connector-curvature="0"
                 id="path6871"
                 style="fill:url(#linearGradient6869);stroke:none"
                 d="m 866.029,616.81 c 0,-34.967 28.346,-63.315 63.314,-63.315 v 0 c 34.967,0 63.313,28.348 63.313,63.315 v 0 c 0,34.966 -28.346,63.314 -63.313,63.314 v 0 c -34.968,0 -63.314,-28.348 -63.314,-63.314" />
            </g>
          </g>
        </g>
      </g>
      <g
         transform="matrix(0.35277777,0,0,-0.35277777,197.83477,97.344908)"
         id="g6881">
        <path
           inkscape:connector-curvature="0"
           id="path6883"
           style="fill:#333132;fill-opacity:1;fill-rule:nonzero;stroke:none"
           d="m 0,0 c 0,-33.705 -27.325,-61.03 -61.033,-61.03 -33.706,0 -61.032,27.325 -61.032,61.03 0,33.708 27.326,61.034 61.032,61.034 C -27.325,61.034 0,33.708 0,0" />
      </g>
      <g
         transform="matrix(0.35277777,0,0,-0.35277777,176.32651,67.644053)"
         id="g6885">
        <path
           inkscape:connector-curvature="0"
           id="path6887"
           style="fill:none;stroke:#231f20;stroke-width:1.17999995;stroke-linecap:butt;stroke-linejoin:miter;stroke-miterlimit:10;stroke-dasharray:none;stroke-opacity:1"
           d="M 0,0 V -13.716" />
      </g>
      <g
         transform="matrix(0.35277777,0,0,-0.35277777,161.47696,71.623492)"
         id="g6889">
        <path
           inkscape:connector-curvature="0"
           id="path6891"
           style="fill:none;stroke:#231f20;stroke-width:1.17999995;stroke-linecap:butt;stroke-linejoin:miter;stroke-miterlimit:10;stroke-dasharray:none;stroke-opacity:1"
           d="M 0,0 6.857,-11.877" />
      </g>
      <g
         transform="matrix(0.35277777,0,0,-0.35277777,150.60612,82.49448)"
         id="g6893">
        <path
           inkscape:connector-curvature="0"
           id="path6895"
           style="fill:none;stroke:#231f20;stroke-width:1.17999995;stroke-linecap:butt;stroke-linejoin:miter;stroke-miterlimit:10;stroke-dasharray:none;stroke-opacity:1"
           d="M 0,0 11.878,-6.857" />
      </g>
      <g
         transform="matrix(0.35277777,0,0,-0.35277777,146.62721,97.344378)"
         id="g6897">
        <path
           inkscape:connector-curvature="0"
           id="path6899"
           style="fill:none;stroke:#231f20;stroke-width:1.17999995;stroke-linecap:butt;stroke-linejoin:miter;stroke-miterlimit:10;stroke-dasharray:none;stroke-opacity:1"
           d="M 0,0 13.716,0.001" />
      </g>
      <g
         transform="matrix(0.35277777,0,0,-0.35277777,201.14259,97.344378)"
         id="g6901">
        <path
           inkscape:connector-curvature="0"
           id="path6903"
           style="fill:none;stroke:#231f20;stroke-width:1.17999995;stroke-linecap:butt;stroke-linejoin:miter;stroke-miterlimit:10;stroke-dasharray:none;stroke-opacity:1"
           d="M 0,0 13.716,0.001" />
      </g>
      <g
         transform="matrix(0.35277777,0,0,-0.35277777,150.60612,112.19449)"
         id="g6905">
        <path
           inkscape:connector-curvature="0"
           id="path6907"
           style="fill:none;stroke:#231f20;stroke-width:1.17999995;stroke-linecap:butt;stroke-linejoin:miter;stroke-miterlimit:10;stroke-dasharray:none;stroke-opacity:1"
           d="M 0,0 11.878,6.86" />
      </g>
      <g
         transform="matrix(0.35277777,0,0,-0.35277777,161.47696,123.06548)"
         id="g6909">
        <path
           inkscape:connector-curvature="0"
           id="path6911"
           style="fill:none;stroke:#231f20;stroke-width:1.17999995;stroke-linecap:butt;stroke-linejoin:miter;stroke-miterlimit:10;stroke-dasharray:none;stroke-opacity:1"
           d="M 0,0 6.857,11.88" />
      </g>
      <g
         transform="matrix(0.35277777,0,0,-0.35277777,176.32721,127.04456)"
         id="g6913">
        <path
           inkscape:connector-curvature="0"
           id="path6915"
           style="fill:none;stroke:#231f20;stroke-width:1.17999995;stroke-linecap:butt;stroke-linejoin:miter;stroke-miterlimit:10;stroke-dasharray:none;stroke-opacity:1"
           d="M 0,0 -0.002,13.717" />
      </g>
      <g
         transform="matrix(0.35277777,0,0,-0.35277777,191.17782,123.06548)"
         id="g6917">
        <path
           inkscape:connector-curvature="0"
           id="path6919"
           style="fill:none;stroke:#231f20;stroke-width:1.17999995;stroke-linecap:butt;stroke-linejoin:miter;stroke-miterlimit:10;stroke-dasharray:none;stroke-opacity:1"
           d="M 0,0 -6.862,11.879" />
      </g>
      <g
         transform="matrix(0.35277777,0,0,-0.35277777,202.04916,112.19414)"
         id="g6921">
        <path
           inkscape:connector-curvature="0"
           id="path6923"
           style="fill:none;stroke:#231f20;stroke-width:1.17999995;stroke-linecap:butt;stroke-linejoin:miter;stroke-miterlimit:10;stroke-dasharray:none;stroke-opacity:1"
           d="M 0,0 -11.884,6.856" />
      </g>
      <g
         transform="matrix(0.35277777,0,0,-0.35277777,202.04828,82.493281)"
         id="g6925">
        <path
           inkscape:connector-curvature="0"
           id="path6927"
           style="fill:none;stroke:#231f20;stroke-width:1.17999995;stroke-linecap:butt;stroke-linejoin:miter;stroke-miterlimit:10;stroke-dasharray:none;stroke-opacity:1"
           d="M 0,0 -11.88,-6.863" />
      </g>
      <g
         transform="matrix(0.35277777,0,0,-0.35277777,191.17694,71.622293)"
         id="g6929">
        <path
           inkscape:connector-curvature="0"
           id="path6931"
           style="fill:none;stroke:#231f20;stroke-width:1.17999995;stroke-linecap:butt;stroke-linejoin:miter;stroke-miterlimit:10;stroke-dasharray:none;stroke-opacity:1"
           d="M 0,0 -6.855,-11.884" />
      </g>
      <g
         transform="matrix(0.35277777,0,0,-0.35277777,172.44976,67.898124)"
         id="g6933">
        <path
           inkscape:connector-curvature="0"
           id="path6935"
           style="fill:none;stroke:#231f20;stroke-width:0.58999997;stroke-linecap:butt;stroke-linejoin:miter;stroke-miterlimit:10;stroke-dasharray:none;stroke-opacity:1"
           d="M 0,0 1.144,-8.691" />
      </g>
      <g
         transform="matrix(0.35277777,0,0,-0.35277777,168.63913,68.656208)"
         id="g6937">
        <path
           inkscape:connector-curvature="0"
           id="path6939"
           style="fill:none;stroke:#231f20;stroke-width:0.58999997;stroke-linecap:butt;stroke-linejoin:miter;stroke-miterlimit:10;stroke-dasharray:none;stroke-opacity:1"
           d="M 0,0 2.269,-8.466" />
      </g>
      <g
         transform="matrix(0.35277777,0,0,-0.35277777,164.96047,69.905077)"
         id="g6941">
        <path
           inkscape:connector-curvature="0"
           id="path6943"
           style="fill:none;stroke:#231f20;stroke-width:0.58999997;stroke-linecap:butt;stroke-linejoin:miter;stroke-miterlimit:10;stroke-dasharray:none;stroke-opacity:1"
           d="M 0,0 3.354,-8.097" />
      </g>
      <g
         transform="matrix(0.35277777,0,0,-0.35277777,158.24563,73.781646)"
         id="g6945">
        <path
           inkscape:connector-curvature="0"
           id="path6947"
           style="fill:none;stroke:#231f20;stroke-width:0.58999997;stroke-linecap:butt;stroke-linejoin:miter;stroke-miterlimit:10;stroke-dasharray:none;stroke-opacity:1"
           d="M 0,0 5.337,-6.954" />
      </g>
      <g
         transform="matrix(0.35277777,0,0,-0.35277777,155.32434,76.342742)"
         id="g6949">
        <path
           inkscape:connector-curvature="0"
           id="path6951"
           style="fill:none;stroke:#231f20;stroke-width:0.58999997;stroke-linecap:butt;stroke-linejoin:miter;stroke-miterlimit:10;stroke-dasharray:none;stroke-opacity:1"
           d="M 0,0 6.199,-6.198" />
      </g>
      <g
         transform="matrix(0.35277777,0,0,-0.35277777,152.76293,79.264024)"
         id="g6953">
        <path
           inkscape:connector-curvature="0"
           id="path6955"
           style="fill:none;stroke:#231f20;stroke-width:0.58999997;stroke-linecap:butt;stroke-linejoin:miter;stroke-miterlimit:10;stroke-dasharray:none;stroke-opacity:1"
           d="M 0,0 6.954,-5.335" />
      </g>
      <g
         transform="matrix(0.35277777,0,0,-0.35277777,148.88597,85.977808)"
         id="g6957">
        <path
           inkscape:connector-curvature="0"
           id="path6959"
           style="fill:none;stroke:#231f20;stroke-width:0.58999997;stroke-linecap:butt;stroke-linejoin:miter;stroke-miterlimit:10;stroke-dasharray:none;stroke-opacity:1"
           d="M 0,0 8.098,-3.355" />
      </g>
      <g
         transform="matrix(0.35277777,0,0,-0.35277777,147.63732,89.656822)"
         id="g6961">
        <path
           inkscape:connector-curvature="0"
           id="path6963"
           style="fill:none;stroke:#231f20;stroke-width:0.58999997;stroke-linecap:butt;stroke-linejoin:miter;stroke-miterlimit:10;stroke-dasharray:none;stroke-opacity:1"
           d="M 0,0 8.466,-2.269" />
      </g>
      <g
         transform="matrix(0.35277777,0,0,-0.35277777,146.87923,93.46661)"
         id="g6965">
        <path
           inkscape:connector-curvature="0"
           id="path6967"
           style="fill:none;stroke:#231f20;stroke-width:0.58999997;stroke-linecap:butt;stroke-linejoin:miter;stroke-miterlimit:10;stroke-dasharray:none;stroke-opacity:1"
           d="M 0,0 8.69,-1.146" />
      </g>
      <g
         transform="matrix(0.35277777,0,0,-0.35277777,146.8787,101.22031)"
         id="g6969">
        <path
           inkscape:connector-curvature="0"
           id="path6971"
           style="fill:none;stroke:#231f20;stroke-width:0.58999997;stroke-linecap:butt;stroke-linejoin:miter;stroke-miterlimit:10;stroke-dasharray:none;stroke-opacity:1"
           d="M 0,0 8.691,1.143" />
      </g>
      <g
         transform="matrix(0.35277777,0,0,-0.35277777,147.63661,105.03091)"
         id="g6973">
        <path
           inkscape:connector-curvature="0"
           id="path6975"
           style="fill:none;stroke:#231f20;stroke-width:0.58999997;stroke-linecap:butt;stroke-linejoin:miter;stroke-miterlimit:10;stroke-dasharray:none;stroke-opacity:1"
           d="M 0,0 8.466,2.267" />
      </g>
      <g
         transform="matrix(0.35277777,0,0,-0.35277777,148.88513,108.70993)"
         id="g6977">
        <path
           inkscape:connector-curvature="0"
           id="path6979"
           style="fill:none;stroke:#231f20;stroke-width:0.58999997;stroke-linecap:butt;stroke-linejoin:miter;stroke-miterlimit:10;stroke-dasharray:none;stroke-opacity:1"
           d="M 0,0 8.099,3.354" />
      </g>
      <g
         transform="matrix(0.35277777,0,0,-0.35277777,152.76173,115.42494)"
         id="g6981">
        <path
           inkscape:connector-curvature="0"
           id="path6983"
           style="fill:none;stroke:#231f20;stroke-width:0.58999997;stroke-linecap:butt;stroke-linejoin:miter;stroke-miterlimit:10;stroke-dasharray:none;stroke-opacity:1"
           d="M 0,0 6.955,5.337" />
      </g>
      <g
         transform="matrix(0.35277777,0,0,-0.35277777,155.32314,118.34587)"
         id="g6985">
        <path
           inkscape:connector-curvature="0"
           id="path6987"
           style="fill:none;stroke:#231f20;stroke-width:0.58999997;stroke-linecap:butt;stroke-linejoin:miter;stroke-miterlimit:10;stroke-dasharray:none;stroke-opacity:1"
           d="M 0,0 6.199,6.198" />
      </g>
      <g
         transform="matrix(0.35277777,0,0,-0.35277777,158.24372,120.90782)"
         id="g6989">
        <path
           inkscape:connector-curvature="0"
           id="path6991"
           style="fill:none;stroke:#231f20;stroke-width:0.58999997;stroke-linecap:butt;stroke-linejoin:miter;stroke-miterlimit:10;stroke-dasharray:none;stroke-opacity:1"
           d="M 0,0 5.337,6.956" />
      </g>
      <g
         transform="matrix(0.35277777,0,0,-0.35277777,164.95789,124.78474)"
         id="g6993">
        <path
           inkscape:connector-curvature="0"
           id="path6995"
           style="fill:none;stroke:#231f20;stroke-width:0.58999997;stroke-linecap:butt;stroke-linejoin:miter;stroke-miterlimit:10;stroke-dasharray:none;stroke-opacity:1"
           d="M 0,0 3.355,8.099" />
      </g>
      <g
         transform="matrix(0.35277777,0,0,-0.35277777,168.63655,126.03361)"
         id="g6997">
        <path
           inkscape:connector-curvature="0"
           id="path6999"
           style="fill:none;stroke:#231f20;stroke-width:0.58999997;stroke-linecap:butt;stroke-linejoin:miter;stroke-miterlimit:10;stroke-dasharray:none;stroke-opacity:1"
           d="M 0,0 2.271,8.467" />
      </g>
      <g
         transform="matrix(0.35277777,0,0,-0.35277777,172.44701,126.79187)"
         id="g7001">
        <path
           inkscape:connector-curvature="0"
           id="path7003"
           style="fill:none;stroke:#231f20;stroke-width:0.58999997;stroke-linecap:butt;stroke-linejoin:miter;stroke-miterlimit:10;stroke-dasharray:none;stroke-opacity:1"
           d="M 0,0 1.147,8.691" />
      </g>
      <g
         transform="matrix(0.35277777,0,0,-0.35277777,180.20054,126.7924)"
         id="g7005">
        <path
           inkscape:connector-curvature="0"
           id="path7007"
           style="fill:none;stroke:#231f20;stroke-width:0.58999997;stroke-linecap:butt;stroke-linejoin:miter;stroke-miterlimit:10;stroke-dasharray:none;stroke-opacity:1"
           d="M 0,0 -1.142,8.69" />
      </g>
      <g
         transform="matrix(0.35277777,0,0,-0.35277777,184.01114,126.03516)"
         id="g7009">
        <path
           inkscape:connector-curvature="0"
           id="path7011"
           style="fill:none;stroke:#231f20;stroke-width:0.58999997;stroke-linecap:butt;stroke-linejoin:miter;stroke-miterlimit:10;stroke-dasharray:none;stroke-opacity:1"
           d="M 0,0 -2.267,8.469" />
      </g>
      <g
         transform="matrix(0.35277777,0,0,-0.35277777,187.69015,124.78682)"
         id="g7013">
        <path
           inkscape:connector-curvature="0"
           id="path7015"
           style="fill:none;stroke:#231f20;stroke-width:0.58999997;stroke-linecap:butt;stroke-linejoin:miter;stroke-miterlimit:10;stroke-dasharray:none;stroke-opacity:1"
           d="M 0,0 -3.353,8.102" />
      </g>
      <g
         transform="matrix(0.35277777,0,0,-0.35277777,194.40552,120.91022)"
         id="g7017">
        <path
           inkscape:connector-curvature="0"
           id="path7019"
           style="fill:none;stroke:#231f20;stroke-width:0.58999997;stroke-linecap:butt;stroke-linejoin:miter;stroke-miterlimit:10;stroke-dasharray:none;stroke-opacity:1"
           d="M 0,0 -5.336,6.957" />
      </g>
      <g
         transform="matrix(0.35277777,0,0,-0.35277777,197.32645,118.34863)"
         id="g7021">
        <path
           inkscape:connector-curvature="0"
           id="path7023"
           style="fill:none;stroke:#231f20;stroke-width:0.58999997;stroke-linecap:butt;stroke-linejoin:miter;stroke-miterlimit:10;stroke-dasharray:none;stroke-opacity:1"
           d="M 0,0 -6.198,6.2" />
      </g>
      <g
         transform="matrix(0.35277777,0,0,-0.35277777,199.88804,115.42823)"
         id="g7025">
        <path
           inkscape:connector-curvature="0"
           id="path7027"
           style="fill:none;stroke:#231f20;stroke-width:0.58999997;stroke-linecap:butt;stroke-linejoin:miter;stroke-miterlimit:10;stroke-dasharray:none;stroke-opacity:1"
           d="M 0,0 -6.955,5.339" />
      </g>
      <g
         transform="matrix(0.35277777,0,0,-0.35277777,203.76532,108.71321)"
         id="g7029">
        <path
           inkscape:connector-curvature="0"
           id="path7031"
           style="fill:none;stroke:#231f20;stroke-width:0.58999997;stroke-linecap:butt;stroke-linejoin:miter;stroke-miterlimit:10;stroke-dasharray:none;stroke-opacity:1"
           d="M 0,0 -8.098,3.355" />
      </g>
      <g
         transform="matrix(0.35277777,0,0,-0.35277777,205.01468,105.03455)"
         id="g7033">
        <path
           inkscape:connector-curvature="0"
           id="path7035"
           style="fill:none;stroke:#231f20;stroke-width:0.58999997;stroke-linecap:butt;stroke-linejoin:miter;stroke-miterlimit:10;stroke-dasharray:none;stroke-opacity:1"
           d="M 0,0 -8.467,2.273" />
      </g>
      <g
         transform="matrix(0.35277777,0,0,-0.35277777,205.7728,101.22426)"
         id="g7037">
        <path
           inkscape:connector-curvature="0"
           id="path7039"
           style="fill:none;stroke:#231f20;stroke-width:0.58999997;stroke-linecap:butt;stroke-linejoin:miter;stroke-miterlimit:10;stroke-dasharray:none;stroke-opacity:1"
           d="M 0,0 -8.691,1.148" />
      </g>
      <g
         transform="matrix(0.35277777,0,0,-0.35277777,205.77294,93.470385)"
         id="g7041">
        <path
           inkscape:connector-curvature="0"
           id="path7043"
           style="fill:none;stroke:#231f20;stroke-width:0.58999997;stroke-linecap:butt;stroke-linejoin:miter;stroke-miterlimit:10;stroke-dasharray:none;stroke-opacity:1"
           d="M 0,0 -8.69,-1.141" />
      </g>
      <g
         transform="matrix(0.35277777,0,0,-0.35277777,205.01521,89.659573)"
         id="g7045">
        <path
           inkscape:connector-curvature="0"
           id="path7047"
           style="fill:none;stroke:#231f20;stroke-width:0.58999997;stroke-linecap:butt;stroke-linejoin:miter;stroke-miterlimit:10;stroke-dasharray:none;stroke-opacity:1"
           d="M 0,0 -8.466,-2.268" />
      </g>
      <g
         transform="matrix(0.35277777,0,0,-0.35277777,203.76705,85.98056)"
         id="g7049">
        <path
           inkscape:connector-curvature="0"
           id="path7051"
           style="fill:none;stroke:#231f20;stroke-width:0.58999997;stroke-linecap:butt;stroke-linejoin:miter;stroke-miterlimit:10;stroke-dasharray:none;stroke-opacity:1"
           d="M 0,0 -8.101,-3.354" />
      </g>
      <g
         transform="matrix(0.35277777,0,0,-0.35277777,199.89044,79.265223)"
         id="g7053">
        <path
           inkscape:connector-curvature="0"
           id="path7055"
           style="fill:none;stroke:#231f20;stroke-width:0.58999997;stroke-linecap:butt;stroke-linejoin:miter;stroke-miterlimit:10;stroke-dasharray:none;stroke-opacity:1"
           d="M 0,0 -6.955,-5.336" />
      </g>
      <g
         transform="matrix(0.35277777,0,0,-0.35277777,197.32868,76.343941)"
         id="g7057">
        <path
           inkscape:connector-curvature="0"
           id="path7059"
           style="fill:none;stroke:#231f20;stroke-width:0.58999997;stroke-linecap:butt;stroke-linejoin:miter;stroke-miterlimit:10;stroke-dasharray:none;stroke-opacity:1"
           d="M 0,0 -6.198,-6.198" />
      </g>
      <g
         transform="matrix(0.35277777,0,0,-0.35277777,194.40792,73.782351)"
         id="g7061">
        <path
           inkscape:connector-curvature="0"
           id="path7063"
           style="fill:none;stroke:#231f20;stroke-width:0.58999997;stroke-linecap:butt;stroke-linejoin:miter;stroke-miterlimit:10;stroke-dasharray:none;stroke-opacity:1"
           d="M 0,0 -5.337,-6.952" />
      </g>
      <g
         transform="matrix(0.35277777,0,0,-0.35277777,187.69361,69.905077)"
         id="g7065">
        <path
           inkscape:connector-curvature="0"
           id="path7067"
           style="fill:none;stroke:#231f20;stroke-width:0.58999997;stroke-linecap:butt;stroke-linejoin:miter;stroke-miterlimit:10;stroke-dasharray:none;stroke-opacity:1"
           d="M 0,0 -3.356,-8.097" />
      </g>
      <g
         transform="matrix(0.35277777,0,0,-0.35277777,184.0146,68.655714)"
         id="g7069">
        <path
           inkscape:connector-curvature="0"
           id="path7071"
           style="fill:none;stroke:#231f20;stroke-width:0.58999997;stroke-linecap:butt;stroke-linejoin:miter;stroke-miterlimit:10;stroke-dasharray:none;stroke-opacity:1"
           d="M 0,0 -2.271,-8.468" />
      </g>
      <g
         transform="matrix(0.35277777,0,0,-0.35277777,180.20396,67.897771)"
         id="g7073">
        <path
           inkscape:connector-curvature="0"
           id="path7075"
           style="fill:none;stroke:#231f20;stroke-width:0.58999997;stroke-linecap:butt;stroke-linejoin:miter;stroke-miterlimit:10;stroke-dasharray:none;stroke-opacity:1"
           d="M 0,0 -1.146,-8.691" />
      </g>
      <g
         transform="matrix(0.35277777,0,0,-0.35277777,174.72712,104.65249)"
         id="g7077">
        <path
           inkscape:connector-curvature="0"
           id="path7079"
           style="fill:#81c99c;fill-opacity:1;fill-rule:nonzero;stroke:none"
           d="M 0,0 C 0,-5.549 -4.476,-10.025 -10.025,-10.025 V 0 Z m -10.025,16.291 v 10.024 c 3.67,0 6.982,-1.969 8.682,-5.012 -1.7,-2.954 -5.012,-5.012 -8.682,-5.012 m 0,10.83 c 3.849,0 7.161,-1.969 9.13,-5.013 C -0.358,23.451 0,24.794 0,26.315 V 41.8 H -10.025 Z M 0,42.606 c 0,5.549 -4.476,10.025 -10.025,10.025 V 42.606 Z M -20.855,16.291 h 10.025 v 10.025 h -10.025 z m -8.415,0 h 7.519 v 10.025 h -7.519 z m 0,36.34 h 18.439 V 42.606 H -29.27 Z m -0.805,-36.34 v 10.024 c -3.67,0 -6.892,-1.969 -8.682,-5.012 1.79,-2.954 5.012,-5.012 8.682,-5.012 m 19.244,-26.316 h -19.244 c -5.55,0 -10.025,4.476 -10.025,10.025 h 29.269 z m -19.244,25.51 c -3.849,0 -7.16,1.969 -9.13,5.013 -0.537,-1.343 -0.895,-2.686 -0.895,-4.207 V 0.806 h 10.025 z M -40.1,42.606 c 0,5.549 4.475,10.025 10.025,10.025 V 42.606 Z" />
      </g>
      <g
         transform="matrix(0.35277777,0,0,-0.35277777,192.02942,104.65249)"
         id="g7081">
        <path
           inkscape:connector-curvature="0"
           id="path7083"
           style="fill:#81c99c;fill-opacity:1;fill-rule:nonzero;stroke:none"
           d="M 0,0 C 0,-5.549 -4.476,-10.025 -10.025,-10.025 V 0 Z m -10.025,15.485 c 3.849,0 7.161,1.969 9.13,5.013 C -0.358,19.155 0,17.812 0,16.291 V 0.806 h -10.025 z m 0,0.806 v 10.024 c 3.67,0 6.982,-1.969 8.682,-5.012 -1.7,-2.954 -5.012,-5.012 -8.682,-5.012 m 0,10.83 c 3.849,0 7.161,-1.969 9.13,-5.013 C -0.358,23.451 0,24.794 0,26.315 V 41.8 H -10.025 Z M 0,42.606 c 0,5.549 -4.476,10.025 -10.025,10.025 V 42.606 Z m -29.27,10.025 h 18.439 V 42.606 H -29.27 Z m -0.805,-36.34 v 10.024 c -3.67,0 -6.892,-1.969 -8.682,-5.012 1.79,-2.954 5.012,-5.012 8.682,-5.012 m 19.244,-26.316 h -19.244 c -5.55,0 -10.025,4.476 -10.025,10.025 h 29.269 z m -19.244,25.51 c -3.849,0 -7.16,1.969 -9.13,5.013 -0.537,-1.343 -0.895,-2.686 -0.895,-4.207 V 0.806 h 10.025 z m 0,11.636 c -3.849,0 -7.16,-1.969 -9.13,-5.013 -0.537,1.343 -0.895,2.686 -0.895,4.207 V 41.8 h 10.025 z M -40.1,42.606 c 0,5.549 4.475,10.025 10.025,10.025 V 42.606 Z" />
      </g>
      <g
         transform="matrix(0.35277777,0,0,-0.35277777,-151.54769,314.94127)"
         id="g7085">
        <g
           id="g7087" />
        <g
           id="g7145">
          <g
             style="opacity:0.5"
             id="g7143"
             clip-path="url(#clipPath7091)">
            <g
               id="g7141">
              <g
                 id="g7139"
                 clip-path="url(#clipPath7095)">
                <g
                   id="g7137">
                  <g
                     id="g7129" />
                  <g
                     id="g7135"
                     mask="url(#mask7109)">
                    <g
                       id="g7133">
                      <path
                         inkscape:connector-curvature="0"
                         id="path7131"
                         style="fill:url(#linearGradient7127);stroke:none"
                         d="m 879.45,645.675 c 10.05,17.091 28.632,28.564 49.893,28.564 21.283,0 39.881,-11.496 49.923,-28.616 8.057,-13.732 -29.238,-20.584 -49.908,-20.575 -20.664,0.011 -57.985,6.894 -49.908,20.627" />
                    </g>
                  </g>
                </g>
              </g>
            </g>
          </g>
        </g>
      </g>
    </g>
  </g>
</svg>
