<?xml version="1.0" encoding="UTF-8" standalone="no"?>
<!-- Created with Inkscape (http://www.inkscape.org/) -->

<svg
   xmlns:dc="http://purl.org/dc/elements/1.1/"
   xmlns:cc="http://creativecommons.org/ns#"
   xmlns:rdf="http://www.w3.org/1999/02/22-rdf-syntax-ns#"
   xmlns:svg="http://www.w3.org/2000/svg"
   xmlns="http://www.w3.org/2000/svg"
   xmlns:sodipodi="http://sodipodi.sourceforge.net/DTD/sodipodi-0.dtd"
   xmlns:inkscape="http://www.inkscape.org/namespaces/inkscape"
   width="70.836365mm"
   height="70.836014mm"
   viewBox="0 0 70.836365 70.836014"
   version="1.1"
   id="svg31579"
   inkscape:version="0.92.4 (5da689c313, 2019-01-14)"
   sodipodi:docname="25.svg">
  <defs
     id="defs31573">
    <clipPath
       clipPathUnits="userSpaceOnUse"
       id="clipPath7733">
      <path
         d="M 0,780 H 1096 V 0 H 0 Z"
         id="path7731"
         inkscape:connector-curvature="0" />
    </clipPath>
    <clipPath
       clipPathUnits="userSpaceOnUse"
       id="clipPath7945">
      <path
         d="M 115.635,452.524 H 217.698 V 403.333 H 115.635 Z"
         id="path7943"
         inkscape:connector-curvature="0" />
    </clipPath>
    <clipPath
       clipPathUnits="userSpaceOnUse"
       id="clipPath7949">
      <path
         d="m 116.761,423.96 c 10.05,17.091 28.632,28.564 49.892,28.564 21.283,0 39.881,-11.496 49.923,-28.616 8.058,-13.732 -29.238,-20.584 -49.908,-20.575 -20.663,0.011 -57.985,6.895 -49.907,20.627"
         id="path7947"
         inkscape:connector-curvature="0" />
    </clipPath>
    <mask
       maskUnits="userSpaceOnUse"
       x="0"
       y="0"
       width="1"
       height="1"
       id="mask7963">
      <g
         id="g7973">
        <g
           id="g7971">
          <g
             id="g7969">
            <g
               id="g7967">
              <path
                 d="M -32768,32767 H 32767 V -32767 H -32768 Z"
                 style="fill:url(#linearGradient7961);stroke:none"
                 id="path7965"
                 inkscape:connector-curvature="0" />
            </g>
          </g>
        </g>
      </g>
    </mask>
    <linearGradient
       x1="0"
       y1="0"
       x2="1"
       y2="0"
       gradientUnits="userSpaceOnUse"
       gradientTransform="matrix(0,-49.19043,-49.19043,0,166.6665,452.52393)"
       spreadMethod="pad"
       id="linearGradient7961">
      <stop
         style="stop-opacity:1;stop-color:#ffffff"
         offset="0"
         id="stop7955" />
      <stop
         style="stop-opacity:0;stop-color:#ffffff"
         offset="0.41503764"
         id="stop7957" />
      <stop
         style="stop-opacity:0;stop-color:#ffffff"
         offset="1"
         id="stop7959" />
    </linearGradient>
    <linearGradient
       x1="0"
       y1="0"
       x2="1"
       y2="0"
       gradientUnits="userSpaceOnUse"
       gradientTransform="matrix(0,-49.19043,-49.19043,0,166.6665,452.52393)"
       spreadMethod="pad"
       id="linearGradient7981">
      <stop
         style="stop-opacity:1;stop-color:#ffffff"
         offset="0"
         id="stop7975" />
      <stop
         style="stop-opacity:1;stop-color:#ffffff"
         offset="0.41503764"
         id="stop7977" />
      <stop
         style="stop-opacity:1;stop-color:#ffffff"
         offset="1"
         id="stop7979" />
    </linearGradient>
    <linearGradient
       x1="0"
       y1="0"
       x2="1"
       y2="0"
       gradientUnits="userSpaceOnUse"
       gradientTransform="matrix(141.98363,141.98363,141.98363,-141.98363,95.661133,324.10254)"
       spreadMethod="pad"
       id="linearGradient7585">
      <stop
         style="stop-opacity:1;stop-color:#414142"
         offset="0"
         id="stop7575" />
      <stop
         style="stop-opacity:1;stop-color:#636466"
         offset="0.31074429"
         id="stop7577" />
      <stop
         style="stop-opacity:1;stop-color:#636466"
         offset="0.5"
         id="stop7579" />
      <stop
         style="stop-opacity:1;stop-color:#636466"
         offset="0.68925571"
         id="stop7581" />
      <stop
         style="stop-opacity:1;stop-color:#414142"
         offset="1"
         id="stop7583" />
    </linearGradient>
    <linearGradient
       x1="0"
       y1="0"
       x2="1"
       y2="0"
       gradientUnits="userSpaceOnUse"
       gradientTransform="matrix(139.23352,139.23352,139.23352,-139.23352,97.036621,325.47803)"
       spreadMethod="pad"
       id="linearGradient7611">
      <stop
         style="stop-opacity:1;stop-color:#636466"
         offset="0"
         id="stop7601" />
      <stop
         style="stop-opacity:1;stop-color:#414142"
         offset="0.31074429"
         id="stop7603" />
      <stop
         style="stop-opacity:1;stop-color:#414142"
         offset="0.5"
         id="stop7605" />
      <stop
         style="stop-opacity:1;stop-color:#414142"
         offset="0.68925571"
         id="stop7607" />
      <stop
         style="stop-opacity:1;stop-color:#636466"
         offset="1"
         id="stop7609" />
    </linearGradient>
    <linearGradient
       x1="0"
       y1="0"
       x2="1"
       y2="0"
       gradientUnits="userSpaceOnUse"
       gradientTransform="matrix(125.46031,125.46031,125.46031,-125.46031,103.92383,332.36426)"
       spreadMethod="pad"
       id="linearGradient7637">
      <stop
         style="stop-opacity:1;stop-color:#414142"
         offset="0"
         id="stop7627" />
      <stop
         style="stop-opacity:1;stop-color:#636466"
         offset="0.31074429"
         id="stop7629" />
      <stop
         style="stop-opacity:1;stop-color:#636466"
         offset="0.5"
         id="stop7631" />
      <stop
         style="stop-opacity:1;stop-color:#636466"
         offset="0.68925571"
         id="stop7633" />
      <stop
         style="stop-opacity:1;stop-color:#414142"
         offset="1"
         id="stop7635" />
    </linearGradient>
    <clipPath
       clipPathUnits="userSpaceOnUse"
       id="clipPath7647">
      <path
         d="M 0,780 H 1096 V 0 H 0 Z"
         id="path7645"
         inkscape:connector-curvature="0" />
    </clipPath>
    <linearGradient
       x1="0"
       y1="0"
       x2="1"
       y2="0"
       gradientUnits="userSpaceOnUse"
       gradientTransform="matrix(89.539078,89.539078,89.539078,-89.539078,121.8833,350.32471)"
       spreadMethod="pad"
       id="linearGradient7723">
      <stop
         style="stop-opacity:1;stop-color:#636466"
         offset="0"
         id="stop7713" />
      <stop
         style="stop-opacity:1;stop-color:#414142"
         offset="0.31074429"
         id="stop7715" />
      <stop
         style="stop-opacity:1;stop-color:#414142"
         offset="0.5"
         id="stop7717" />
      <stop
         style="stop-opacity:1;stop-color:#414142"
         offset="0.68925571"
         id="stop7719" />
      <stop
         style="stop-opacity:1;stop-color:#636466"
         offset="1"
         id="stop7721" />
    </linearGradient>
  </defs>
  <sodipodi:namedview
     id="base"
     pagecolor="#ffffff"
     bordercolor="#666666"
     borderopacity="1.0"
     inkscape:pageopacity="0.0"
     inkscape:pageshadow="2"
     inkscape:zoom="0.35"
     inkscape:cx="158.38047"
     inkscape:cy="-50.072662"
     inkscape:document-units="mm"
     inkscape:current-layer="layer1"
     showgrid="false"
     inkscape:window-width="1920"
     inkscape:window-height="1017"
     inkscape:window-x="-8"
     inkscape:window-y="-8"
     inkscape:window-maximized="1" />
  <metadata
     id="metadata31576">
    <rdf:RDF>
      <cc:Work
         rdf:about="">
        <dc:format>image/svg+xml</dc:format>
        <dc:type
           rdf:resource="http://purl.org/dc/dcmitype/StillImage" />
        <dc:title></dc:title>
      </cc:Work>
    </rdf:RDF>
  </metadata>
  <g
     inkscape:label="Layer 1"
     inkscape:groupmode="layer"
     id="layer1"
     transform="translate(-63.9285,-64.748929)">
    <g
       id="g33702"
       transform="translate(83.910714,-30.994048)">
      <g
         id="g31629"
         transform="matrix(0.35277777,0,0,-0.35277777,-43.355505,270.54154)">
        <g
           id="g7563">
          <g
             id="g7565">
            <g
               id="g7571">
              <g
                 id="g7573">
                <path
                   d="m 66.255,395.095 c 0,-55.448 44.95,-100.398 100.398,-100.398 v 0 c 55.448,0 100.398,44.95 100.398,100.398 v 0 c 0,55.448 -44.95,100.397 -100.398,100.397 v 0 c -55.448,0 -100.398,-44.949 -100.398,-100.397"
                   style="fill:url(#linearGradient7585);stroke:none"
                   id="path7587"
                   inkscape:connector-curvature="0" />
              </g>
            </g>
          </g>
        </g>
        <g
           id="g7589">
          <g
             id="g7591">
            <g
               id="g7597">
              <g
                 id="g7599">
                <path
                   d="m 68.2,395.095 c 0,-54.374 44.08,-98.454 98.453,-98.454 v 0 c 54.374,0 98.454,44.08 98.454,98.454 v 0 c 0,54.373 -44.08,98.454 -98.454,98.454 v 0 C 112.28,493.549 68.2,449.468 68.2,395.095"
                   style="fill:url(#linearGradient7611);stroke:none"
                   id="path7613"
                   inkscape:connector-curvature="0" />
              </g>
            </g>
          </g>
        </g>
        <g
           id="g7615">
          <g
             id="g7617">
            <g
               id="g7623">
              <g
                 id="g7625">
                <path
                   d="m 77.939,395.095 c 0,-48.996 39.718,-88.713 88.714,-88.713 v 0 c 48.996,0 88.714,39.717 88.714,88.713 v 0 c 0,48.995 -39.718,88.714 -88.714,88.714 v 0 c -48.996,0 -88.714,-39.719 -88.714,-88.714"
                   style="fill:url(#linearGradient7637);stroke:none"
                   id="path7639"
                   inkscape:connector-curvature="0" />
              </g>
            </g>
          </g>
        </g>
        <g
           id="g7641">
          <g
             id="g7643"
             clip-path="url(#clipPath7647)">
            <g
               id="g7649"
               transform="translate(252.6123,395.0947)">
              <path
                 d="m 0,0 c 0,-47.476 -38.483,-85.959 -85.959,-85.959 -47.477,0 -85.959,38.483 -85.959,85.959 0,47.476 38.482,85.958 85.959,85.958 C -38.483,85.958 0,47.476 0,0"
                 style="fill:#ffffff;fill-opacity:1;fill-rule:nonzero;stroke:none"
                 id="path7651"
                 inkscape:connector-curvature="0" />
            </g>
            <g
               id="g7653"
               transform="translate(166.6543,481.0532)">
              <path
                 d="M 0,0 H -0.001 C -15.661,0 -30.33,-4.208 -42.975,-11.524 L -0.001,-85.958 Z"
                 style="fill:#ffffff;fill-opacity:1;fill-rule:nonzero;stroke:none"
                 id="path7655"
                 inkscape:connector-curvature="0" />
            </g>
            <g
               id="g7657"
               transform="translate(209.6284,469.5288)">
              <path
                 d="m 0,0 c -12.645,7.316 -27.314,11.524 -42.974,11.524 l -0.001,-85.958 z"
                 style="fill:#a6ce38;fill-opacity:1;fill-rule:nonzero;stroke:none"
                 id="path7659"
                 inkscape:connector-curvature="0" />
            </g>
            <g
               id="g7661"
               transform="translate(241.0874,352.1196)">
              <path
                 d="M 0,0 C 7.316,12.646 11.525,27.314 11.525,42.975 H -74.434 Z"
                 style="fill:#a6ce38;fill-opacity:1;fill-rule:nonzero;stroke:none"
                 id="path7663"
                 inkscape:connector-curvature="0" />
            </g>
            <g
               id="g7665"
               transform="translate(252.6123,395.0947)">
              <path
                 d="M 0,0 C 0,15.661 -4.209,30.33 -11.525,42.974 L -85.959,0 Z"
                 style="fill:#a6ce38;fill-opacity:1;fill-rule:nonzero;stroke:none"
                 id="path7667"
                 inkscape:connector-curvature="0" />
            </g>
            <g
               id="g7669"
               transform="translate(241.0874,438.0688)">
              <path
                 d="M 0,0 C -7.547,13.044 -18.415,23.912 -31.459,31.46 L -74.434,-42.974 Z"
                 style="fill:#a6ce38;fill-opacity:1;fill-rule:nonzero;stroke:none"
                 id="path7671"
                 inkscape:connector-curvature="0" />
            </g>
            <g
               id="g7673"
               transform="translate(123.6797,469.5288)">
              <path
                 d="M 0,0 C -13.044,-7.546 -23.913,-18.415 -31.461,-31.458 L 42.974,-74.434 Z"
                 style="fill:#dcddde;fill-opacity:1;fill-rule:nonzero;stroke:none"
                 id="path7675"
                 inkscape:connector-curvature="0" />
            </g>
            <g
               id="g7677"
               transform="translate(166.6533,309.1353)">
              <path
                 d="M 0,0 C 15.66,0 30.33,4.208 42.974,11.525 L 0,85.959 Z"
                 style="fill:#ffffff;fill-opacity:1;fill-rule:nonzero;stroke:none"
                 id="path7679"
                 inkscape:connector-curvature="0" />
            </g>
            <g
               id="g7681"
               transform="translate(123.6782,320.6602)">
              <path
                 d="m 0,0 c 12.645,-7.317 27.315,-11.525 42.975,-11.525 v 85.96 z"
                 style="fill:#dcddde;fill-opacity:1;fill-rule:nonzero;stroke:none"
                 id="path7683"
                 inkscape:connector-curvature="0" />
            </g>
            <g
               id="g7685"
               transform="translate(241.0874,352.1196)">
              <path
                 d="M 0,0 -74.434,42.975 -31.46,-31.459 C -18.415,-23.912 -7.547,-13.044 0,0"
                 style="fill:#a6ce38;fill-opacity:1;fill-rule:nonzero;stroke:none"
                 id="path7687"
                 inkscape:connector-curvature="0" />
            </g>
            <g
               id="g7689"
               transform="translate(92.2183,352.1196)">
              <path
                 d="M 0,0 C 7.547,-13.044 18.416,-23.912 31.46,-31.459 L 74.435,42.975 Z"
                 style="fill:#ffffff;fill-opacity:1;fill-rule:nonzero;stroke:none"
                 id="path7691"
                 inkscape:connector-curvature="0" />
            </g>
            <g
               id="g7693"
               transform="translate(80.6938,395.0947)">
              <path
                 d="M 0,0 V 0 C 0,-15.661 4.208,-30.33 11.524,-42.975 L 85.959,0 Z"
                 style="fill:#dcddde;fill-opacity:1;fill-rule:nonzero;stroke:none"
                 id="path7695"
                 inkscape:connector-curvature="0" />
            </g>
            <g
               id="g7697"
               transform="translate(92.2188,438.0703)">
              <path
                 d="m 0,0 c -7.316,-12.644 -11.525,-27.313 -11.525,-42.976 h 85.96 z"
                 style="fill:#ffffff;fill-opacity:1;fill-rule:nonzero;stroke:none"
                 id="path7699"
                 inkscape:connector-curvature="0" />
            </g>
          </g>
        </g>
        <g
           id="g7701">
          <g
             id="g7703">
            <g
               id="g7709">
              <g
                 id="g7711">
                <path
                   d="m 103.339,395.095 c 0,-34.967 28.346,-63.315 63.314,-63.315 v 0 c 34.966,0 63.314,28.348 63.314,63.315 v 0 c 0,34.966 -28.348,63.314 -63.314,63.314 v 0 c -34.968,0 -63.314,-28.348 -63.314,-63.314"
                   style="fill:url(#linearGradient7723);stroke:none"
                   id="path7725"
                   inkscape:connector-curvature="0" />
              </g>
            </g>
          </g>
        </g>
      </g>
      <g
         transform="matrix(0.35277777,0,0,-0.35277777,36.967054,131.16123)"
         id="g7735">
        <path
           inkscape:connector-curvature="0"
           id="path7737"
           style="fill:#333132;fill-opacity:1;fill-rule:nonzero;stroke:none"
           d="m 0,0 c 0,-33.705 -27.325,-61.03 -61.033,-61.03 -33.706,0 -61.033,27.325 -61.033,61.03 0,33.708 27.327,61.034 61.033,61.034 C -27.325,61.034 0,33.708 0,0" />
      </g>
      <g
         transform="matrix(0.35277777,0,0,-0.35277777,15.458829,101.46038)"
         id="g7739">
        <path
           inkscape:connector-curvature="0"
           id="path7741"
           style="fill:none;stroke:#231f20;stroke-width:1.17999995;stroke-linecap:butt;stroke-linejoin:miter;stroke-miterlimit:10;stroke-dasharray:none;stroke-opacity:1"
           d="M 0,0 V -13.716" />
      </g>
      <g
         transform="matrix(0.35277777,0,0,-0.35277777,0.6092482,105.43982)"
         id="g7743">
        <path
           inkscape:connector-curvature="0"
           id="path7745"
           style="fill:none;stroke:#231f20;stroke-width:1.17999995;stroke-linecap:butt;stroke-linejoin:miter;stroke-miterlimit:10;stroke-dasharray:none;stroke-opacity:1"
           d="M 0,0 6.857,-11.877" />
      </g>
      <g
         transform="matrix(0.35277777,0,0,-0.35277777,-10.261564,116.3108)"
         id="g7747">
        <path
           inkscape:connector-curvature="0"
           id="path7749"
           style="fill:none;stroke:#231f20;stroke-width:1.17999995;stroke-linecap:butt;stroke-linejoin:miter;stroke-miterlimit:10;stroke-dasharray:none;stroke-opacity:1"
           d="M 0,0 11.878,-6.857" />
      </g>
      <g
         transform="matrix(0.35277777,0,0,-0.35277777,-14.24065,131.16091)"
         id="g7751">
        <path
           inkscape:connector-curvature="0"
           id="path7753"
           style="fill:none;stroke:#231f20;stroke-width:1.17999995;stroke-linecap:butt;stroke-linejoin:miter;stroke-miterlimit:10;stroke-dasharray:none;stroke-opacity:1"
           d="M 0,0 13.716,0.001" />
      </g>
      <g
         transform="matrix(0.35277777,0,0,-0.35277777,40.274699,131.16091)"
         id="g7755">
        <path
           inkscape:connector-curvature="0"
           id="path7757"
           style="fill:none;stroke:#231f20;stroke-width:1.17999995;stroke-linecap:butt;stroke-linejoin:miter;stroke-miterlimit:10;stroke-dasharray:none;stroke-opacity:1"
           d="M 0,0 13.717,0.001" />
      </g>
      <g
         transform="matrix(0.35277777,0,0,-0.35277777,-10.261564,146.01081)"
         id="g7759">
        <path
           inkscape:connector-curvature="0"
           id="path7761"
           style="fill:none;stroke:#231f20;stroke-width:1.17999995;stroke-linecap:butt;stroke-linejoin:miter;stroke-miterlimit:10;stroke-dasharray:none;stroke-opacity:1"
           d="M 0,0 11.878,6.86" />
      </g>
      <g
         transform="matrix(0.35277777,0,0,-0.35277777,0.6092482,156.8818)"
         id="g7763">
        <path
           inkscape:connector-curvature="0"
           id="path7765"
           style="fill:none;stroke:#231f20;stroke-width:1.17999995;stroke-linecap:butt;stroke-linejoin:miter;stroke-miterlimit:10;stroke-dasharray:none;stroke-opacity:1"
           d="M 0,0 6.857,11.88" />
      </g>
      <g
         transform="matrix(0.35277777,0,0,-0.35277777,15.459499,160.86089)"
         id="g7767">
        <path
           inkscape:connector-curvature="0"
           id="path7769"
           style="fill:none;stroke:#231f20;stroke-width:1.17999995;stroke-linecap:butt;stroke-linejoin:miter;stroke-miterlimit:10;stroke-dasharray:none;stroke-opacity:1"
           d="M 0,0 -0.002,13.717" />
      </g>
      <g
         transform="matrix(0.35277777,0,0,-0.35277777,30.310103,156.8818)"
         id="g7771">
        <path
           inkscape:connector-curvature="0"
           id="path7773"
           style="fill:none;stroke:#231f20;stroke-width:1.17999995;stroke-linecap:butt;stroke-linejoin:miter;stroke-miterlimit:10;stroke-dasharray:none;stroke-opacity:1"
           d="M 0,0 -6.862,11.879" />
      </g>
      <g
         transform="matrix(0.35277777,0,0,-0.35277777,41.181443,146.01046)"
         id="g7775">
        <path
           inkscape:connector-curvature="0"
           id="path7777"
           style="fill:none;stroke:#231f20;stroke-width:1.17999995;stroke-linecap:butt;stroke-linejoin:miter;stroke-miterlimit:10;stroke-dasharray:none;stroke-opacity:1"
           d="M 0,0 -11.885,6.856" />
      </g>
      <g
         transform="matrix(0.35277777,0,0,-0.35277777,41.180597,116.3096)"
         id="g7779">
        <path
           inkscape:connector-curvature="0"
           id="path7781"
           style="fill:none;stroke:#231f20;stroke-width:1.17999995;stroke-linecap:butt;stroke-linejoin:miter;stroke-miterlimit:10;stroke-dasharray:none;stroke-opacity:1"
           d="M 0,0 -11.88,-6.863" />
      </g>
      <g
         transform="matrix(0.35277777,0,0,-0.35277777,30.309256,105.43862)"
         id="g7783">
        <path
           inkscape:connector-curvature="0"
           id="path7785"
           style="fill:none;stroke:#231f20;stroke-width:1.17999995;stroke-linecap:butt;stroke-linejoin:miter;stroke-miterlimit:10;stroke-dasharray:none;stroke-opacity:1"
           d="M 0,0 -6.856,-11.884" />
      </g>
      <g
         transform="matrix(0.35277777,0,0,-0.35277777,11.582048,101.71462)"
         id="g7787">
        <path
           inkscape:connector-curvature="0"
           id="path7789"
           style="fill:none;stroke:#231f20;stroke-width:0.58999997;stroke-linecap:butt;stroke-linejoin:miter;stroke-miterlimit:10;stroke-dasharray:none;stroke-opacity:1"
           d="M 0,0 1.144,-8.691" />
      </g>
      <g
         transform="matrix(0.35277777,0,0,-0.35277777,7.7712719,102.47257)"
         id="g7791">
        <path
           inkscape:connector-curvature="0"
           id="path7793"
           style="fill:none;stroke:#231f20;stroke-width:0.58999997;stroke-linecap:butt;stroke-linejoin:miter;stroke-miterlimit:10;stroke-dasharray:none;stroke-opacity:1"
           d="M 0,0 2.269,-8.467" />
      </g>
      <g
         transform="matrix(0.35277777,0,0,-0.35277777,4.0927523,103.7214)"
         id="g7795">
        <path
           inkscape:connector-curvature="0"
           id="path7797"
           style="fill:none;stroke:#231f20;stroke-width:0.58999997;stroke-linecap:butt;stroke-linejoin:miter;stroke-miterlimit:10;stroke-dasharray:none;stroke-opacity:1"
           d="M 0,0 3.354,-8.097" />
      </g>
      <g
         transform="matrix(0.35277777,0,0,-0.35277777,-2.6220903,107.598)"
         id="g7799">
        <path
           inkscape:connector-curvature="0"
           id="path7801"
           style="fill:none;stroke:#231f20;stroke-width:0.58999997;stroke-linecap:butt;stroke-linejoin:miter;stroke-miterlimit:10;stroke-dasharray:none;stroke-opacity:1"
           d="M 0,0 5.337,-6.954" />
      </g>
      <g
         transform="matrix(0.35277777,0,0,-0.35277777,-5.5433372,110.1591)"
         id="g7803">
        <path
           inkscape:connector-curvature="0"
           id="path7805"
           style="fill:none;stroke:#231f20;stroke-width:0.58999997;stroke-linecap:butt;stroke-linejoin:miter;stroke-miterlimit:10;stroke-dasharray:none;stroke-opacity:1"
           d="M 0,0 6.199,-6.198" />
      </g>
      <g
         transform="matrix(0.35277777,0,0,-0.35277777,-8.1049272,113.08035)"
         id="g7807">
        <path
           inkscape:connector-curvature="0"
           id="path7809"
           style="fill:none;stroke:#231f20;stroke-width:0.58999997;stroke-linecap:butt;stroke-linejoin:miter;stroke-miterlimit:10;stroke-dasharray:none;stroke-opacity:1"
           d="M 0,0 6.955,-5.335" />
      </g>
      <g
         transform="matrix(0.35277777,0,0,-0.35277777,-11.981708,119.79417)"
         id="g7811">
        <path
           inkscape:connector-curvature="0"
           id="path7813"
           style="fill:none;stroke:#231f20;stroke-width:0.58999997;stroke-linecap:butt;stroke-linejoin:miter;stroke-miterlimit:10;stroke-dasharray:none;stroke-opacity:1"
           d="M 0,0 8.097,-3.355" />
      </g>
      <g
         transform="matrix(0.35277777,0,0,-0.35277777,-13.230541,123.47318)"
         id="g7815">
        <path
           inkscape:connector-curvature="0"
           id="path7817"
           style="fill:none;stroke:#231f20;stroke-width:0.58999997;stroke-linecap:butt;stroke-linejoin:miter;stroke-miterlimit:10;stroke-dasharray:none;stroke-opacity:1"
           d="M 0,0 8.466,-2.269" />
      </g>
      <g
         transform="matrix(0.35277777,0,0,-0.35277777,-13.988484,127.28311)"
         id="g7819">
        <path
           inkscape:connector-curvature="0"
           id="path7821"
           style="fill:none;stroke:#231f20;stroke-width:0.58999997;stroke-linecap:butt;stroke-linejoin:miter;stroke-miterlimit:10;stroke-dasharray:none;stroke-opacity:1"
           d="M 0,0 8.689,-1.146" />
      </g>
      <g
         transform="matrix(0.35277777,0,0,-0.35277777,-13.989155,135.03664)"
         id="g7823">
        <path
           inkscape:connector-curvature="0"
           id="path7825"
           style="fill:none;stroke:#231f20;stroke-width:0.58999997;stroke-linecap:butt;stroke-linejoin:miter;stroke-miterlimit:10;stroke-dasharray:none;stroke-opacity:1"
           d="M 0,0 8.691,1.143" />
      </g>
      <g
         transform="matrix(0.35277777,0,0,-0.35277777,-13.23107,138.84727)"
         id="g7827">
        <path
           inkscape:connector-curvature="0"
           id="path7829"
           style="fill:none;stroke:#231f20;stroke-width:0.58999997;stroke-linecap:butt;stroke-linejoin:miter;stroke-miterlimit:10;stroke-dasharray:none;stroke-opacity:1"
           d="M 0,0 8.466,2.267" />
      </g>
      <g
         transform="matrix(0.35277777,0,0,-0.35277777,-11.982731,142.52628)"
         id="g7831">
        <path
           inkscape:connector-curvature="0"
           id="path7833"
           style="fill:none;stroke:#231f20;stroke-width:0.58999997;stroke-linecap:butt;stroke-linejoin:miter;stroke-miterlimit:10;stroke-dasharray:none;stroke-opacity:1"
           d="M 0,0 8.099,3.354" />
      </g>
      <g
         transform="matrix(0.35277777,0,0,-0.35277777,-8.1061619,149.24127)"
         id="g7835">
        <path
           inkscape:connector-curvature="0"
           id="path7837"
           style="fill:none;stroke:#231f20;stroke-width:0.58999997;stroke-linecap:butt;stroke-linejoin:miter;stroke-miterlimit:10;stroke-dasharray:none;stroke-opacity:1"
           d="M 0,0 6.955,5.337" />
      </g>
      <g
         transform="matrix(0.35277777,0,0,-0.35277777,-5.5445367,152.1622)"
         id="g7839">
        <path
           inkscape:connector-curvature="0"
           id="path7841"
           style="fill:none;stroke:#231f20;stroke-width:0.58999997;stroke-linecap:butt;stroke-linejoin:miter;stroke-miterlimit:10;stroke-dasharray:none;stroke-opacity:1"
           d="M 0,0 6.199,6.198" />
      </g>
      <g
         transform="matrix(0.35277777,0,0,-0.35277777,-2.6241365,154.72414)"
         id="g7843">
        <path
           inkscape:connector-curvature="0"
           id="path7845"
           style="fill:none;stroke:#231f20;stroke-width:0.58999997;stroke-linecap:butt;stroke-linejoin:miter;stroke-miterlimit:10;stroke-dasharray:none;stroke-opacity:1"
           d="M 0,0 5.338,6.956" />
      </g>
      <g
         transform="matrix(0.35277777,0,0,-0.35277777,4.090177,158.6011)"
         id="g7847">
        <path
           inkscape:connector-curvature="0"
           id="path7849"
           style="fill:none;stroke:#231f20;stroke-width:0.58999997;stroke-linecap:butt;stroke-linejoin:miter;stroke-miterlimit:10;stroke-dasharray:none;stroke-opacity:1"
           d="M 0,0 3.355,8.099" />
      </g>
      <g
         transform="matrix(0.35277777,0,0,-0.35277777,7.7688378,159.84993)"
         id="g7851">
        <path
           inkscape:connector-curvature="0"
           id="path7853"
           style="fill:none;stroke:#231f20;stroke-width:0.58999997;stroke-linecap:butt;stroke-linejoin:miter;stroke-miterlimit:10;stroke-dasharray:none;stroke-opacity:1"
           d="M 0,0 2.271,8.467" />
      </g>
      <g
         transform="matrix(0.35277777,0,0,-0.35277777,11.57912,160.60837)"
         id="g7855">
        <path
           inkscape:connector-curvature="0"
           id="path7857"
           style="fill:none;stroke:#231f20;stroke-width:0.58999997;stroke-linecap:butt;stroke-linejoin:miter;stroke-miterlimit:10;stroke-dasharray:none;stroke-opacity:1"
           d="M 0,0 1.147,8.691" />
      </g>
      <g
         transform="matrix(0.35277777,0,0,-0.35277777,19.332823,160.60872)"
         id="g7859">
        <path
           inkscape:connector-curvature="0"
           id="path7861"
           style="fill:none;stroke:#231f20;stroke-width:0.58999997;stroke-linecap:butt;stroke-linejoin:miter;stroke-miterlimit:10;stroke-dasharray:none;stroke-opacity:1"
           d="M 0,0 -1.142,8.69" />
      </g>
      <g
         transform="matrix(0.35277777,0,0,-0.35277777,23.143457,159.85148)"
         id="g7863">
        <path
           inkscape:connector-curvature="0"
           id="path7865"
           style="fill:none;stroke:#231f20;stroke-width:0.58999997;stroke-linecap:butt;stroke-linejoin:miter;stroke-miterlimit:10;stroke-dasharray:none;stroke-opacity:1"
           d="M 0,0 -2.268,8.469" />
      </g>
      <g
         transform="matrix(0.35277777,0,0,-0.35277777,26.822471,158.60314)"
         id="g7867">
        <path
           inkscape:connector-curvature="0"
           id="path7869"
           style="fill:none;stroke:#231f20;stroke-width:0.58999997;stroke-linecap:butt;stroke-linejoin:miter;stroke-miterlimit:10;stroke-dasharray:none;stroke-opacity:1"
           d="M 0,0 -3.354,8.102" />
      </g>
      <g
         transform="matrix(0.35277777,0,0,-0.35277777,33.537807,154.72657)"
         id="g7871">
        <path
           inkscape:connector-curvature="0"
           id="path7873"
           style="fill:none;stroke:#231f20;stroke-width:0.58999997;stroke-linecap:butt;stroke-linejoin:miter;stroke-miterlimit:10;stroke-dasharray:none;stroke-opacity:1"
           d="M 0,0 -5.336,6.957" />
      </g>
      <g
         transform="matrix(0.35277777,0,0,-0.35277777,36.458737,152.16512)"
         id="g7875">
        <path
           inkscape:connector-curvature="0"
           id="path7877"
           style="fill:none;stroke:#231f20;stroke-width:0.58999997;stroke-linecap:butt;stroke-linejoin:miter;stroke-miterlimit:10;stroke-dasharray:none;stroke-opacity:1"
           d="M 0,0 -6.199,6.201" />
      </g>
      <g
         transform="matrix(0.35277777,0,0,-0.35277777,39.020186,149.24455)"
         id="g7879">
        <path
           inkscape:connector-curvature="0"
           id="path7881"
           style="fill:none;stroke:#231f20;stroke-width:0.58999997;stroke-linecap:butt;stroke-linejoin:miter;stroke-miterlimit:10;stroke-dasharray:none;stroke-opacity:1"
           d="M 0,0 -6.954,5.339" />
      </g>
      <g
         transform="matrix(0.35277777,0,0,-0.35277777,42.897637,142.52953)"
         id="g7883">
        <path
           inkscape:connector-curvature="0"
           id="path7885"
           style="fill:none;stroke:#231f20;stroke-width:0.58999997;stroke-linecap:butt;stroke-linejoin:miter;stroke-miterlimit:10;stroke-dasharray:none;stroke-opacity:1"
           d="M 0,0 -8.098,3.355" />
      </g>
      <g
         transform="matrix(0.35277777,0,0,-0.35277777,44.146823,138.85104)"
         id="g7887">
        <path
           inkscape:connector-curvature="0"
           id="path7889"
           style="fill:none;stroke:#231f20;stroke-width:0.58999997;stroke-linecap:butt;stroke-linejoin:miter;stroke-miterlimit:10;stroke-dasharray:none;stroke-opacity:1"
           d="M 0,0 -8.466,2.273" />
      </g>
      <g
         transform="matrix(0.35277777,0,0,-0.35277777,44.905083,135.04059)"
         id="g7891">
        <path
           inkscape:connector-curvature="0"
           id="path7893"
           style="fill:none;stroke:#231f20;stroke-width:0.58999997;stroke-linecap:butt;stroke-linejoin:miter;stroke-miterlimit:10;stroke-dasharray:none;stroke-opacity:1"
           d="M 0,0 -8.691,1.148" />
      </g>
      <g
         transform="matrix(0.35277777,0,0,-0.35277777,44.90526,127.28671)"
         id="g7895">
        <path
           inkscape:connector-curvature="0"
           id="path7897"
           style="fill:none;stroke:#231f20;stroke-width:0.58999997;stroke-linecap:butt;stroke-linejoin:miter;stroke-miterlimit:10;stroke-dasharray:none;stroke-opacity:1"
           d="M 0,0 -8.691,-1.141" />
      </g>
      <g
         transform="matrix(0.35277777,0,0,-0.35277777,44.147493,123.47593)"
         id="g7899">
        <path
           inkscape:connector-curvature="0"
           id="path7901"
           style="fill:none;stroke:#231f20;stroke-width:0.58999997;stroke-linecap:butt;stroke-linejoin:miter;stroke-miterlimit:10;stroke-dasharray:none;stroke-opacity:1"
           d="M 0,0 -8.467,-2.268" />
      </g>
      <g
         transform="matrix(0.35277777,0,0,-0.35277777,42.899365,119.79709)"
         id="g7903">
        <path
           inkscape:connector-curvature="0"
           id="path7905"
           style="fill:none;stroke:#231f20;stroke-width:0.58999997;stroke-linecap:butt;stroke-linejoin:miter;stroke-miterlimit:10;stroke-dasharray:none;stroke-opacity:1"
           d="M 0,0 -8.101,-3.353" />
      </g>
      <g
         transform="matrix(0.35277777,0,0,-0.35277777,39.022761,113.08155)"
         id="g7907">
        <path
           inkscape:connector-curvature="0"
           id="path7909"
           style="fill:none;stroke:#231f20;stroke-width:0.58999997;stroke-linecap:butt;stroke-linejoin:miter;stroke-miterlimit:10;stroke-dasharray:none;stroke-opacity:1"
           d="M 0,0 -6.955,-5.336" />
      </g>
      <g
         transform="matrix(0.35277777,0,0,-0.35277777,36.460995,110.1603)"
         id="g7911">
        <path
           inkscape:connector-curvature="0"
           id="path7913"
           style="fill:none;stroke:#231f20;stroke-width:0.58999997;stroke-linecap:butt;stroke-linejoin:miter;stroke-miterlimit:10;stroke-dasharray:none;stroke-opacity:1"
           d="M 0,0 -6.199,-6.198" />
      </g>
      <g
         transform="matrix(0.35277777,0,0,-0.35277777,33.540242,107.59867)"
         id="g7915">
        <path
           inkscape:connector-curvature="0"
           id="path7917"
           style="fill:none;stroke:#231f20;stroke-width:0.58999997;stroke-linecap:butt;stroke-linejoin:miter;stroke-miterlimit:10;stroke-dasharray:none;stroke-opacity:1"
           d="M 0,0 -5.337,-6.952" />
      </g>
      <g
         transform="matrix(0.35277777,0,0,-0.35277777,26.825928,103.7214)"
         id="g7919">
        <path
           inkscape:connector-curvature="0"
           id="path7921"
           style="fill:none;stroke:#231f20;stroke-width:0.58999997;stroke-linecap:butt;stroke-linejoin:miter;stroke-miterlimit:10;stroke-dasharray:none;stroke-opacity:1"
           d="M 0,0 -3.356,-8.097" />
      </g>
      <g
         transform="matrix(0.35277777,0,0,-0.35277777,23.146879,102.47221)"
         id="g7923">
        <path
           inkscape:connector-curvature="0"
           id="path7925"
           style="fill:none;stroke:#231f20;stroke-width:0.58999997;stroke-linecap:butt;stroke-linejoin:miter;stroke-miterlimit:10;stroke-dasharray:none;stroke-opacity:1"
           d="M 0,0 -2.271,-8.468" />
      </g>
      <g
         transform="matrix(0.35277777,0,0,-0.35277777,19.33628,101.71413)"
         id="g7927">
        <path
           inkscape:connector-curvature="0"
           id="path7929"
           style="fill:none;stroke:#231f20;stroke-width:0.58999997;stroke-linecap:butt;stroke-linejoin:miter;stroke-miterlimit:10;stroke-dasharray:none;stroke-opacity:1"
           d="M 0,0 -1.146,-8.691" />
      </g>
      <g
         transform="matrix(0.35277777,0,0,-0.35277777,13.859264,138.46881)"
         id="g7931">
        <path
           inkscape:connector-curvature="0"
           id="path7933"
           style="fill:#a6ce38;fill-opacity:1;fill-rule:nonzero;stroke:none"
           d="M 0,0 C 0,-5.549 -4.476,-10.025 -10.025,-10.025 V 0 Z m -10.025,16.291 v 10.024 c 3.67,0 6.982,-1.969 8.682,-5.012 -1.7,-2.954 -5.012,-5.012 -8.682,-5.012 m 0,10.83 c 3.849,0 7.161,-1.969 9.129,-5.013 C -0.358,23.451 0,24.794 0,26.315 V 41.8 H -10.025 Z M 0,42.606 c 0,5.549 -4.476,10.025 -10.025,10.025 V 42.606 Z M -20.855,16.291 h 10.025 v 10.025 h -10.025 z m -8.415,0 h 7.519 v 10.025 h -7.519 z m 0,36.34 h 18.439 V 42.606 H -29.27 Z m -0.805,-36.34 v 10.024 c -3.67,0 -6.892,-1.969 -8.682,-5.012 1.79,-2.954 5.012,-5.012 8.682,-5.012 m 19.244,-26.316 h -19.244 c -5.55,0 -10.025,4.476 -10.025,10.025 h 29.269 z m -19.244,25.51 c -3.849,0 -7.16,1.969 -9.13,5.013 -0.537,-1.343 -0.895,-2.686 -0.895,-4.207 V 0.806 h 10.025 z M -40.1,42.606 c 0,5.549 4.475,10.025 10.025,10.025 V 42.606 Z" />
      </g>
      <g
         transform="matrix(0.35277777,0,0,-0.35277777,31.161567,138.46881)"
         id="g7935">
        <path
           inkscape:connector-curvature="0"
           id="path7937"
           style="fill:#a6ce38;fill-opacity:1;fill-rule:nonzero;stroke:none"
           d="M 0,0 C 0,-5.549 -4.476,-10.025 -10.025,-10.025 V 0 Z m -10.025,15.485 c 3.849,0 7.161,1.969 9.129,5.013 C -0.358,19.155 0,17.812 0,16.291 V 0.806 h -10.025 z m 0,0.806 v 10.024 c 3.67,0 6.982,-1.969 8.682,-5.012 -1.7,-2.954 -5.012,-5.012 -8.682,-5.012 M 0,42.606 c 0,5.549 -4.476,10.025 -10.025,10.025 V 42.606 Z M -20.855,16.291 h 10.025 v 10.025 h -10.025 z m -8.415,0 h 7.519 v 10.025 h -7.519 z m 0,36.34 h 18.439 V 42.606 H -29.27 Z m -0.805,-36.34 v 10.024 c -3.67,0 -6.892,-1.969 -8.682,-5.012 1.79,-2.954 5.012,-5.012 8.682,-5.012 m 19.244,-26.316 h -19.244 c -5.55,0 -10.025,4.476 -10.025,10.025 h 29.269 z m -19.244,37.146 c -3.849,0 -7.16,-1.969 -9.13,-5.013 -0.537,1.343 -0.895,2.686 -0.895,4.207 V 41.8 h 10.025 z M -40.1,42.606 c 0,5.549 4.475,10.025 10.025,10.025 V 42.606 Z" />
      </g>
      <g
         transform="matrix(0.35277777,0,0,-0.35277777,-43.355505,270.54154)"
         id="g7939">
        <g
           id="g7941" />
        <g
           id="g7999">
          <g
             style="opacity:0.5"
             id="g7997"
             clip-path="url(#clipPath7945)">
            <g
               id="g7995">
              <g
                 id="g7993"
                 clip-path="url(#clipPath7949)">
                <g
                   id="g7991">
                  <g
                     id="g7983" />
                  <g
                     id="g7989"
                     mask="url(#mask7963)">
                    <g
                       id="g7987">
                      <path
                         inkscape:connector-curvature="0"
                         id="path7985"
                         style="fill:url(#linearGradient7981);stroke:none"
                         d="m 116.761,423.96 c 10.05,17.091 28.632,28.564 49.892,28.564 21.283,0 39.881,-11.496 49.923,-28.616 8.058,-13.732 -29.238,-20.584 -49.908,-20.575 -20.663,0.011 -57.985,6.895 -49.907,20.627" />
                    </g>
                  </g>
                </g>
              </g>
            </g>
          </g>
        </g>
      </g>
    </g>
  </g>
</svg>
