<?xml version="1.0" encoding="UTF-8" standalone="no"?>
<!-- Created with Inkscape (http://www.inkscape.org/) -->

<svg
   xmlns:dc="http://purl.org/dc/elements/1.1/"
   xmlns:cc="http://creativecommons.org/ns#"
   xmlns:rdf="http://www.w3.org/1999/02/22-rdf-syntax-ns#"
   xmlns:svg="http://www.w3.org/2000/svg"
   xmlns="http://www.w3.org/2000/svg"
   xmlns:sodipodi="http://sodipodi.sourceforge.net/DTD/sodipodi-0.dtd"
   xmlns:inkscape="http://www.inkscape.org/namespaces/inkscape"
   width="70.836014mm"
   height="70.836014mm"
   viewBox="0 0 70.836014 70.836014"
   version="1.1"
   id="svg33710"
   inkscape:version="0.92.4 (5da689c313, 2019-01-14)"
   sodipodi:docname="30.svg">
  <defs
     id="defs33704">
    <linearGradient
       x1="0"
       y1="0"
       x2="1"
       y2="0"
       gradientUnits="userSpaceOnUse"
       gradientTransform="matrix(141.98349,141.98349,141.98349,-141.98349,349.89111,324.10303)"
       spreadMethod="pad"
       id="linearGradient8439">
      <stop
         style="stop-opacity:1;stop-color:#414142"
         offset="0"
         id="stop8429" />
      <stop
         style="stop-opacity:1;stop-color:#636466"
         offset="0.31074429"
         id="stop8431" />
      <stop
         style="stop-opacity:1;stop-color:#636466"
         offset="0.5"
         id="stop8433" />
      <stop
         style="stop-opacity:1;stop-color:#636466"
         offset="0.68925571"
         id="stop8435" />
      <stop
         style="stop-opacity:1;stop-color:#414142"
         offset="1"
         id="stop8437" />
    </linearGradient>
    <linearGradient
       x1="0"
       y1="0"
       x2="1"
       y2="0"
       gradientUnits="userSpaceOnUse"
       gradientTransform="matrix(139.23387,139.23387,139.23387,-139.23387,351.26611,325.47803)"
       spreadMethod="pad"
       id="linearGradient8465">
      <stop
         style="stop-opacity:1;stop-color:#636466"
         offset="0"
         id="stop8455" />
      <stop
         style="stop-opacity:1;stop-color:#414142"
         offset="0.31074429"
         id="stop8457" />
      <stop
         style="stop-opacity:1;stop-color:#414142"
         offset="0.5"
         id="stop8459" />
      <stop
         style="stop-opacity:1;stop-color:#414142"
         offset="0.68925571"
         id="stop8461" />
      <stop
         style="stop-opacity:1;stop-color:#636466"
         offset="1"
         id="stop8463" />
    </linearGradient>
    <linearGradient
       x1="0"
       y1="0"
       x2="1"
       y2="0"
       gradientUnits="userSpaceOnUse"
       gradientTransform="matrix(125.46036,125.46036,125.46036,-125.46034,358.15283,332.36475)"
       spreadMethod="pad"
       id="linearGradient8491">
      <stop
         style="stop-opacity:1;stop-color:#414142"
         offset="0"
         id="stop8481" />
      <stop
         style="stop-opacity:1;stop-color:#636466"
         offset="0.31074429"
         id="stop8483" />
      <stop
         style="stop-opacity:1;stop-color:#636466"
         offset="0.5"
         id="stop8485" />
      <stop
         style="stop-opacity:1;stop-color:#636466"
         offset="0.68925571"
         id="stop8487" />
      <stop
         style="stop-opacity:1;stop-color:#414142"
         offset="1"
         id="stop8489" />
    </linearGradient>
    <clipPath
       clipPathUnits="userSpaceOnUse"
       id="clipPath8501">
      <path
         d="M 0,780 H 1096 V 0 H 0 Z"
         id="path8499"
         inkscape:connector-curvature="0" />
    </clipPath>
    <linearGradient
       x1="0"
       y1="0"
       x2="1"
       y2="0"
       gradientUnits="userSpaceOnUse"
       gradientTransform="matrix(89.539078,89.539078,89.539078,-89.539078,376.11279,350.32471)"
       spreadMethod="pad"
       id="linearGradient8577">
      <stop
         style="stop-opacity:1;stop-color:#636466"
         offset="0"
         id="stop8567" />
      <stop
         style="stop-opacity:1;stop-color:#414142"
         offset="0.31074429"
         id="stop8569" />
      <stop
         style="stop-opacity:1;stop-color:#414142"
         offset="0.5"
         id="stop8571" />
      <stop
         style="stop-opacity:1;stop-color:#414142"
         offset="0.68925571"
         id="stop8573" />
      <stop
         style="stop-opacity:1;stop-color:#636466"
         offset="1"
         id="stop8575" />
    </linearGradient>
    <clipPath
       clipPathUnits="userSpaceOnUse"
       id="clipPath8799">
      <path
         d="M 369.864,452.524 H 471.928 V 403.333 H 369.864 Z"
         id="path8797"
         inkscape:connector-curvature="0" />
    </clipPath>
    <clipPath
       clipPathUnits="userSpaceOnUse"
       id="clipPath8803">
      <path
         d="m 370.99,423.96 c 10.051,17.091 28.633,28.564 49.893,28.564 21.283,0 39.881,-11.496 49.923,-28.616 8.058,-13.732 -29.238,-20.584 -49.908,-20.575 -20.663,0.011 -57.985,6.895 -49.908,20.627"
         id="path8801"
         inkscape:connector-curvature="0" />
    </clipPath>
    <mask
       maskUnits="userSpaceOnUse"
       x="0"
       y="0"
       width="1"
       height="1"
       id="mask8817">
      <g
         id="g8827">
        <g
           id="g8825">
          <g
             id="g8823">
            <g
               id="g8821">
              <path
                 d="M -32768,32767 H 32767 V -32767 H -32768 Z"
                 style="fill:url(#linearGradient8815);stroke:none"
                 id="path8819"
                 inkscape:connector-curvature="0" />
            </g>
          </g>
        </g>
      </g>
    </mask>
    <linearGradient
       x1="0"
       y1="0"
       x2="1"
       y2="0"
       gradientUnits="userSpaceOnUse"
       gradientTransform="matrix(0,-49.19043,-49.19043,0,420.896,452.52393)"
       spreadMethod="pad"
       id="linearGradient8815">
      <stop
         style="stop-opacity:1;stop-color:#ffffff"
         offset="0"
         id="stop8809" />
      <stop
         style="stop-opacity:0;stop-color:#ffffff"
         offset="0.41503764"
         id="stop8811" />
      <stop
         style="stop-opacity:0;stop-color:#ffffff"
         offset="1"
         id="stop8813" />
    </linearGradient>
    <linearGradient
       x1="0"
       y1="0"
       x2="1"
       y2="0"
       gradientUnits="userSpaceOnUse"
       gradientTransform="matrix(0,-49.19043,-49.19043,0,420.896,452.52393)"
       spreadMethod="pad"
       id="linearGradient8835">
      <stop
         style="stop-opacity:1;stop-color:#ffffff"
         offset="0"
         id="stop8829" />
      <stop
         style="stop-opacity:1;stop-color:#ffffff"
         offset="0.41503764"
         id="stop8831" />
      <stop
         style="stop-opacity:1;stop-color:#ffffff"
         offset="1"
         id="stop8833" />
    </linearGradient>
  </defs>
  <sodipodi:namedview
     id="base"
     pagecolor="#ffffff"
     bordercolor="#666666"
     borderopacity="1.0"
     inkscape:pageopacity="0.0"
     inkscape:pageshadow="2"
     inkscape:zoom="0.35"
     inkscape:cx="-40.422384"
     inkscape:cy="139.5776"
     inkscape:document-units="mm"
     inkscape:current-layer="layer1"
     showgrid="false"
     inkscape:window-width="1920"
     inkscape:window-height="1017"
     inkscape:window-x="-8"
     inkscape:window-y="-8"
     inkscape:window-maximized="1" />
  <metadata
     id="metadata33707">
    <rdf:RDF>
      <cc:Work
         rdf:about="">
        <dc:format>image/svg+xml</dc:format>
        <dc:type
           rdf:resource="http://purl.org/dc/dcmitype/StillImage" />
        <dc:title></dc:title>
      </cc:Work>
    </rdf:RDF>
  </metadata>
  <g
     inkscape:label="Layer 1"
     inkscape:groupmode="layer"
     id="layer1"
     transform="translate(-116.52842,-114.92723)">
    <g
       id="g37731"
       transform="matrix(0.35277777,0,0,-0.35277777,3.468086,289.72579)">
      <g
         id="g8417">
        <g
           id="g8419">
          <g
             id="g8425">
            <g
               id="g8427">
              <path
                 inkscape:connector-curvature="0"
                 id="path8441"
                 style="fill:url(#linearGradient8439);stroke:none"
                 d="m 320.486,395.095 c 0,-55.448 44.949,-100.398 100.397,-100.398 v 0 c 55.448,0 100.398,44.95 100.398,100.398 v 0 c 0,55.448 -44.95,100.397 -100.398,100.397 v 0 c -55.448,0 -100.397,-44.949 -100.397,-100.397" />
            </g>
          </g>
        </g>
      </g>
      <g
         id="g8443">
        <g
           id="g8445">
          <g
             id="g8451">
            <g
               id="g8453">
              <path
                 inkscape:connector-curvature="0"
                 id="path8467"
                 style="fill:url(#linearGradient8465);stroke:none"
                 d="m 322.43,395.095 c 0,-54.374 44.08,-98.454 98.453,-98.454 v 0 c 54.374,0 98.453,44.08 98.453,98.454 v 0 c 0,54.373 -44.079,98.454 -98.453,98.454 v 0 c -54.373,0 -98.453,-44.081 -98.453,-98.454" />
            </g>
          </g>
        </g>
      </g>
      <g
         id="g8469">
        <g
           id="g8471">
          <g
             id="g8477">
            <g
               id="g8479">
              <path
                 inkscape:connector-curvature="0"
                 id="path8493"
                 style="fill:url(#linearGradient8491);stroke:none"
                 d="m 332.169,395.095 c 0,-48.996 39.718,-88.713 88.714,-88.713 v 0 c 48.996,0 88.714,39.717 88.714,88.713 v 0 c 0,48.995 -39.718,88.714 -88.714,88.714 v 0 c -48.996,0 -88.714,-39.719 -88.714,-88.714" />
            </g>
          </g>
        </g>
      </g>
      <g
         id="g8495">
        <g
           clip-path="url(#clipPath8501)"
           id="g8497">
          <g
             transform="translate(506.8418,395.0947)"
             id="g8503">
            <path
               inkscape:connector-curvature="0"
               id="path8505"
               style="fill:#ffffff;fill-opacity:1;fill-rule:nonzero;stroke:none"
               d="m 0,0 c 0,-47.476 -38.483,-85.959 -85.959,-85.959 -47.476,0 -85.959,38.483 -85.959,85.959 0,47.476 38.483,85.958 85.959,85.958 C -38.483,85.958 0,47.476 0,0" />
          </g>
          <g
             transform="translate(420.8843,481.0532)"
             id="g8507">
            <path
               inkscape:connector-curvature="0"
               id="path8509"
               style="fill:#ffffff;fill-opacity:1;fill-rule:nonzero;stroke:none"
               d="M 0,0 H -0.001 C -15.661,0 -30.33,-4.208 -42.975,-11.524 L -0.001,-85.958 Z" />
          </g>
          <g
             transform="translate(463.8584,469.5288)"
             id="g8511">
            <path
               inkscape:connector-curvature="0"
               id="path8513"
               style="fill:#a6ce38;fill-opacity:1;fill-rule:nonzero;stroke:none"
               d="m 0,0 c -12.645,7.316 -27.314,11.524 -42.974,11.524 l -0.002,-85.958 z" />
          </g>
          <g
             transform="translate(495.3174,352.1196)"
             id="g8515">
            <path
               inkscape:connector-curvature="0"
               id="path8517"
               style="fill:#a6ce38;fill-opacity:1;fill-rule:nonzero;stroke:none"
               d="M 0,0 C 7.315,12.646 11.524,27.314 11.524,42.975 H -74.435 Z" />
          </g>
          <g
             transform="translate(506.8418,395.0947)"
             id="g8519">
            <path
               inkscape:connector-curvature="0"
               id="path8521"
               style="fill:#a6ce38;fill-opacity:1;fill-rule:nonzero;stroke:none"
               d="M 0,0 C 0,15.661 -4.209,30.33 -11.524,42.974 L -85.959,0 Z" />
          </g>
          <g
             transform="translate(495.3174,438.0688)"
             id="g8523">
            <path
               inkscape:connector-curvature="0"
               id="path8525"
               style="fill:#a6ce38;fill-opacity:1;fill-rule:nonzero;stroke:none"
               d="M 0,0 C -7.547,13.044 -18.415,23.912 -31.459,31.46 L -74.435,-42.974 Z" />
          </g>
          <g
             transform="translate(377.9097,469.5288)"
             id="g8527">
            <path
               inkscape:connector-curvature="0"
               id="path8529"
               style="fill:#dcddde;fill-opacity:1;fill-rule:nonzero;stroke:none"
               d="M 0,0 C -13.044,-7.546 -23.913,-18.415 -31.461,-31.458 L 42.973,-74.434 Z" />
          </g>
          <g
             transform="translate(420.8828,309.1353)"
             id="g8531">
            <path
               inkscape:connector-curvature="0"
               id="path8533"
               style="fill:#a6ce38;fill-opacity:1;fill-rule:nonzero;stroke:none"
               d="M 0,0 C 15.66,0 30.33,4.208 42.974,11.525 L 0,85.959 Z" />
          </g>
          <g
             transform="translate(377.9077,320.6602)"
             id="g8535">
            <path
               inkscape:connector-curvature="0"
               id="path8537"
               style="fill:#dcddde;fill-opacity:1;fill-rule:nonzero;stroke:none"
               d="m 0,0 c 12.646,-7.317 27.315,-11.525 42.975,-11.525 v 85.96 z" />
          </g>
          <g
             transform="translate(495.3174,352.1196)"
             id="g8539">
            <path
               inkscape:connector-curvature="0"
               id="path8541"
               style="fill:#a6ce38;fill-opacity:1;fill-rule:nonzero;stroke:none"
               d="M 0,0 -74.435,42.975 -31.46,-31.459 C -18.415,-23.912 -7.547,-13.044 0,0" />
          </g>
          <g
             transform="translate(346.4482,352.1196)"
             id="g8543">
            <path
               inkscape:connector-curvature="0"
               id="path8545"
               style="fill:#ffffff;fill-opacity:1;fill-rule:nonzero;stroke:none"
               d="M 0,0 C 7.547,-13.044 18.416,-23.912 31.459,-31.459 L 74.435,42.975 Z" />
          </g>
          <g
             transform="translate(334.9233,395.0947)"
             id="g8547">
            <path
               inkscape:connector-curvature="0"
               id="path8549"
               style="fill:#dcddde;fill-opacity:1;fill-rule:nonzero;stroke:none"
               d="M 0,0 V 0 C 0,-15.661 4.208,-30.33 11.525,-42.975 L 85.959,0 Z" />
          </g>
          <g
             transform="translate(346.4487,438.0703)"
             id="g8551">
            <path
               inkscape:connector-curvature="0"
               id="path8553"
               style="fill:#ffffff;fill-opacity:1;fill-rule:nonzero;stroke:none"
               d="M 0,0 C -7.317,-12.644 -11.525,-27.313 -11.525,-42.976 H 74.434 Z" />
          </g>
        </g>
      </g>
      <g
         id="g8555">
        <g
           id="g8557">
          <g
             id="g8563">
            <g
               id="g8565">
              <path
                 inkscape:connector-curvature="0"
                 id="path8579"
                 style="fill:url(#linearGradient8577);stroke:none"
                 d="m 357.569,395.095 c 0,-34.967 28.346,-63.315 63.314,-63.315 v 0 c 34.966,0 63.313,28.348 63.313,63.315 v 0 c 0,34.966 -28.347,63.314 -63.313,63.314 v 0 c -34.968,0 -63.314,-28.348 -63.314,-63.314" />
            </g>
          </g>
        </g>
      </g>
      <g
         transform="translate(481.916,395.0938)"
         id="g8589">
        <path
           inkscape:connector-curvature="0"
           id="path8591"
           style="fill:#333132;fill-opacity:1;fill-rule:nonzero;stroke:none"
           d="m 0,0 c 0,-33.705 -27.326,-61.03 -61.033,-61.03 -33.706,0 -61.033,27.325 -61.033,61.03 0,33.708 27.327,61.034 61.033,61.034 C -27.326,61.034 0,33.708 0,0" />
      </g>
      <g
         transform="translate(420.9478,479.2852)"
         id="g8593">
        <path
           inkscape:connector-curvature="0"
           id="path8595"
           style="fill:none;stroke:#231f20;stroke-width:1.17999995;stroke-linecap:butt;stroke-linejoin:miter;stroke-miterlimit:10;stroke-dasharray:none;stroke-opacity:1"
           d="M 0,0 V -13.716" />
      </g>
      <g
         transform="translate(378.8545,468.0049)"
         id="g8597">
        <path
           inkscape:connector-curvature="0"
           id="path8599"
           style="fill:none;stroke:#231f20;stroke-width:1.17999995;stroke-linecap:butt;stroke-linejoin:miter;stroke-miterlimit:10;stroke-dasharray:none;stroke-opacity:1"
           d="M 0,0 6.857,-11.877" />
      </g>
      <g
         transform="translate(348.0396,437.1895)"
         id="g8601">
        <path
           inkscape:connector-curvature="0"
           id="path8603"
           style="fill:none;stroke:#231f20;stroke-width:1.17999995;stroke-linecap:butt;stroke-linejoin:miter;stroke-miterlimit:10;stroke-dasharray:none;stroke-opacity:1"
           d="M 0,0 11.878,-6.857" />
      </g>
      <g
         transform="translate(336.7603,395.0947)"
         id="g8605">
        <path
           inkscape:connector-curvature="0"
           id="path8607"
           style="fill:none;stroke:#231f20;stroke-width:1.17999995;stroke-linecap:butt;stroke-linejoin:miter;stroke-miterlimit:10;stroke-dasharray:none;stroke-opacity:1"
           d="M 0,0 13.716,0.001" />
      </g>
      <g
         transform="translate(491.292,395.0947)"
         id="g8609">
        <path
           inkscape:connector-curvature="0"
           id="path8611"
           style="fill:none;stroke:#231f20;stroke-width:1.17999995;stroke-linecap:butt;stroke-linejoin:miter;stroke-miterlimit:10;stroke-dasharray:none;stroke-opacity:1"
           d="M 0,0 13.717,0.001" />
      </g>
      <g
         transform="translate(348.0396,353.0005)"
         id="g8613">
        <path
           inkscape:connector-curvature="0"
           id="path8615"
           style="fill:none;stroke:#231f20;stroke-width:1.17999995;stroke-linecap:butt;stroke-linejoin:miter;stroke-miterlimit:10;stroke-dasharray:none;stroke-opacity:1"
           d="M 0,0 11.878,6.86" />
      </g>
      <g
         transform="translate(378.8545,322.1851)"
         id="g8617">
        <path
           inkscape:connector-curvature="0"
           id="path8619"
           style="fill:none;stroke:#231f20;stroke-width:1.17999995;stroke-linecap:butt;stroke-linejoin:miter;stroke-miterlimit:10;stroke-dasharray:none;stroke-opacity:1"
           d="M 0,0 6.857,11.88" />
      </g>
      <g
         transform="translate(420.9492,310.9058)"
         id="g8621">
        <path
           inkscape:connector-curvature="0"
           id="path8623"
           style="fill:none;stroke:#231f20;stroke-width:1.17999995;stroke-linecap:butt;stroke-linejoin:miter;stroke-miterlimit:10;stroke-dasharray:none;stroke-opacity:1"
           d="M 0,0 -0.001,13.717" />
      </g>
      <g
         transform="translate(463.0454,322.1851)"
         id="g8625">
        <path
           inkscape:connector-curvature="0"
           id="path8627"
           style="fill:none;stroke:#231f20;stroke-width:1.17999995;stroke-linecap:butt;stroke-linejoin:miter;stroke-miterlimit:10;stroke-dasharray:none;stroke-opacity:1"
           d="M 0,0 -6.862,11.879" />
      </g>
      <g
         transform="translate(493.8618,353.0015)"
         id="g8629">
        <path
           inkscape:connector-curvature="0"
           id="path8631"
           style="fill:none;stroke:#231f20;stroke-width:1.17999995;stroke-linecap:butt;stroke-linejoin:miter;stroke-miterlimit:10;stroke-dasharray:none;stroke-opacity:1"
           d="M 0,0 -11.884,6.856" />
      </g>
      <g
         transform="translate(493.8599,437.1929)"
         id="g8633">
        <path
           inkscape:connector-curvature="0"
           id="path8635"
           style="fill:none;stroke:#231f20;stroke-width:1.17999995;stroke-linecap:butt;stroke-linejoin:miter;stroke-miterlimit:10;stroke-dasharray:none;stroke-opacity:1"
           d="M 0,0 -11.88,-6.863" />
      </g>
      <g
         transform="translate(463.0435,468.0083)"
         id="g8637">
        <path
           inkscape:connector-curvature="0"
           id="path8639"
           style="fill:none;stroke:#231f20;stroke-width:1.17999995;stroke-linecap:butt;stroke-linejoin:miter;stroke-miterlimit:10;stroke-dasharray:none;stroke-opacity:1"
           d="M 0,0 -6.856,-11.884" />
      </g>
      <g
         transform="translate(409.9585,478.5645)"
         id="g8641">
        <path
           inkscape:connector-curvature="0"
           id="path8643"
           style="fill:none;stroke:#231f20;stroke-width:0.58999997;stroke-linecap:butt;stroke-linejoin:miter;stroke-miterlimit:10;stroke-dasharray:none;stroke-opacity:1"
           d="M 0,0 1.144,-8.691" />
      </g>
      <g
         transform="translate(399.1563,476.416)"
         id="g8645">
        <path
           inkscape:connector-curvature="0"
           id="path8647"
           style="fill:none;stroke:#231f20;stroke-width:0.58999997;stroke-linecap:butt;stroke-linejoin:miter;stroke-miterlimit:10;stroke-dasharray:none;stroke-opacity:1"
           d="M 0,0 2.269,-8.467" />
      </g>
      <g
         transform="translate(388.729,472.876)"
         id="g8649">
        <path
           inkscape:connector-curvature="0"
           id="path8651"
           style="fill:none;stroke:#231f20;stroke-width:0.58999997;stroke-linecap:butt;stroke-linejoin:miter;stroke-miterlimit:10;stroke-dasharray:none;stroke-opacity:1"
           d="M 0,0 3.354,-8.097" />
      </g>
      <g
         transform="translate(369.6948,461.8872)"
         id="g8653">
        <path
           inkscape:connector-curvature="0"
           id="path8655"
           style="fill:none;stroke:#231f20;stroke-width:0.58999997;stroke-linecap:butt;stroke-linejoin:miter;stroke-miterlimit:10;stroke-dasharray:none;stroke-opacity:1"
           d="M 0,0 5.337,-6.954" />
      </g>
      <g
         transform="translate(361.4141,454.6274)"
         id="g8657">
        <path
           inkscape:connector-curvature="0"
           id="path8659"
           style="fill:none;stroke:#231f20;stroke-width:0.58999997;stroke-linecap:butt;stroke-linejoin:miter;stroke-miterlimit:10;stroke-dasharray:none;stroke-opacity:1"
           d="M 0,0 6.199,-6.198" />
      </g>
      <g
         transform="translate(354.1528,446.3467)"
         id="g8661">
        <path
           inkscape:connector-curvature="0"
           id="path8663"
           style="fill:none;stroke:#231f20;stroke-width:0.58999997;stroke-linecap:butt;stroke-linejoin:miter;stroke-miterlimit:10;stroke-dasharray:none;stroke-opacity:1"
           d="M 0,0 6.955,-5.335" />
      </g>
      <g
         transform="translate(343.1636,427.3154)"
         id="g8665">
        <path
           inkscape:connector-curvature="0"
           id="path8667"
           style="fill:none;stroke:#231f20;stroke-width:0.58999997;stroke-linecap:butt;stroke-linejoin:miter;stroke-miterlimit:10;stroke-dasharray:none;stroke-opacity:1"
           d="M 0,0 8.097,-3.355" />
      </g>
      <g
         transform="translate(339.6235,416.8867)"
         id="g8669">
        <path
           inkscape:connector-curvature="0"
           id="path8671"
           style="fill:none;stroke:#231f20;stroke-width:0.58999997;stroke-linecap:butt;stroke-linejoin:miter;stroke-miterlimit:10;stroke-dasharray:none;stroke-opacity:1"
           d="M 0,0 8.466,-2.269" />
      </g>
      <g
         transform="translate(337.4751,406.0869)"
         id="g8673">
        <path
           inkscape:connector-curvature="0"
           id="path8675"
           style="fill:none;stroke:#231f20;stroke-width:0.58999997;stroke-linecap:butt;stroke-linejoin:miter;stroke-miterlimit:10;stroke-dasharray:none;stroke-opacity:1"
           d="M 0,0 8.689,-1.146" />
      </g>
      <g
         transform="translate(337.4731,384.1084)"
         id="g8677">
        <path
           inkscape:connector-curvature="0"
           id="path8679"
           style="fill:none;stroke:#231f20;stroke-width:0.58999997;stroke-linecap:butt;stroke-linejoin:miter;stroke-miterlimit:10;stroke-dasharray:none;stroke-opacity:1"
           d="M 0,0 8.691,1.143" />
      </g>
      <g
         transform="translate(339.6221,373.3066)"
         id="g8681">
        <path
           inkscape:connector-curvature="0"
           id="path8683"
           style="fill:none;stroke:#231f20;stroke-width:0.58999997;stroke-linecap:butt;stroke-linejoin:miter;stroke-miterlimit:10;stroke-dasharray:none;stroke-opacity:1"
           d="M 0,0 8.466,2.267" />
      </g>
      <g
         transform="translate(343.1606,362.8779)"
         id="g8685">
        <path
           inkscape:connector-curvature="0"
           id="path8687"
           style="fill:none;stroke:#231f20;stroke-width:0.58999997;stroke-linecap:butt;stroke-linejoin:miter;stroke-miterlimit:10;stroke-dasharray:none;stroke-opacity:1"
           d="M 0,0 8.099,3.354" />
      </g>
      <g
         transform="translate(354.1494,343.8433)"
         id="g8689">
        <path
           inkscape:connector-curvature="0"
           id="path8691"
           style="fill:none;stroke:#231f20;stroke-width:0.58999997;stroke-linecap:butt;stroke-linejoin:miter;stroke-miterlimit:10;stroke-dasharray:none;stroke-opacity:1"
           d="M 0,0 6.955,5.337" />
      </g>
      <g
         transform="translate(361.4102,335.5635)"
         id="g8693">
        <path
           inkscape:connector-curvature="0"
           id="path8695"
           style="fill:none;stroke:#231f20;stroke-width:0.58999997;stroke-linecap:butt;stroke-linejoin:miter;stroke-miterlimit:10;stroke-dasharray:none;stroke-opacity:1"
           d="M 0,0 6.199,6.198" />
      </g>
      <g
         transform="translate(369.689,328.3013)"
         id="g8697">
        <path
           inkscape:connector-curvature="0"
           id="path8699"
           style="fill:none;stroke:#231f20;stroke-width:0.58999997;stroke-linecap:butt;stroke-linejoin:miter;stroke-miterlimit:10;stroke-dasharray:none;stroke-opacity:1"
           d="M 0,0 5.338,6.956" />
      </g>
      <g
         transform="translate(388.7212,317.3115)"
         id="g8701">
        <path
           inkscape:connector-curvature="0"
           id="path8703"
           style="fill:none;stroke:#231f20;stroke-width:0.58999997;stroke-linecap:butt;stroke-linejoin:miter;stroke-miterlimit:10;stroke-dasharray:none;stroke-opacity:1"
           d="M 0,0 3.356,8.099" />
      </g>
      <g
         transform="translate(399.1494,313.7715)"
         id="g8705">
        <path
           inkscape:connector-curvature="0"
           id="path8707"
           style="fill:none;stroke:#231f20;stroke-width:0.58999997;stroke-linecap:butt;stroke-linejoin:miter;stroke-miterlimit:10;stroke-dasharray:none;stroke-opacity:1"
           d="M 0,0 2.27,8.467" />
      </g>
      <g
         transform="translate(409.9502,311.6216)"
         id="g8709">
        <path
           inkscape:connector-curvature="0"
           id="path8711"
           style="fill:none;stroke:#231f20;stroke-width:0.58999997;stroke-linecap:butt;stroke-linejoin:miter;stroke-miterlimit:10;stroke-dasharray:none;stroke-opacity:1"
           d="M 0,0 1.147,8.691" />
      </g>
      <g
         transform="translate(431.9287,311.6206)"
         id="g8713">
        <path
           inkscape:connector-curvature="0"
           id="path8715"
           style="fill:none;stroke:#231f20;stroke-width:0.58999997;stroke-linecap:butt;stroke-linejoin:miter;stroke-miterlimit:10;stroke-dasharray:none;stroke-opacity:1"
           d="M 0,0 -1.142,8.69" />
      </g>
      <g
         transform="translate(442.731,313.7671)"
         id="g8717">
        <path
           inkscape:connector-curvature="0"
           id="path8719"
           style="fill:none;stroke:#231f20;stroke-width:0.58999997;stroke-linecap:butt;stroke-linejoin:miter;stroke-miterlimit:10;stroke-dasharray:none;stroke-opacity:1"
           d="M 0,0 -2.268,8.469" />
      </g>
      <g
         transform="translate(453.1592,317.3057)"
         id="g8721">
        <path
           inkscape:connector-curvature="0"
           id="path8723"
           style="fill:none;stroke:#231f20;stroke-width:0.58999997;stroke-linecap:butt;stroke-linejoin:miter;stroke-miterlimit:10;stroke-dasharray:none;stroke-opacity:1"
           d="M 0,0 -3.353,8.102" />
      </g>
      <g
         transform="translate(472.1953,328.2944)"
         id="g8725">
        <path
           inkscape:connector-curvature="0"
           id="path8727"
           style="fill:none;stroke:#231f20;stroke-width:0.58999997;stroke-linecap:butt;stroke-linejoin:miter;stroke-miterlimit:10;stroke-dasharray:none;stroke-opacity:1"
           d="M 0,0 -5.336,6.957" />
      </g>
      <g
         transform="translate(480.4751,335.5552)"
         id="g8729">
        <path
           inkscape:connector-curvature="0"
           id="path8731"
           style="fill:none;stroke:#231f20;stroke-width:0.58999997;stroke-linecap:butt;stroke-linejoin:miter;stroke-miterlimit:10;stroke-dasharray:none;stroke-opacity:1"
           d="M 0,0 -6.199,6.201" />
      </g>
      <g
         transform="translate(487.7358,343.834)"
         id="g8733">
        <path
           inkscape:connector-curvature="0"
           id="path8735"
           style="fill:none;stroke:#231f20;stroke-width:0.58999997;stroke-linecap:butt;stroke-linejoin:miter;stroke-miterlimit:10;stroke-dasharray:none;stroke-opacity:1"
           d="M 0,0 -6.954,5.339" />
      </g>
      <g
         transform="translate(498.7271,362.8687)"
         id="g8737">
        <path
           inkscape:connector-curvature="0"
           id="path8739"
           style="fill:none;stroke:#231f20;stroke-width:0.58999997;stroke-linecap:butt;stroke-linejoin:miter;stroke-miterlimit:10;stroke-dasharray:none;stroke-opacity:1"
           d="M 0,0 -8.098,3.355" />
      </g>
      <g
         transform="translate(502.2681,373.2959)"
         id="g8741">
        <path
           inkscape:connector-curvature="0"
           id="path8743"
           style="fill:none;stroke:#231f20;stroke-width:0.58999997;stroke-linecap:butt;stroke-linejoin:miter;stroke-miterlimit:10;stroke-dasharray:none;stroke-opacity:1"
           d="M 0,0 -8.466,2.273" />
      </g>
      <g
         transform="translate(504.4175,384.0972)"
         id="g8745">
        <path
           inkscape:connector-curvature="0"
           id="path8747"
           style="fill:none;stroke:#231f20;stroke-width:0.58999997;stroke-linecap:butt;stroke-linejoin:miter;stroke-miterlimit:10;stroke-dasharray:none;stroke-opacity:1"
           d="M 0,0 -8.691,1.148" />
      </g>
      <g
         transform="translate(504.418,406.0767)"
         id="g8749">
        <path
           inkscape:connector-curvature="0"
           id="path8751"
           style="fill:none;stroke:#231f20;stroke-width:0.58999997;stroke-linecap:butt;stroke-linejoin:miter;stroke-miterlimit:10;stroke-dasharray:none;stroke-opacity:1"
           d="M 0,0 -8.691,-1.141" />
      </g>
      <g
         transform="translate(502.27,416.8789)"
         id="g8753">
        <path
           inkscape:connector-curvature="0"
           id="path8755"
           style="fill:none;stroke:#231f20;stroke-width:0.58999997;stroke-linecap:butt;stroke-linejoin:miter;stroke-miterlimit:10;stroke-dasharray:none;stroke-opacity:1"
           d="M 0,0 -8.467,-2.268" />
      </g>
      <g
         transform="translate(498.7314,427.3071)"
         id="g8757">
        <path
           inkscape:connector-curvature="0"
           id="path8759"
           style="fill:none;stroke:#231f20;stroke-width:0.58999997;stroke-linecap:butt;stroke-linejoin:miter;stroke-miterlimit:10;stroke-dasharray:none;stroke-opacity:1"
           d="M 0,0 -8.101,-3.353" />
      </g>
      <g
         transform="translate(487.7427,446.3433)"
         id="g8761">
        <path
           inkscape:connector-curvature="0"
           id="path8763"
           style="fill:none;stroke:#231f20;stroke-width:0.58999997;stroke-linecap:butt;stroke-linejoin:miter;stroke-miterlimit:10;stroke-dasharray:none;stroke-opacity:1"
           d="M 0,0 -6.955,-5.336" />
      </g>
      <g
         transform="translate(480.4814,454.624)"
         id="g8765">
        <path
           inkscape:connector-curvature="0"
           id="path8767"
           style="fill:none;stroke:#231f20;stroke-width:0.58999997;stroke-linecap:butt;stroke-linejoin:miter;stroke-miterlimit:10;stroke-dasharray:none;stroke-opacity:1"
           d="M 0,0 -6.199,-6.198" />
      </g>
      <g
         transform="translate(472.2021,461.8853)"
         id="g8769">
        <path
           inkscape:connector-curvature="0"
           id="path8771"
           style="fill:none;stroke:#231f20;stroke-width:0.58999997;stroke-linecap:butt;stroke-linejoin:miter;stroke-miterlimit:10;stroke-dasharray:none;stroke-opacity:1"
           d="M 0,0 -5.337,-6.952" />
      </g>
      <g
         transform="translate(453.1689,472.876)"
         id="g8773">
        <path
           inkscape:connector-curvature="0"
           id="path8775"
           style="fill:none;stroke:#231f20;stroke-width:0.58999997;stroke-linecap:butt;stroke-linejoin:miter;stroke-miterlimit:10;stroke-dasharray:none;stroke-opacity:1"
           d="M 0,0 -3.356,-8.097" />
      </g>
      <g
         transform="translate(442.7407,476.417)"
         id="g8777">
        <path
           inkscape:connector-curvature="0"
           id="path8779"
           style="fill:none;stroke:#231f20;stroke-width:0.58999997;stroke-linecap:butt;stroke-linejoin:miter;stroke-miterlimit:10;stroke-dasharray:none;stroke-opacity:1"
           d="M 0,0 -2.271,-8.468" />
      </g>
      <g
         transform="translate(431.9385,478.5659)"
         id="g8781">
        <path
           inkscape:connector-curvature="0"
           id="path8783"
           style="fill:none;stroke:#231f20;stroke-width:0.58999997;stroke-linecap:butt;stroke-linejoin:miter;stroke-miterlimit:10;stroke-dasharray:none;stroke-opacity:1"
           d="M 0,0 -1.146,-8.691" />
      </g>
      <g
         transform="translate(416.4136,374.3794)"
         id="g8785">
        <path
           inkscape:connector-curvature="0"
           id="path8787"
           style="fill:#a6ce38;fill-opacity:1;fill-rule:nonzero;stroke:none"
           d="M 0,0 C 0,-5.549 -4.476,-10.025 -10.025,-10.025 V 0 Z m -10.025,15.485 c 3.849,0 7.161,1.969 9.13,5.013 C -0.358,19.155 0,17.812 0,16.291 V 0.806 h -10.025 z m 0,0.806 v 10.024 c 3.67,0 6.982,-1.969 8.682,-5.012 -1.7,-2.954 -5.012,-5.012 -8.682,-5.012 m 0,10.83 c 3.849,0 7.161,-1.969 9.13,-5.013 C -0.358,23.451 0,24.794 0,26.315 V 41.8 H -10.025 Z M 0,42.606 c 0,5.549 -4.476,10.025 -10.025,10.025 V 42.606 Z M -20.855,16.291 h 10.025 v 10.025 h -10.025 z m -8.415,0 h 7.519 v 10.025 h -7.519 z m 0,36.34 h 18.439 V 42.606 H -29.27 Z m 18.439,-62.656 h -19.244 c -5.55,0 -10.025,4.476 -10.025,10.025 h 29.269 z M -40.1,42.606 c 0,5.549 4.475,10.025 10.025,10.025 V 42.606 Z" />
      </g>
      <g
         transform="translate(465.4595,374.3794)"
         id="g8789">
        <path
           inkscape:connector-curvature="0"
           id="path8791"
           style="fill:#a6ce38;fill-opacity:1;fill-rule:nonzero;stroke:none"
           d="M 0,0 C 0,-5.549 -4.476,-10.025 -10.025,-10.025 V 0 Z m -10.025,15.485 c 3.849,0 7.161,1.969 9.13,5.013 C -0.358,19.155 0,17.812 0,16.291 V 0.806 h -10.025 z m 0,0.806 v 10.024 c 3.67,0 6.982,-1.969 8.682,-5.012 -1.7,-2.954 -5.012,-5.012 -8.682,-5.012 m 0,10.83 c 3.849,0 7.161,-1.969 9.13,-5.013 C -0.358,23.451 0,24.794 0,26.315 V 41.8 H -10.025 Z M 0,42.606 c 0,5.549 -4.476,10.025 -10.025,10.025 V 42.606 Z m -29.27,10.025 h 18.439 V 42.606 H -29.27 Z m -0.805,-36.34 v 10.024 c -3.67,0 -6.892,-1.969 -8.682,-5.012 1.79,-2.954 5.012,-5.012 8.682,-5.012 m 19.244,-26.316 h -19.244 c -5.55,0 -10.025,4.476 -10.025,10.025 h 29.269 z m -19.244,25.51 c -3.849,0 -7.16,1.969 -9.13,5.013 -0.537,-1.343 -0.895,-2.686 -0.895,-4.207 V 0.806 h 10.025 z m 0,11.636 c -3.849,0 -7.16,-1.969 -9.13,-5.013 -0.537,1.343 -0.895,2.686 -0.895,4.207 V 41.8 h 10.025 z M -40.1,42.606 c 0,5.549 4.475,10.025 10.025,10.025 V 42.606 Z" />
      </g>
      <g
         id="g8793">
        <g
           id="g8795" />
        <g
           id="g8853">
          <g
             style="opacity:0.5"
             id="g8851"
             clip-path="url(#clipPath8799)">
            <g
               id="g8849">
              <g
                 id="g8847"
                 clip-path="url(#clipPath8803)">
                <g
                   id="g8845">
                  <g
                     id="g8837" />
                  <g
                     id="g8843"
                     mask="url(#mask8817)">
                    <g
                       id="g8841">
                      <path
                         inkscape:connector-curvature="0"
                         id="path8839"
                         style="fill:url(#linearGradient8835);stroke:none"
                         d="m 370.99,423.96 c 10.051,17.091 28.633,28.564 49.893,28.564 21.283,0 39.881,-11.496 49.923,-28.616 8.058,-13.732 -29.238,-20.584 -49.908,-20.575 -20.663,0.011 -57.985,6.895 -49.908,20.627" />
                    </g>
                  </g>
                </g>
              </g>
            </g>
          </g>
        </g>
      </g>
    </g>
  </g>
</svg>
