<?xml version="1.0" encoding="UTF-8" standalone="no"?>
<!-- Created with Inkscape (http://www.inkscape.org/) -->

<svg
   xmlns:dc="http://purl.org/dc/elements/1.1/"
   xmlns:cc="http://creativecommons.org/ns#"
   xmlns:rdf="http://www.w3.org/1999/02/22-rdf-syntax-ns#"
   xmlns:svg="http://www.w3.org/2000/svg"
   xmlns="http://www.w3.org/2000/svg"
   xmlns:sodipodi="http://sodipodi.sourceforge.net/DTD/sodipodi-0.dtd"
   xmlns:inkscape="http://www.inkscape.org/namespaces/inkscape"
   width="70.836014mm"
   height="70.836014mm"
   viewBox="0 0 70.836014 70.836014"
   version="1.1"
   id="svg40355"
   inkscape:version="0.92.4 (5da689c313, 2019-01-14)"
   sodipodi:docname="40.svg">
  <defs
     id="defs40349">
    <linearGradient
       x1="0"
       y1="0"
       x2="1"
       y2="0"
       gradientUnits="userSpaceOnUse"
       gradientTransform="matrix(141.98363,141.98363,141.98363,-141.98363,858.35107,324.10303)"
       spreadMethod="pad"
       id="linearGradient10147">
      <stop
         style="stop-opacity:1;stop-color:#414142"
         offset="0"
         id="stop10137" />
      <stop
         style="stop-opacity:1;stop-color:#636466"
         offset="0.31074429"
         id="stop10139" />
      <stop
         style="stop-opacity:1;stop-color:#636466"
         offset="0.5"
         id="stop10141" />
      <stop
         style="stop-opacity:1;stop-color:#636466"
         offset="0.68925571"
         id="stop10143" />
      <stop
         style="stop-opacity:1;stop-color:#414142"
         offset="1"
         id="stop10145" />
    </linearGradient>
    <linearGradient
       x1="0"
       y1="0"
       x2="1"
       y2="0"
       gradientUnits="userSpaceOnUse"
       gradientTransform="matrix(139.23357,139.23357,139.23357,-139.23357,859.72656,325.47754)"
       spreadMethod="pad"
       id="linearGradient10173">
      <stop
         style="stop-opacity:1;stop-color:#636466"
         offset="0"
         id="stop10163" />
      <stop
         style="stop-opacity:1;stop-color:#414142"
         offset="0.31074429"
         id="stop10165" />
      <stop
         style="stop-opacity:1;stop-color:#414142"
         offset="0.5"
         id="stop10167" />
      <stop
         style="stop-opacity:1;stop-color:#414142"
         offset="0.68925571"
         id="stop10169" />
      <stop
         style="stop-opacity:1;stop-color:#636466"
         offset="1"
         id="stop10171" />
    </linearGradient>
    <linearGradient
       x1="0"
       y1="0"
       x2="1"
       y2="0"
       gradientUnits="userSpaceOnUse"
       gradientTransform="matrix(125.46019,125.46019,125.46019,-125.46017,866.61279,332.36475)"
       spreadMethod="pad"
       id="linearGradient10199">
      <stop
         style="stop-opacity:1;stop-color:#414142"
         offset="0"
         id="stop10189" />
      <stop
         style="stop-opacity:1;stop-color:#636466"
         offset="0.31074429"
         id="stop10191" />
      <stop
         style="stop-opacity:1;stop-color:#636466"
         offset="0.5"
         id="stop10193" />
      <stop
         style="stop-opacity:1;stop-color:#636466"
         offset="0.68925571"
         id="stop10195" />
      <stop
         style="stop-opacity:1;stop-color:#414142"
         offset="1"
         id="stop10197" />
    </linearGradient>
    <clipPath
       clipPathUnits="userSpaceOnUse"
       id="clipPath10209">
      <path
         d="M 0,780 H 1096 V 0 H 0 Z"
         id="path10207"
         inkscape:connector-curvature="0" />
    </clipPath>
    <linearGradient
       x1="0"
       y1="0"
       x2="1"
       y2="0"
       gradientUnits="userSpaceOnUse"
       gradientTransform="matrix(89.53891,89.53891,89.53891,-89.538895,884.57324,350.32422)"
       spreadMethod="pad"
       id="linearGradient10285">
      <stop
         style="stop-opacity:1;stop-color:#636466"
         offset="0"
         id="stop10275" />
      <stop
         style="stop-opacity:1;stop-color:#414142"
         offset="0.31074429"
         id="stop10277" />
      <stop
         style="stop-opacity:1;stop-color:#414142"
         offset="0.5"
         id="stop10279" />
      <stop
         style="stop-opacity:1;stop-color:#414142"
         offset="0.68925571"
         id="stop10281" />
      <stop
         style="stop-opacity:1;stop-color:#636466"
         offset="1"
         id="stop10283" />
    </linearGradient>
    <clipPath
       clipPathUnits="userSpaceOnUse"
       id="clipPath10507">
      <path
         d="M 878.324,452.524 H 980.388 V 403.333 H 878.324 Z"
         id="path10505"
         inkscape:connector-curvature="0" />
    </clipPath>
    <clipPath
       clipPathUnits="userSpaceOnUse"
       id="clipPath10511">
      <path
         d="m 879.45,423.96 c 10.05,17.091 28.632,28.564 49.893,28.564 21.283,0 39.881,-11.496 49.923,-28.616 8.057,-13.732 -29.238,-20.584 -49.908,-20.575 -20.664,0.011 -57.985,6.895 -49.908,20.627"
         id="path10509"
         inkscape:connector-curvature="0" />
    </clipPath>
    <mask
       maskUnits="userSpaceOnUse"
       x="0"
       y="0"
       width="1"
       height="1"
       id="mask10525">
      <g
         id="g10535">
        <g
           id="g10533">
          <g
             id="g10531">
            <g
               id="g10529">
              <path
                 d="M -32768,32767 H 32767 V -32767 H -32768 Z"
                 style="fill:url(#linearGradient10523);stroke:none"
                 id="path10527"
                 inkscape:connector-curvature="0" />
            </g>
          </g>
        </g>
      </g>
    </mask>
    <linearGradient
       x1="0"
       y1="0"
       x2="1"
       y2="0"
       gradientUnits="userSpaceOnUse"
       gradientTransform="matrix(0,-49.19043,-49.19043,0,929.35596,452.52393)"
       spreadMethod="pad"
       id="linearGradient10523">
      <stop
         style="stop-opacity:1;stop-color:#ffffff"
         offset="0"
         id="stop10517" />
      <stop
         style="stop-opacity:0;stop-color:#ffffff"
         offset="0.41503764"
         id="stop10519" />
      <stop
         style="stop-opacity:0;stop-color:#ffffff"
         offset="1"
         id="stop10521" />
    </linearGradient>
    <linearGradient
       x1="0"
       y1="0"
       x2="1"
       y2="0"
       gradientUnits="userSpaceOnUse"
       gradientTransform="matrix(0,-49.19043,-49.19043,0,929.35596,452.52393)"
       spreadMethod="pad"
       id="linearGradient10543">
      <stop
         style="stop-opacity:1;stop-color:#ffffff"
         offset="0"
         id="stop10537" />
      <stop
         style="stop-opacity:1;stop-color:#ffffff"
         offset="0.41503764"
         id="stop10539" />
      <stop
         style="stop-opacity:1;stop-color:#ffffff"
         offset="1"
         id="stop10541" />
    </linearGradient>
  </defs>
  <sodipodi:namedview
     id="base"
     pagecolor="#ffffff"
     bordercolor="#666666"
     borderopacity="1.0"
     inkscape:pageopacity="0.0"
     inkscape:pageshadow="2"
     inkscape:zoom="0.35"
     inkscape:cx="265.2919"
     inkscape:cy="119.57762"
     inkscape:document-units="mm"
     inkscape:current-layer="layer1"
     showgrid="false"
     inkscape:window-width="1920"
     inkscape:window-height="1017"
     inkscape:window-x="-8"
     inkscape:window-y="-8"
     inkscape:window-maximized="1" />
  <metadata
     id="metadata40352">
    <rdf:RDF>
      <cc:Work
         rdf:about="">
        <dc:format>image/svg+xml</dc:format>
        <dc:type
           rdf:resource="http://purl.org/dc/dcmitype/StillImage" />
        <dc:title></dc:title>
      </cc:Work>
    </rdf:RDF>
  </metadata>
  <g
     inkscape:label="Layer 1"
     inkscape:groupmode="layer"
     id="layer1"
     transform="translate(-35.641519,-109.63557)">
    <g
       id="g38057"
       transform="matrix(0.35277777,0,0,-0.35277777,-256.79185,284.43413)">
      <g
         id="g10125">
        <g
           id="g10127">
          <g
             id="g10133">
            <g
               id="g10135">
              <path
                 inkscape:connector-curvature="0"
                 id="path10149"
                 style="fill:url(#linearGradient10147);stroke:none"
                 d="m 828.945,395.095 c 0,-55.448 44.95,-100.398 100.398,-100.398 v 0 c 55.448,0 100.397,44.95 100.397,100.398 v 0 c 0,55.448 -44.949,100.397 -100.397,100.397 v 0 c -55.448,0 -100.398,-44.949 -100.398,-100.397" />
            </g>
          </g>
        </g>
      </g>
      <g
         id="g10151">
        <g
           id="g10153">
          <g
             id="g10159">
            <g
               id="g10161">
              <path
                 inkscape:connector-curvature="0"
                 id="path10175"
                 style="fill:url(#linearGradient10173);stroke:none"
                 d="m 830.89,395.095 c 0,-54.374 44.08,-98.454 98.453,-98.454 v 0 c 54.373,0 98.452,44.08 98.452,98.454 v 0 c 0,54.373 -44.079,98.454 -98.452,98.454 v 0 c -54.373,0 -98.453,-44.081 -98.453,-98.454" />
            </g>
          </g>
        </g>
      </g>
      <g
         id="g10177">
        <g
           id="g10179">
          <g
             id="g10185">
            <g
               id="g10187">
              <path
                 inkscape:connector-curvature="0"
                 id="path10201"
                 style="fill:url(#linearGradient10199);stroke:none"
                 d="m 840.629,395.095 c 0,-48.996 39.718,-88.713 88.714,-88.713 v 0 c 48.996,0 88.713,39.717 88.713,88.713 v 0 c 0,48.995 -39.717,88.714 -88.713,88.714 v 0 c -48.996,0 -88.714,-39.719 -88.714,-88.714" />
            </g>
          </g>
        </g>
      </g>
      <g
         id="g10203">
        <g
           clip-path="url(#clipPath10209)"
           id="g10205">
          <g
             transform="translate(1015.3018,395.0947)"
             id="g10211">
            <path
               inkscape:connector-curvature="0"
               id="path10213"
               style="fill:#ffffff;fill-opacity:1;fill-rule:nonzero;stroke:none"
               d="m 0,0 c 0,-47.476 -38.483,-85.959 -85.959,-85.959 -47.477,0 -85.959,38.483 -85.959,85.959 0,47.476 38.482,85.958 85.959,85.958 C -38.483,85.958 0,47.476 0,0" />
          </g>
          <g
             transform="translate(929.3438,481.0532)"
             id="g10215">
            <path
               inkscape:connector-curvature="0"
               id="path10217"
               style="fill:#ffffff;fill-opacity:1;fill-rule:nonzero;stroke:none"
               d="m 0,0 h -0.001 c -15.66,0 -30.328,-4.208 -42.974,-11.524 l 42.974,-74.434 z" />
          </g>
          <g
             transform="translate(972.3179,469.5288)"
             id="g10219">
            <path
               inkscape:connector-curvature="0"
               id="path10221"
               style="fill:#ffde00;fill-opacity:1;fill-rule:nonzero;stroke:none"
               d="m 0,0 c -12.645,7.316 -27.314,11.524 -42.974,11.524 l -0.001,-85.958 z" />
          </g>
          <g
             transform="translate(1003.7769,352.1196)"
             id="g10223">
            <path
               inkscape:connector-curvature="0"
               id="path10225"
               style="fill:#ffde00;fill-opacity:1;fill-rule:nonzero;stroke:none"
               d="M 0,0 C 7.316,12.646 11.525,27.314 11.525,42.975 H -74.434 Z" />
          </g>
          <g
             transform="translate(1015.3018,395.0947)"
             id="g10227">
            <path
               inkscape:connector-curvature="0"
               id="path10229"
               style="fill:#ffde00;fill-opacity:1;fill-rule:nonzero;stroke:none"
               d="M 0,0 C 0,15.661 -4.209,30.33 -11.525,42.974 L -85.959,0 Z" />
          </g>
          <g
             transform="translate(1003.7769,438.0688)"
             id="g10231">
            <path
               inkscape:connector-curvature="0"
               id="path10233"
               style="fill:#ffde00;fill-opacity:1;fill-rule:nonzero;stroke:none"
               d="M 0,0 C -7.546,13.044 -18.415,23.912 -31.459,31.46 L -74.434,-42.974 Z" />
          </g>
          <g
             transform="translate(886.3691,469.5288)"
             id="g10235">
            <path
               inkscape:connector-curvature="0"
               id="path10237"
               style="fill:#dcddde;fill-opacity:1;fill-rule:nonzero;stroke:none"
               d="M 0,0 C -13.044,-7.546 -23.913,-18.415 -31.46,-31.458 L 42.974,-74.434 Z" />
          </g>
          <g
             transform="translate(929.3428,309.1353)"
             id="g10239">
            <path
               inkscape:connector-curvature="0"
               id="path10241"
               style="fill:#ffde00;fill-opacity:1;fill-rule:nonzero;stroke:none"
               d="M 0,0 C 15.66,0 30.33,4.208 42.974,11.525 L 0,85.959 Z" />
          </g>
          <g
             transform="translate(886.3677,320.6602)"
             id="g10243">
            <path
               inkscape:connector-curvature="0"
               id="path10245"
               style="fill:#ffde00;fill-opacity:1;fill-rule:nonzero;stroke:none"
               d="m 0,0 c 12.645,-7.317 27.315,-11.525 42.975,-11.525 v 85.96 z" />
          </g>
          <g
             transform="translate(1003.7769,352.1196)"
             id="g10247">
            <path
               inkscape:connector-curvature="0"
               id="path10249"
               style="fill:#ffde00;fill-opacity:1;fill-rule:nonzero;stroke:none"
               d="M 0,0 -74.434,42.975 -31.46,-31.459 C -18.415,-23.912 -7.546,-13.044 0,0" />
          </g>
          <g
             transform="translate(854.9082,352.1196)"
             id="g10251">
            <path
               inkscape:connector-curvature="0"
               id="path10253"
               style="fill:#ffde00;fill-opacity:1;fill-rule:nonzero;stroke:none"
               d="M 0,0 C 7.546,-13.044 18.416,-23.912 31.459,-31.459 L 74.435,42.975 Z" />
          </g>
          <g
             transform="translate(843.3833,395.0947)"
             id="g10255">
            <path
               inkscape:connector-curvature="0"
               id="path10257"
               style="fill:#dcddde;fill-opacity:1;fill-rule:nonzero;stroke:none"
               d="M 0,0 V 0 C 0,-15.661 4.208,-30.33 11.525,-42.975 L 85.959,0 Z" />
          </g>
          <g
             transform="translate(854.9087,438.0703)"
             id="g10259">
            <path
               inkscape:connector-curvature="0"
               id="path10261"
               style="fill:#ffffff;fill-opacity:1;fill-rule:nonzero;stroke:none"
               d="M 0,0 C -7.317,-12.644 -11.525,-27.313 -11.525,-42.976 H 74.434 Z" />
          </g>
        </g>
      </g>
      <g
         id="g10263">
        <g
           id="g10265">
          <g
             id="g10271">
            <g
               id="g10273">
              <path
                 inkscape:connector-curvature="0"
                 id="path10287"
                 style="fill:url(#linearGradient10285);stroke:none"
                 d="m 866.029,395.095 c 0,-34.967 28.346,-63.315 63.314,-63.315 v 0 c 34.967,0 63.313,28.348 63.313,63.315 v 0 c 0,34.966 -28.346,63.314 -63.313,63.314 v 0 c -34.968,0 -63.314,-28.348 -63.314,-63.314" />
            </g>
          </g>
        </g>
      </g>
      <g
         transform="translate(990.3755,395.0938)"
         id="g10297">
        <path
           inkscape:connector-curvature="0"
           id="path10299"
           style="fill:#333132;fill-opacity:1;fill-rule:nonzero;stroke:none"
           d="m 0,0 c 0,-33.705 -27.325,-61.03 -61.033,-61.03 -33.706,0 -61.032,27.325 -61.032,61.03 0,33.708 27.326,61.034 61.032,61.034 C -27.325,61.034 0,33.708 0,0" />
      </g>
      <g
         transform="translate(929.4072,479.2852)"
         id="g10301">
        <path
           inkscape:connector-curvature="0"
           id="path10303"
           style="fill:none;stroke:#231f20;stroke-width:1.17999995;stroke-linecap:butt;stroke-linejoin:miter;stroke-miterlimit:10;stroke-dasharray:none;stroke-opacity:1"
           d="M 0,0 V -13.716" />
      </g>
      <g
         transform="translate(887.314,468.0049)"
         id="g10305">
        <path
           inkscape:connector-curvature="0"
           id="path10307"
           style="fill:none;stroke:#231f20;stroke-width:1.17999995;stroke-linecap:butt;stroke-linejoin:miter;stroke-miterlimit:10;stroke-dasharray:none;stroke-opacity:1"
           d="M 0,0 6.857,-11.877" />
      </g>
      <g
         transform="translate(856.499,437.1895)"
         id="g10309">
        <path
           inkscape:connector-curvature="0"
           id="path10311"
           style="fill:none;stroke:#231f20;stroke-width:1.17999995;stroke-linecap:butt;stroke-linejoin:miter;stroke-miterlimit:10;stroke-dasharray:none;stroke-opacity:1"
           d="M 0,0 11.878,-6.857" />
      </g>
      <g
         transform="translate(845.2202,395.0947)"
         id="g10313">
        <path
           inkscape:connector-curvature="0"
           id="path10315"
           style="fill:none;stroke:#231f20;stroke-width:1.17999995;stroke-linecap:butt;stroke-linejoin:miter;stroke-miterlimit:10;stroke-dasharray:none;stroke-opacity:1"
           d="M 0,0 13.716,0.001" />
      </g>
      <g
         transform="translate(999.752,395.0947)"
         id="g10317">
        <path
           inkscape:connector-curvature="0"
           id="path10319"
           style="fill:none;stroke:#231f20;stroke-width:1.17999995;stroke-linecap:butt;stroke-linejoin:miter;stroke-miterlimit:10;stroke-dasharray:none;stroke-opacity:1"
           d="M 0,0 13.716,0.001" />
      </g>
      <g
         transform="translate(856.499,353.0005)"
         id="g10321">
        <path
           inkscape:connector-curvature="0"
           id="path10323"
           style="fill:none;stroke:#231f20;stroke-width:1.17999995;stroke-linecap:butt;stroke-linejoin:miter;stroke-miterlimit:10;stroke-dasharray:none;stroke-opacity:1"
           d="M 0,0 11.878,6.86" />
      </g>
      <g
         transform="translate(887.314,322.1851)"
         id="g10325">
        <path
           inkscape:connector-curvature="0"
           id="path10327"
           style="fill:none;stroke:#231f20;stroke-width:1.17999995;stroke-linecap:butt;stroke-linejoin:miter;stroke-miterlimit:10;stroke-dasharray:none;stroke-opacity:1"
           d="M 0,0 6.857,11.88" />
      </g>
      <g
         transform="translate(929.4092,310.9058)"
         id="g10329">
        <path
           inkscape:connector-curvature="0"
           id="path10331"
           style="fill:none;stroke:#231f20;stroke-width:1.17999995;stroke-linecap:butt;stroke-linejoin:miter;stroke-miterlimit:10;stroke-dasharray:none;stroke-opacity:1"
           d="M 0,0 -0.002,13.717" />
      </g>
      <g
         transform="translate(971.5054,322.1851)"
         id="g10333">
        <path
           inkscape:connector-curvature="0"
           id="path10335"
           style="fill:none;stroke:#231f20;stroke-width:1.17999995;stroke-linecap:butt;stroke-linejoin:miter;stroke-miterlimit:10;stroke-dasharray:none;stroke-opacity:1"
           d="M 0,0 -6.862,11.879" />
      </g>
      <g
         transform="translate(1002.3218,353.0015)"
         id="g10337">
        <path
           inkscape:connector-curvature="0"
           id="path10339"
           style="fill:none;stroke:#231f20;stroke-width:1.17999995;stroke-linecap:butt;stroke-linejoin:miter;stroke-miterlimit:10;stroke-dasharray:none;stroke-opacity:1"
           d="M 0,0 -11.884,6.856" />
      </g>
      <g
         transform="translate(1002.3193,437.1929)"
         id="g10341">
        <path
           inkscape:connector-curvature="0"
           id="path10343"
           style="fill:none;stroke:#231f20;stroke-width:1.17999995;stroke-linecap:butt;stroke-linejoin:miter;stroke-miterlimit:10;stroke-dasharray:none;stroke-opacity:1"
           d="M 0,0 -11.88,-6.863" />
      </g>
      <g
         transform="translate(971.5029,468.0083)"
         id="g10345">
        <path
           inkscape:connector-curvature="0"
           id="path10347"
           style="fill:none;stroke:#231f20;stroke-width:1.17999995;stroke-linecap:butt;stroke-linejoin:miter;stroke-miterlimit:10;stroke-dasharray:none;stroke-opacity:1"
           d="M 0,0 -6.855,-11.884" />
      </g>
      <g
         transform="translate(918.418,478.5645)"
         id="g10349">
        <path
           inkscape:connector-curvature="0"
           id="path10351"
           style="fill:none;stroke:#231f20;stroke-width:0.58999997;stroke-linecap:butt;stroke-linejoin:miter;stroke-miterlimit:10;stroke-dasharray:none;stroke-opacity:1"
           d="M 0,0 1.144,-8.691" />
      </g>
      <g
         transform="translate(907.6162,476.416)"
         id="g10353">
        <path
           inkscape:connector-curvature="0"
           id="path10355"
           style="fill:none;stroke:#231f20;stroke-width:0.58999997;stroke-linecap:butt;stroke-linejoin:miter;stroke-miterlimit:10;stroke-dasharray:none;stroke-opacity:1"
           d="M 0,0 2.269,-8.467" />
      </g>
      <g
         transform="translate(897.1885,472.876)"
         id="g10357">
        <path
           inkscape:connector-curvature="0"
           id="path10359"
           style="fill:none;stroke:#231f20;stroke-width:0.58999997;stroke-linecap:butt;stroke-linejoin:miter;stroke-miterlimit:10;stroke-dasharray:none;stroke-opacity:1"
           d="M 0,0 3.354,-8.097" />
      </g>
      <g
         transform="translate(878.1543,461.8872)"
         id="g10361">
        <path
           inkscape:connector-curvature="0"
           id="path10363"
           style="fill:none;stroke:#231f20;stroke-width:0.58999997;stroke-linecap:butt;stroke-linejoin:miter;stroke-miterlimit:10;stroke-dasharray:none;stroke-opacity:1"
           d="M 0,0 5.337,-6.954" />
      </g>
      <g
         transform="translate(869.8735,454.6274)"
         id="g10365">
        <path
           inkscape:connector-curvature="0"
           id="path10367"
           style="fill:none;stroke:#231f20;stroke-width:0.58999997;stroke-linecap:butt;stroke-linejoin:miter;stroke-miterlimit:10;stroke-dasharray:none;stroke-opacity:1"
           d="M 0,0 6.199,-6.198" />
      </g>
      <g
         transform="translate(862.6128,446.3467)"
         id="g10369">
        <path
           inkscape:connector-curvature="0"
           id="path10371"
           style="fill:none;stroke:#231f20;stroke-width:0.58999997;stroke-linecap:butt;stroke-linejoin:miter;stroke-miterlimit:10;stroke-dasharray:none;stroke-opacity:1"
           d="M 0,0 6.954,-5.335" />
      </g>
      <g
         transform="translate(851.623,427.3154)"
         id="g10373">
        <path
           inkscape:connector-curvature="0"
           id="path10375"
           style="fill:none;stroke:#231f20;stroke-width:0.58999997;stroke-linecap:butt;stroke-linejoin:miter;stroke-miterlimit:10;stroke-dasharray:none;stroke-opacity:1"
           d="M 0,0 8.098,-3.355" />
      </g>
      <g
         transform="translate(848.0835,416.8867)"
         id="g10377">
        <path
           inkscape:connector-curvature="0"
           id="path10379"
           style="fill:none;stroke:#231f20;stroke-width:0.58999997;stroke-linecap:butt;stroke-linejoin:miter;stroke-miterlimit:10;stroke-dasharray:none;stroke-opacity:1"
           d="M 0,0 8.466,-2.269" />
      </g>
      <g
         transform="translate(845.9346,406.0869)"
         id="g10381">
        <path
           inkscape:connector-curvature="0"
           id="path10383"
           style="fill:none;stroke:#231f20;stroke-width:0.58999997;stroke-linecap:butt;stroke-linejoin:miter;stroke-miterlimit:10;stroke-dasharray:none;stroke-opacity:1"
           d="M 0,0 8.69,-1.146" />
      </g>
      <g
         transform="translate(845.9331,384.1084)"
         id="g10385">
        <path
           inkscape:connector-curvature="0"
           id="path10387"
           style="fill:none;stroke:#231f20;stroke-width:0.58999997;stroke-linecap:butt;stroke-linejoin:miter;stroke-miterlimit:10;stroke-dasharray:none;stroke-opacity:1"
           d="M 0,0 8.691,1.143" />
      </g>
      <g
         transform="translate(848.0815,373.3066)"
         id="g10389">
        <path
           inkscape:connector-curvature="0"
           id="path10391"
           style="fill:none;stroke:#231f20;stroke-width:0.58999997;stroke-linecap:butt;stroke-linejoin:miter;stroke-miterlimit:10;stroke-dasharray:none;stroke-opacity:1"
           d="M 0,0 8.466,2.267" />
      </g>
      <g
         transform="translate(851.6206,362.8779)"
         id="g10393">
        <path
           inkscape:connector-curvature="0"
           id="path10395"
           style="fill:none;stroke:#231f20;stroke-width:0.58999997;stroke-linecap:butt;stroke-linejoin:miter;stroke-miterlimit:10;stroke-dasharray:none;stroke-opacity:1"
           d="M 0,0 8.099,3.354" />
      </g>
      <g
         transform="translate(862.6094,343.8433)"
         id="g10397">
        <path
           inkscape:connector-curvature="0"
           id="path10399"
           style="fill:none;stroke:#231f20;stroke-width:0.58999997;stroke-linecap:butt;stroke-linejoin:miter;stroke-miterlimit:10;stroke-dasharray:none;stroke-opacity:1"
           d="M 0,0 6.955,5.337" />
      </g>
      <g
         transform="translate(869.8701,335.5635)"
         id="g10401">
        <path
           inkscape:connector-curvature="0"
           id="path10403"
           style="fill:none;stroke:#231f20;stroke-width:0.58999997;stroke-linecap:butt;stroke-linejoin:miter;stroke-miterlimit:10;stroke-dasharray:none;stroke-opacity:1"
           d="M 0,0 6.199,6.198" />
      </g>
      <g
         transform="translate(878.1489,328.3013)"
         id="g10405">
        <path
           inkscape:connector-curvature="0"
           id="path10407"
           style="fill:none;stroke:#231f20;stroke-width:0.58999997;stroke-linecap:butt;stroke-linejoin:miter;stroke-miterlimit:10;stroke-dasharray:none;stroke-opacity:1"
           d="M 0,0 5.337,6.956" />
      </g>
      <g
         transform="translate(897.1812,317.3115)"
         id="g10409">
        <path
           inkscape:connector-curvature="0"
           id="path10411"
           style="fill:none;stroke:#231f20;stroke-width:0.58999997;stroke-linecap:butt;stroke-linejoin:miter;stroke-miterlimit:10;stroke-dasharray:none;stroke-opacity:1"
           d="M 0,0 3.355,8.099" />
      </g>
      <g
         transform="translate(907.6089,313.7715)"
         id="g10413">
        <path
           inkscape:connector-curvature="0"
           id="path10415"
           style="fill:none;stroke:#231f20;stroke-width:0.58999997;stroke-linecap:butt;stroke-linejoin:miter;stroke-miterlimit:10;stroke-dasharray:none;stroke-opacity:1"
           d="M 0,0 2.271,8.467" />
      </g>
      <g
         transform="translate(918.4102,311.6216)"
         id="g10417">
        <path
           inkscape:connector-curvature="0"
           id="path10419"
           style="fill:none;stroke:#231f20;stroke-width:0.58999997;stroke-linecap:butt;stroke-linejoin:miter;stroke-miterlimit:10;stroke-dasharray:none;stroke-opacity:1"
           d="M 0,0 1.147,8.691" />
      </g>
      <g
         transform="translate(940.3887,311.6206)"
         id="g10421">
        <path
           inkscape:connector-curvature="0"
           id="path10423"
           style="fill:none;stroke:#231f20;stroke-width:0.58999997;stroke-linecap:butt;stroke-linejoin:miter;stroke-miterlimit:10;stroke-dasharray:none;stroke-opacity:1"
           d="M 0,0 -1.142,8.69" />
      </g>
      <g
         transform="translate(951.1904,313.7671)"
         id="g10425">
        <path
           inkscape:connector-curvature="0"
           id="path10427"
           style="fill:none;stroke:#231f20;stroke-width:0.58999997;stroke-linecap:butt;stroke-linejoin:miter;stroke-miterlimit:10;stroke-dasharray:none;stroke-opacity:1"
           d="M 0,0 -2.267,8.469" />
      </g>
      <g
         transform="translate(961.6191,317.3057)"
         id="g10429">
        <path
           inkscape:connector-curvature="0"
           id="path10431"
           style="fill:none;stroke:#231f20;stroke-width:0.58999997;stroke-linecap:butt;stroke-linejoin:miter;stroke-miterlimit:10;stroke-dasharray:none;stroke-opacity:1"
           d="M 0,0 -3.353,8.102" />
      </g>
      <g
         transform="translate(980.6548,328.2944)"
         id="g10433">
        <path
           inkscape:connector-curvature="0"
           id="path10435"
           style="fill:none;stroke:#231f20;stroke-width:0.58999997;stroke-linecap:butt;stroke-linejoin:miter;stroke-miterlimit:10;stroke-dasharray:none;stroke-opacity:1"
           d="M 0,0 -5.336,6.957" />
      </g>
      <g
         transform="translate(988.9346,335.5552)"
         id="g10437">
        <path
           inkscape:connector-curvature="0"
           id="path10439"
           style="fill:none;stroke:#231f20;stroke-width:0.58999997;stroke-linecap:butt;stroke-linejoin:miter;stroke-miterlimit:10;stroke-dasharray:none;stroke-opacity:1"
           d="M 0,0 -6.198,6.201" />
      </g>
      <g
         transform="translate(996.1958,343.834)"
         id="g10441">
        <path
           inkscape:connector-curvature="0"
           id="path10443"
           style="fill:none;stroke:#231f20;stroke-width:0.58999997;stroke-linecap:butt;stroke-linejoin:miter;stroke-miterlimit:10;stroke-dasharray:none;stroke-opacity:1"
           d="M 0,0 -6.955,5.339" />
      </g>
      <g
         transform="translate(1007.1865,362.8687)"
         id="g10445">
        <path
           inkscape:connector-curvature="0"
           id="path10447"
           style="fill:none;stroke:#231f20;stroke-width:0.58999997;stroke-linecap:butt;stroke-linejoin:miter;stroke-miterlimit:10;stroke-dasharray:none;stroke-opacity:1"
           d="M 0,0 -8.098,3.355" />
      </g>
      <g
         transform="translate(1010.728,373.2959)"
         id="g10449">
        <path
           inkscape:connector-curvature="0"
           id="path10451"
           style="fill:none;stroke:#231f20;stroke-width:0.58999997;stroke-linecap:butt;stroke-linejoin:miter;stroke-miterlimit:10;stroke-dasharray:none;stroke-opacity:1"
           d="M 0,0 -8.467,2.273" />
      </g>
      <g
         transform="translate(1012.877,384.0972)"
         id="g10453">
        <path
           inkscape:connector-curvature="0"
           id="path10455"
           style="fill:none;stroke:#231f20;stroke-width:0.58999997;stroke-linecap:butt;stroke-linejoin:miter;stroke-miterlimit:10;stroke-dasharray:none;stroke-opacity:1"
           d="M 0,0 -8.691,1.148" />
      </g>
      <g
         transform="translate(1012.8774,406.0767)"
         id="g10457">
        <path
           inkscape:connector-curvature="0"
           id="path10459"
           style="fill:none;stroke:#231f20;stroke-width:0.58999997;stroke-linecap:butt;stroke-linejoin:miter;stroke-miterlimit:10;stroke-dasharray:none;stroke-opacity:1"
           d="M 0,0 -8.69,-1.141" />
      </g>
      <g
         transform="translate(1010.7295,416.8789)"
         id="g10461">
        <path
           inkscape:connector-curvature="0"
           id="path10463"
           style="fill:none;stroke:#231f20;stroke-width:0.58999997;stroke-linecap:butt;stroke-linejoin:miter;stroke-miterlimit:10;stroke-dasharray:none;stroke-opacity:1"
           d="M 0,0 -8.466,-2.268" />
      </g>
      <g
         transform="translate(1007.1914,427.3071)"
         id="g10465">
        <path
           inkscape:connector-curvature="0"
           id="path10467"
           style="fill:none;stroke:#231f20;stroke-width:0.58999997;stroke-linecap:butt;stroke-linejoin:miter;stroke-miterlimit:10;stroke-dasharray:none;stroke-opacity:1"
           d="M 0,0 -8.101,-3.353" />
      </g>
      <g
         transform="translate(996.2026,446.3433)"
         id="g10469">
        <path
           inkscape:connector-curvature="0"
           id="path10471"
           style="fill:none;stroke:#231f20;stroke-width:0.58999997;stroke-linecap:butt;stroke-linejoin:miter;stroke-miterlimit:10;stroke-dasharray:none;stroke-opacity:1"
           d="M 0,0 -6.955,-5.336" />
      </g>
      <g
         transform="translate(988.9409,454.624)"
         id="g10473">
        <path
           inkscape:connector-curvature="0"
           id="path10475"
           style="fill:none;stroke:#231f20;stroke-width:0.58999997;stroke-linecap:butt;stroke-linejoin:miter;stroke-miterlimit:10;stroke-dasharray:none;stroke-opacity:1"
           d="M 0,0 -6.198,-6.198" />
      </g>
      <g
         transform="translate(980.6616,461.8853)"
         id="g10477">
        <path
           inkscape:connector-curvature="0"
           id="path10479"
           style="fill:none;stroke:#231f20;stroke-width:0.58999997;stroke-linecap:butt;stroke-linejoin:miter;stroke-miterlimit:10;stroke-dasharray:none;stroke-opacity:1"
           d="M 0,0 -5.337,-6.952" />
      </g>
      <g
         transform="translate(961.6289,472.876)"
         id="g10481">
        <path
           inkscape:connector-curvature="0"
           id="path10483"
           style="fill:none;stroke:#231f20;stroke-width:0.58999997;stroke-linecap:butt;stroke-linejoin:miter;stroke-miterlimit:10;stroke-dasharray:none;stroke-opacity:1"
           d="M 0,0 -3.356,-8.097" />
      </g>
      <g
         transform="translate(951.2002,476.417)"
         id="g10485">
        <path
           inkscape:connector-curvature="0"
           id="path10487"
           style="fill:none;stroke:#231f20;stroke-width:0.58999997;stroke-linecap:butt;stroke-linejoin:miter;stroke-miterlimit:10;stroke-dasharray:none;stroke-opacity:1"
           d="M 0,0 -2.271,-8.468" />
      </g>
      <g
         transform="translate(940.3984,478.5659)"
         id="g10489">
        <path
           inkscape:connector-curvature="0"
           id="path10491"
           style="fill:none;stroke:#231f20;stroke-width:0.58999997;stroke-linecap:butt;stroke-linejoin:miter;stroke-miterlimit:10;stroke-dasharray:none;stroke-opacity:1"
           d="M 0,0 -1.146,-8.691" />
      </g>
      <g
         transform="translate(924.8735,374.3794)"
         id="g10493">
        <path
           inkscape:connector-curvature="0"
           id="path10495"
           style="fill:#ffde00;fill-opacity:1;fill-rule:nonzero;stroke:none"
           d="M 0,0 C 0,-5.549 -4.476,-10.025 -10.025,-10.025 V 0 Z m -10.025,15.485 c 3.849,0 7.161,1.969 9.13,5.013 C -0.358,19.155 0,17.812 0,16.291 V 0.806 h -10.025 z m 0,0.806 v 10.024 c 3.67,0 6.982,-1.969 8.682,-5.012 -1.7,-2.954 -5.012,-5.012 -8.682,-5.012 m 0,10.83 c 3.849,0 7.161,-1.969 9.13,-5.013 C -0.358,23.451 0,24.794 0,26.315 V 41.8 H -10.025 Z M 0,42.606 c 0,5.549 -4.476,10.025 -10.025,10.025 V 42.606 Z M -20.855,16.291 h 10.025 v 10.025 h -10.025 z m -8.415,0 h 7.519 v 10.025 h -7.519 z m -0.805,0 v 10.024 c -3.67,0 -6.892,-1.969 -8.682,-5.012 1.79,-2.954 5.012,-5.012 8.682,-5.012 m 0,10.83 c -3.849,0 -7.16,-1.969 -9.13,-5.013 -0.537,1.343 -0.895,2.686 -0.895,4.207 V 41.8 h 10.025 z M -40.1,42.606 c 0,5.549 4.475,10.025 10.025,10.025 V 42.606 Z" />
      </g>
      <g
         transform="translate(973.9194,374.3794)"
         id="g10497">
        <path
           inkscape:connector-curvature="0"
           id="path10499"
           style="fill:#ffde00;fill-opacity:1;fill-rule:nonzero;stroke:none"
           d="M 0,0 C 0,-5.549 -4.476,-10.025 -10.025,-10.025 V 0 Z m -10.025,15.485 c 3.849,0 7.161,1.969 9.13,5.013 C -0.358,19.155 0,17.812 0,16.291 V 0.806 h -10.025 z m 0,0.806 v 10.024 c 3.67,0 6.982,-1.969 8.682,-5.012 -1.7,-2.954 -5.012,-5.012 -8.682,-5.012 m 0,10.83 c 3.849,0 7.161,-1.969 9.13,-5.013 C -0.358,23.451 0,24.794 0,26.315 V 41.8 H -10.025 Z M 0,42.606 c 0,5.549 -4.476,10.025 -10.025,10.025 V 42.606 Z m -29.27,10.025 h 18.439 V 42.606 H -29.27 Z m -0.805,-36.34 v 10.024 c -3.67,0 -6.892,-1.969 -8.682,-5.012 1.79,-2.954 5.012,-5.012 8.682,-5.012 m 19.244,-26.316 h -19.244 c -5.55,0 -10.025,4.476 -10.025,10.025 h 29.269 z m -19.244,25.51 c -3.849,0 -7.16,1.969 -9.13,5.013 -0.537,-1.343 -0.895,-2.686 -0.895,-4.207 V 0.806 h 10.025 z m 0,11.636 c -3.849,0 -7.16,-1.969 -9.13,-5.013 -0.537,1.343 -0.895,2.686 -0.895,4.207 V 41.8 h 10.025 z M -40.1,42.606 c 0,5.549 4.475,10.025 10.025,10.025 V 42.606 Z" />
      </g>
      <g
         id="g10501">
        <g
           id="g10503" />
        <g
           id="g10561">
          <g
             style="opacity:0.5"
             id="g10559"
             clip-path="url(#clipPath10507)">
            <g
               id="g10557">
              <g
                 id="g10555"
                 clip-path="url(#clipPath10511)">
                <g
                   id="g10553">
                  <g
                     id="g10545" />
                  <g
                     id="g10551"
                     mask="url(#mask10525)">
                    <g
                       id="g10549">
                      <path
                         inkscape:connector-curvature="0"
                         id="path10547"
                         style="fill:url(#linearGradient10543);stroke:none"
                         d="m 879.45,423.96 c 10.05,17.091 28.632,28.564 49.893,28.564 21.283,0 39.881,-11.496 49.923,-28.616 8.057,-13.732 -29.238,-20.584 -49.908,-20.575 -20.664,0.011 -57.985,6.895 -49.908,20.627" />
                    </g>
                  </g>
                </g>
              </g>
            </g>
          </g>
        </g>
      </g>
    </g>
  </g>
</svg>
