<?xml version="1.0" encoding="UTF-8" standalone="no"?>
<!-- Created with Inkscape (http://www.inkscape.org/) -->

<svg
   xmlns:dc="http://purl.org/dc/elements/1.1/"
   xmlns:cc="http://creativecommons.org/ns#"
   xmlns:rdf="http://www.w3.org/1999/02/22-rdf-syntax-ns#"
   xmlns:svg="http://www.w3.org/2000/svg"
   xmlns="http://www.w3.org/2000/svg"
   xmlns:sodipodi="http://sodipodi.sourceforge.net/DTD/sodipodi-0.dtd"
   xmlns:inkscape="http://www.inkscape.org/namespaces/inkscape"
   width="70.836365mm"
   height="70.836365mm"
   viewBox="0 0 70.836365 70.836365"
   version="1.1"
   id="svg40993"
   inkscape:version="0.92.4 (5da689c313, 2019-01-14)"
   sodipodi:docname="45.svg">
  <defs
     id="defs40987">
    <linearGradient
       x1="0"
       y1="0"
       x2="1"
       y2="0"
       gradientUnits="userSpaceOnUse"
       gradientTransform="matrix(141.9838,141.9838,141.9838,-141.9838,95.661133,102.3877)"
       spreadMethod="pad"
       id="linearGradient11001">
      <stop
         style="stop-opacity:1;stop-color:#414142"
         offset="0"
         id="stop10991" />
      <stop
         style="stop-opacity:1;stop-color:#636466"
         offset="0.31074429"
         id="stop10993" />
      <stop
         style="stop-opacity:1;stop-color:#636466"
         offset="0.5"
         id="stop10995" />
      <stop
         style="stop-opacity:1;stop-color:#636466"
         offset="0.68925571"
         id="stop10997" />
      <stop
         style="stop-opacity:1;stop-color:#414142"
         offset="1"
         id="stop10999" />
    </linearGradient>
    <linearGradient
       x1="0"
       y1="0"
       x2="1"
       y2="0"
       gradientUnits="userSpaceOnUse"
       gradientTransform="matrix(139.23352,139.23352,139.23352,-139.23352,97.037109,103.76172)"
       spreadMethod="pad"
       id="linearGradient11027">
      <stop
         style="stop-opacity:1;stop-color:#636466"
         offset="0"
         id="stop11017" />
      <stop
         style="stop-opacity:1;stop-color:#414142"
         offset="0.31074429"
         id="stop11019" />
      <stop
         style="stop-opacity:1;stop-color:#414142"
         offset="0.5"
         id="stop11021" />
      <stop
         style="stop-opacity:1;stop-color:#414142"
         offset="0.68925571"
         id="stop11023" />
      <stop
         style="stop-opacity:1;stop-color:#636466"
         offset="1"
         id="stop11025" />
    </linearGradient>
    <linearGradient
       x1="0"
       y1="0"
       x2="1"
       y2="0"
       gradientUnits="userSpaceOnUse"
       gradientTransform="matrix(125.46014,125.46014,125.46014,-125.46013,103.92383,110.64844)"
       spreadMethod="pad"
       id="linearGradient11053">
      <stop
         style="stop-opacity:1;stop-color:#414142"
         offset="0"
         id="stop11043" />
      <stop
         style="stop-opacity:1;stop-color:#636466"
         offset="0.31074429"
         id="stop11045" />
      <stop
         style="stop-opacity:1;stop-color:#636466"
         offset="0.5"
         id="stop11047" />
      <stop
         style="stop-opacity:1;stop-color:#636466"
         offset="0.68925571"
         id="stop11049" />
      <stop
         style="stop-opacity:1;stop-color:#414142"
         offset="1"
         id="stop11051" />
    </linearGradient>
    <clipPath
       clipPathUnits="userSpaceOnUse"
       id="clipPath11063">
      <path
         d="M 0,780 H 1096 V 0 H 0 Z"
         id="path11061"
         inkscape:connector-curvature="0" />
    </clipPath>
    <linearGradient
       x1="0"
       y1="0"
       x2="1"
       y2="0"
       gradientUnits="userSpaceOnUse"
       gradientTransform="matrix(89.539215,89.539215,89.539215,-89.5392,121.8833,128.60986)"
       spreadMethod="pad"
       id="linearGradient11139">
      <stop
         style="stop-opacity:1;stop-color:#636466"
         offset="0"
         id="stop11129" />
      <stop
         style="stop-opacity:1;stop-color:#414142"
         offset="0.31074429"
         id="stop11131" />
      <stop
         style="stop-opacity:1;stop-color:#414142"
         offset="0.5"
         id="stop11133" />
      <stop
         style="stop-opacity:1;stop-color:#414142"
         offset="0.68925571"
         id="stop11135" />
      <stop
         style="stop-opacity:1;stop-color:#636466"
         offset="1"
         id="stop11137" />
    </linearGradient>
    <clipPath
       clipPathUnits="userSpaceOnUse"
       id="clipPath11361">
      <path
         d="M 115.635,230.809 H 217.698 V 181.618 H 115.635 Z"
         id="path11359"
         inkscape:connector-curvature="0" />
    </clipPath>
    <clipPath
       clipPathUnits="userSpaceOnUse"
       id="clipPath11365">
      <path
         d="m 116.761,202.245 c 10.05,17.091 28.632,28.564 49.892,28.564 21.283,0 39.881,-11.496 49.923,-28.616 8.058,-13.732 -29.238,-20.584 -49.908,-20.575 -20.663,0.011 -57.985,6.895 -49.907,20.627"
         id="path11363"
         inkscape:connector-curvature="0" />
    </clipPath>
    <mask
       maskUnits="userSpaceOnUse"
       x="0"
       y="0"
       width="1"
       height="1"
       id="mask11379">
      <g
         id="g11389">
        <g
           id="g11387">
          <g
             id="g11385">
            <g
               id="g11383">
              <path
                 d="M -32768,32767 H 32767 V -32767 H -32768 Z"
                 style="fill:url(#linearGradient11377);stroke:none"
                 id="path11381"
                 inkscape:connector-curvature="0" />
            </g>
          </g>
        </g>
      </g>
    </mask>
    <linearGradient
       x1="0"
       y1="0"
       x2="1"
       y2="0"
       gradientUnits="userSpaceOnUse"
       gradientTransform="matrix(0,-49.190918,-49.190918,0,166.6665,230.80908)"
       spreadMethod="pad"
       id="linearGradient11377">
      <stop
         style="stop-opacity:1;stop-color:#ffffff"
         offset="0"
         id="stop11371" />
      <stop
         style="stop-opacity:0;stop-color:#ffffff"
         offset="0.41503764"
         id="stop11373" />
      <stop
         style="stop-opacity:0;stop-color:#ffffff"
         offset="1"
         id="stop11375" />
    </linearGradient>
    <linearGradient
       x1="0"
       y1="0"
       x2="1"
       y2="0"
       gradientUnits="userSpaceOnUse"
       gradientTransform="matrix(0,-49.190918,-49.190918,0,166.6665,230.80908)"
       spreadMethod="pad"
       id="linearGradient11397">
      <stop
         style="stop-opacity:1;stop-color:#ffffff"
         offset="0"
         id="stop11391" />
      <stop
         style="stop-opacity:1;stop-color:#ffffff"
         offset="0.41503764"
         id="stop11393" />
      <stop
         style="stop-opacity:1;stop-color:#ffffff"
         offset="1"
         id="stop11395" />
    </linearGradient>
  </defs>
  <sodipodi:namedview
     id="base"
     pagecolor="#ffffff"
     bordercolor="#666666"
     borderopacity="1.0"
     inkscape:pageopacity="0.0"
     inkscape:pageshadow="2"
     inkscape:zoom="0.35"
     inkscape:cx="133.864"
     inkscape:cy="133.864"
     inkscape:document-units="mm"
     inkscape:current-layer="layer1"
     showgrid="false"
     inkscape:window-width="1920"
     inkscape:window-height="1017"
     inkscape:window-x="-8"
     inkscape:window-y="-8"
     inkscape:window-maximized="1" />
  <metadata
     id="metadata40990">
    <rdf:RDF>
      <cc:Work
         rdf:about="">
        <dc:format>image/svg+xml</dc:format>
        <dc:type
           rdf:resource="http://purl.org/dc/dcmitype/StillImage" />
        <dc:title></dc:title>
      </cc:Work>
    </rdf:RDF>
  </metadata>
  <g
     inkscape:label="Layer 1"
     inkscape:groupmode="layer"
     id="layer1"
     transform="translate(-70.415151,-113.41515)">
    <g
       id="g38220"
       transform="matrix(0.35277777,0,0,-0.35277777,47.04186,209.99759)">
      <g
         id="g10979">
        <g
           id="g10981">
          <g
             id="g10987">
            <g
               id="g10989">
              <path
                 inkscape:connector-curvature="0"
                 id="path11003"
                 style="fill:url(#linearGradient11001);stroke:none"
                 d="m 66.255,173.38 c 0,-55.448 44.95,-100.399 100.398,-100.399 v 0 c 55.448,0 100.398,44.951 100.398,100.399 v 0 c 0,55.448 -44.95,100.397 -100.398,100.397 v 0 c -55.448,0 -100.398,-44.949 -100.398,-100.397" />
            </g>
          </g>
        </g>
      </g>
      <g
         id="g11005">
        <g
           id="g11007">
          <g
             id="g11013">
            <g
               id="g11015">
              <path
                 inkscape:connector-curvature="0"
                 id="path11029"
                 style="fill:url(#linearGradient11027);stroke:none"
                 d="m 68.2,173.38 c 0,-54.374 44.08,-98.454 98.453,-98.454 v 0 c 54.374,0 98.454,44.08 98.454,98.454 v 0 c 0,54.373 -44.08,98.454 -98.454,98.454 v 0 C 112.28,271.834 68.2,227.753 68.2,173.38" />
            </g>
          </g>
        </g>
      </g>
      <g
         id="g11031">
        <g
           id="g11033">
          <g
             id="g11039">
            <g
               id="g11041">
              <path
                 inkscape:connector-curvature="0"
                 id="path11055"
                 style="fill:url(#linearGradient11053);stroke:none"
                 d="m 77.939,173.38 c 0,-48.995 39.718,-88.713 88.714,-88.713 v 0 c 48.996,0 88.714,39.718 88.714,88.713 v 0 c 0,48.995 -39.718,88.714 -88.714,88.714 v 0 c -48.996,0 -88.714,-39.719 -88.714,-88.714" />
            </g>
          </g>
        </g>
      </g>
      <g
         id="g11057">
        <g
           clip-path="url(#clipPath11063)"
           id="g11059">
          <g
             transform="translate(252.6123,173.3799)"
             id="g11065">
            <path
               inkscape:connector-curvature="0"
               id="path11067"
               style="fill:#ffffff;fill-opacity:1;fill-rule:nonzero;stroke:none"
               d="m 0,0 c 0,-47.477 -38.483,-85.959 -85.959,-85.959 -47.477,0 -85.959,38.482 -85.959,85.959 0,47.476 38.482,85.958 85.959,85.958 C -38.483,85.958 0,47.476 0,0" />
          </g>
          <g
             transform="translate(166.6543,259.3384)"
             id="g11069">
            <path
               inkscape:connector-curvature="0"
               id="path11071"
               style="fill:#ffffff;fill-opacity:1;fill-rule:nonzero;stroke:none"
               d="M 0,0 H -0.001 C -15.661,0 -30.33,-4.208 -42.975,-11.525 L -0.001,-85.958 Z" />
          </g>
          <g
             transform="translate(209.6284,247.8135)"
             id="g11073">
            <path
               inkscape:connector-curvature="0"
               id="path11075"
               style="fill:#f7931d;fill-opacity:1;fill-rule:nonzero;stroke:none"
               d="m 0,0 c -12.645,7.316 -27.314,11.525 -42.974,11.525 l -0.001,-85.959 z" />
          </g>
          <g
             transform="translate(241.0874,130.4048)"
             id="g11077">
            <path
               inkscape:connector-curvature="0"
               id="path11079"
               style="fill:#f7931d;fill-opacity:1;fill-rule:nonzero;stroke:none"
               d="M 0,0 C 7.316,12.645 11.525,27.314 11.525,42.975 H -74.434 Z" />
          </g>
          <g
             transform="translate(252.6123,173.3799)"
             id="g11081">
            <path
               inkscape:connector-curvature="0"
               id="path11083"
               style="fill:#f7931d;fill-opacity:1;fill-rule:nonzero;stroke:none"
               d="M 0,0 C 0,15.661 -4.209,30.33 -11.525,42.974 L -85.959,0 Z" />
          </g>
          <g
             transform="translate(241.0874,216.354)"
             id="g11085">
            <path
               inkscape:connector-curvature="0"
               id="path11087"
               style="fill:#f7931d;fill-opacity:1;fill-rule:nonzero;stroke:none"
               d="M 0,0 C -7.547,13.044 -18.415,23.912 -31.459,31.459 L -74.434,-42.974 Z" />
          </g>
          <g
             transform="translate(123.6797,247.8135)"
             id="g11089">
            <path
               inkscape:connector-curvature="0"
               id="path11091"
               style="fill:#dcddde;fill-opacity:1;fill-rule:nonzero;stroke:none"
               d="M 0,0 C -13.044,-7.545 -23.913,-18.414 -31.461,-31.458 L 42.974,-74.434 Z" />
          </g>
          <g
             transform="translate(166.6533,87.4204)"
             id="g11093">
            <path
               inkscape:connector-curvature="0"
               id="path11095"
               style="fill:#f7931d;fill-opacity:1;fill-rule:nonzero;stroke:none"
               d="M 0,0 C 15.66,0 30.33,4.208 42.974,11.525 L 0,85.959 Z" />
          </g>
          <g
             transform="translate(123.6782,98.9453)"
             id="g11097">
            <path
               inkscape:connector-curvature="0"
               id="path11099"
               style="fill:#f7931d;fill-opacity:1;fill-rule:nonzero;stroke:none"
               d="m 0,0 c 12.645,-7.317 27.315,-11.525 42.975,-11.525 v 85.96 z" />
          </g>
          <g
             transform="translate(241.0874,130.4048)"
             id="g11101">
            <path
               inkscape:connector-curvature="0"
               id="path11103"
               style="fill:#f7931d;fill-opacity:1;fill-rule:nonzero;stroke:none"
               d="M 0,0 -74.434,42.975 -31.46,-31.459 C -18.415,-23.912 -7.547,-13.044 0,0" />
          </g>
          <g
             transform="translate(92.2183,130.4048)"
             id="g11105">
            <path
               inkscape:connector-curvature="0"
               id="path11107"
               style="fill:#f7931d;fill-opacity:1;fill-rule:nonzero;stroke:none"
               d="M 0,0 C 7.547,-13.044 18.416,-23.912 31.46,-31.459 L 74.435,42.975 Z" />
          </g>
          <g
             transform="translate(80.6938,173.3799)"
             id="g11109">
            <path
               inkscape:connector-curvature="0"
               id="path11111"
               style="fill:#f7931d;fill-opacity:1;fill-rule:nonzero;stroke:none"
               d="M 0,0 V 0 C 0,-15.661 4.208,-30.33 11.524,-42.975 L 85.959,0 Z" />
          </g>
          <g
             transform="translate(92.2188,216.3555)"
             id="g11113">
            <path
               inkscape:connector-curvature="0"
               id="path11115"
               style="fill:#ffffff;fill-opacity:1;fill-rule:nonzero;stroke:none"
               d="m 0,0 c -7.316,-12.645 -11.525,-27.313 -11.525,-42.976 h 85.96 z" />
          </g>
        </g>
      </g>
      <g
         id="g11117">
        <g
           id="g11119">
          <g
             id="g11125">
            <g
               id="g11127">
              <path
                 inkscape:connector-curvature="0"
                 id="path11141"
                 style="fill:url(#linearGradient11139);stroke:none"
                 d="m 103.339,173.38 c 0,-34.967 28.346,-63.314 63.314,-63.314 v 0 c 34.966,0 63.314,28.347 63.314,63.314 v 0 c 0,34.966 -28.348,63.314 -63.314,63.314 v 0 c -34.968,0 -63.314,-28.348 -63.314,-63.314" />
            </g>
          </g>
        </g>
      </g>
      <g
         transform="translate(227.686,173.3789)"
         id="g11151">
        <path
           inkscape:connector-curvature="0"
           id="path11153"
           style="fill:#333132;fill-opacity:1;fill-rule:nonzero;stroke:none"
           d="m 0,0 c 0,-33.705 -27.325,-61.03 -61.033,-61.03 -33.706,0 -61.033,27.325 -61.033,61.03 0,33.708 27.327,61.033 61.033,61.033 C -27.325,61.033 0,33.708 0,0" />
      </g>
      <g
         transform="translate(166.7178,257.5703)"
         id="g11155">
        <path
           inkscape:connector-curvature="0"
           id="path11157"
           style="fill:none;stroke:#231f20;stroke-width:1.17999995;stroke-linecap:butt;stroke-linejoin:miter;stroke-miterlimit:10;stroke-dasharray:none;stroke-opacity:1"
           d="M 0,0 V -13.716" />
      </g>
      <g
         transform="translate(124.6245,246.29)"
         id="g11159">
        <path
           inkscape:connector-curvature="0"
           id="path11161"
           style="fill:none;stroke:#231f20;stroke-width:1.17999995;stroke-linecap:butt;stroke-linejoin:miter;stroke-miterlimit:10;stroke-dasharray:none;stroke-opacity:1"
           d="M 0,0 6.857,-11.878" />
      </g>
      <g
         transform="translate(93.8096,215.4746)"
         id="g11163">
        <path
           inkscape:connector-curvature="0"
           id="path11165"
           style="fill:none;stroke:#231f20;stroke-width:1.17999995;stroke-linecap:butt;stroke-linejoin:miter;stroke-miterlimit:10;stroke-dasharray:none;stroke-opacity:1"
           d="M 0,0 11.878,-6.857" />
      </g>
      <g
         transform="translate(82.5303,173.3799)"
         id="g11167">
        <path
           inkscape:connector-curvature="0"
           id="path11169"
           style="fill:none;stroke:#231f20;stroke-width:1.17999995;stroke-linecap:butt;stroke-linejoin:miter;stroke-miterlimit:10;stroke-dasharray:none;stroke-opacity:1"
           d="M 0,0 13.716,0.001" />
      </g>
      <g
         transform="translate(237.062,173.3799)"
         id="g11171">
        <path
           inkscape:connector-curvature="0"
           id="path11173"
           style="fill:none;stroke:#231f20;stroke-width:1.17999995;stroke-linecap:butt;stroke-linejoin:miter;stroke-miterlimit:10;stroke-dasharray:none;stroke-opacity:1"
           d="M 0,0 13.717,0.001" />
      </g>
      <g
         transform="translate(93.8096,131.2856)"
         id="g11175">
        <path
           inkscape:connector-curvature="0"
           id="path11177"
           style="fill:none;stroke:#231f20;stroke-width:1.17999995;stroke-linecap:butt;stroke-linejoin:miter;stroke-miterlimit:10;stroke-dasharray:none;stroke-opacity:1"
           d="M 0,0 11.878,6.86" />
      </g>
      <g
         transform="translate(124.6245,100.4702)"
         id="g11179">
        <path
           inkscape:connector-curvature="0"
           id="path11181"
           style="fill:none;stroke:#231f20;stroke-width:1.17999995;stroke-linecap:butt;stroke-linejoin:miter;stroke-miterlimit:10;stroke-dasharray:none;stroke-opacity:1"
           d="M 0,0 6.857,11.88" />
      </g>
      <g
         transform="translate(166.7197,89.1909)"
         id="g11183">
        <path
           inkscape:connector-curvature="0"
           id="path11185"
           style="fill:none;stroke:#231f20;stroke-width:1.17999995;stroke-linecap:butt;stroke-linejoin:miter;stroke-miterlimit:10;stroke-dasharray:none;stroke-opacity:1"
           d="M 0,0 -0.002,13.717" />
      </g>
      <g
         transform="translate(208.8159,100.4702)"
         id="g11187">
        <path
           inkscape:connector-curvature="0"
           id="path11189"
           style="fill:none;stroke:#231f20;stroke-width:1.17999995;stroke-linecap:butt;stroke-linejoin:miter;stroke-miterlimit:10;stroke-dasharray:none;stroke-opacity:1"
           d="M 0,0 -6.862,11.878" />
      </g>
      <g
         transform="translate(239.6323,131.2866)"
         id="g11191">
        <path
           inkscape:connector-curvature="0"
           id="path11193"
           style="fill:none;stroke:#231f20;stroke-width:1.17999995;stroke-linecap:butt;stroke-linejoin:miter;stroke-miterlimit:10;stroke-dasharray:none;stroke-opacity:1"
           d="M 0,0 -11.885,6.856" />
      </g>
      <g
         transform="translate(239.6299,215.478)"
         id="g11195">
        <path
           inkscape:connector-curvature="0"
           id="path11197"
           style="fill:none;stroke:#231f20;stroke-width:1.17999995;stroke-linecap:butt;stroke-linejoin:miter;stroke-miterlimit:10;stroke-dasharray:none;stroke-opacity:1"
           d="M 0,0 -11.88,-6.863" />
      </g>
      <g
         transform="translate(208.8135,246.2935)"
         id="g11199">
        <path
           inkscape:connector-curvature="0"
           id="path11201"
           style="fill:none;stroke:#231f20;stroke-width:1.17999995;stroke-linecap:butt;stroke-linejoin:miter;stroke-miterlimit:10;stroke-dasharray:none;stroke-opacity:1"
           d="M 0,0 -6.856,-11.885" />
      </g>
      <g
         transform="translate(155.7285,256.8496)"
         id="g11203">
        <path
           inkscape:connector-curvature="0"
           id="path11205"
           style="fill:none;stroke:#231f20;stroke-width:0.58999997;stroke-linecap:butt;stroke-linejoin:miter;stroke-miterlimit:10;stroke-dasharray:none;stroke-opacity:1"
           d="M 0,0 1.144,-8.691" />
      </g>
      <g
         transform="translate(144.9263,254.7012)"
         id="g11207">
        <path
           inkscape:connector-curvature="0"
           id="path11209"
           style="fill:none;stroke:#231f20;stroke-width:0.58999997;stroke-linecap:butt;stroke-linejoin:miter;stroke-miterlimit:10;stroke-dasharray:none;stroke-opacity:1"
           d="M 0,0 2.269,-8.467" />
      </g>
      <g
         transform="translate(134.499,251.1611)"
         id="g11211">
        <path
           inkscape:connector-curvature="0"
           id="path11213"
           style="fill:none;stroke:#231f20;stroke-width:0.58999997;stroke-linecap:butt;stroke-linejoin:miter;stroke-miterlimit:10;stroke-dasharray:none;stroke-opacity:1"
           d="M 0,0 3.354,-8.097" />
      </g>
      <g
         transform="translate(115.4648,240.1724)"
         id="g11215">
        <path
           inkscape:connector-curvature="0"
           id="path11217"
           style="fill:none;stroke:#231f20;stroke-width:0.58999997;stroke-linecap:butt;stroke-linejoin:miter;stroke-miterlimit:10;stroke-dasharray:none;stroke-opacity:1"
           d="M 0,0 5.337,-6.954" />
      </g>
      <g
         transform="translate(107.1841,232.9126)"
         id="g11219">
        <path
           inkscape:connector-curvature="0"
           id="path11221"
           style="fill:none;stroke:#231f20;stroke-width:0.58999997;stroke-linecap:butt;stroke-linejoin:miter;stroke-miterlimit:10;stroke-dasharray:none;stroke-opacity:1"
           d="M 0,0 6.199,-6.198" />
      </g>
      <g
         transform="translate(99.9229,224.6318)"
         id="g11223">
        <path
           inkscape:connector-curvature="0"
           id="path11225"
           style="fill:none;stroke:#231f20;stroke-width:0.58999997;stroke-linecap:butt;stroke-linejoin:miter;stroke-miterlimit:10;stroke-dasharray:none;stroke-opacity:1"
           d="M 0,0 6.955,-5.335" />
      </g>
      <g
         transform="translate(88.9336,205.6006)"
         id="g11227">
        <path
           inkscape:connector-curvature="0"
           id="path11229"
           style="fill:none;stroke:#231f20;stroke-width:0.58999997;stroke-linecap:butt;stroke-linejoin:miter;stroke-miterlimit:10;stroke-dasharray:none;stroke-opacity:1"
           d="M 0,0 8.097,-3.355" />
      </g>
      <g
         transform="translate(85.3936,195.1719)"
         id="g11231">
        <path
           inkscape:connector-curvature="0"
           id="path11233"
           style="fill:none;stroke:#231f20;stroke-width:0.58999997;stroke-linecap:butt;stroke-linejoin:miter;stroke-miterlimit:10;stroke-dasharray:none;stroke-opacity:1"
           d="M 0,0 8.466,-2.269" />
      </g>
      <g
         transform="translate(83.2451,184.3721)"
         id="g11235">
        <path
           inkscape:connector-curvature="0"
           id="path11237"
           style="fill:none;stroke:#231f20;stroke-width:0.58999997;stroke-linecap:butt;stroke-linejoin:miter;stroke-miterlimit:10;stroke-dasharray:none;stroke-opacity:1"
           d="M 0,0 8.689,-1.146" />
      </g>
      <g
         transform="translate(83.2432,162.3936)"
         id="g11239">
        <path
           inkscape:connector-curvature="0"
           id="path11241"
           style="fill:none;stroke:#231f20;stroke-width:0.58999997;stroke-linecap:butt;stroke-linejoin:miter;stroke-miterlimit:10;stroke-dasharray:none;stroke-opacity:1"
           d="M 0,0 8.691,1.143" />
      </g>
      <g
         transform="translate(85.3921,151.5918)"
         id="g11243">
        <path
           inkscape:connector-curvature="0"
           id="path11245"
           style="fill:none;stroke:#231f20;stroke-width:0.58999997;stroke-linecap:butt;stroke-linejoin:miter;stroke-miterlimit:10;stroke-dasharray:none;stroke-opacity:1"
           d="M 0,0 8.466,2.267" />
      </g>
      <g
         transform="translate(88.9307,141.1631)"
         id="g11247">
        <path
           inkscape:connector-curvature="0"
           id="path11249"
           style="fill:none;stroke:#231f20;stroke-width:0.58999997;stroke-linecap:butt;stroke-linejoin:miter;stroke-miterlimit:10;stroke-dasharray:none;stroke-opacity:1"
           d="M 0,0 8.099,3.354" />
      </g>
      <g
         transform="translate(99.9194,122.1284)"
         id="g11251">
        <path
           inkscape:connector-curvature="0"
           id="path11253"
           style="fill:none;stroke:#231f20;stroke-width:0.58999997;stroke-linecap:butt;stroke-linejoin:miter;stroke-miterlimit:10;stroke-dasharray:none;stroke-opacity:1"
           d="M 0,0 6.955,5.337" />
      </g>
      <g
         transform="translate(107.1807,113.8486)"
         id="g11255">
        <path
           inkscape:connector-curvature="0"
           id="path11257"
           style="fill:none;stroke:#231f20;stroke-width:0.58999997;stroke-linecap:butt;stroke-linejoin:miter;stroke-miterlimit:10;stroke-dasharray:none;stroke-opacity:1"
           d="M 0,0 6.199,6.198" />
      </g>
      <g
         transform="translate(115.459,106.5864)"
         id="g11259">
        <path
           inkscape:connector-curvature="0"
           id="path11261"
           style="fill:none;stroke:#231f20;stroke-width:0.58999997;stroke-linecap:butt;stroke-linejoin:miter;stroke-miterlimit:10;stroke-dasharray:none;stroke-opacity:1"
           d="M 0,0 5.338,6.956" />
      </g>
      <g
         transform="translate(134.4917,95.5967)"
         id="g11263">
        <path
           inkscape:connector-curvature="0"
           id="path11265"
           style="fill:none;stroke:#231f20;stroke-width:0.58999997;stroke-linecap:butt;stroke-linejoin:miter;stroke-miterlimit:10;stroke-dasharray:none;stroke-opacity:1"
           d="M 0,0 3.355,8.099" />
      </g>
      <g
         transform="translate(144.9194,92.0566)"
         id="g11267">
        <path
           inkscape:connector-curvature="0"
           id="path11269"
           style="fill:none;stroke:#231f20;stroke-width:0.58999997;stroke-linecap:butt;stroke-linejoin:miter;stroke-miterlimit:10;stroke-dasharray:none;stroke-opacity:1"
           d="M 0,0 2.271,8.467" />
      </g>
      <g
         transform="translate(155.7202,89.9067)"
         id="g11271">
        <path
           inkscape:connector-curvature="0"
           id="path11273"
           style="fill:none;stroke:#231f20;stroke-width:0.58999997;stroke-linecap:butt;stroke-linejoin:miter;stroke-miterlimit:10;stroke-dasharray:none;stroke-opacity:1"
           d="M 0,0 1.147,8.691" />
      </g>
      <g
         transform="translate(177.6992,89.9058)"
         id="g11275">
        <path
           inkscape:connector-curvature="0"
           id="path11277"
           style="fill:none;stroke:#231f20;stroke-width:0.58999997;stroke-linecap:butt;stroke-linejoin:miter;stroke-miterlimit:10;stroke-dasharray:none;stroke-opacity:1"
           d="M 0,0 -1.142,8.69" />
      </g>
      <g
         transform="translate(188.501,92.0522)"
         id="g11279">
        <path
           inkscape:connector-curvature="0"
           id="path11281"
           style="fill:none;stroke:#231f20;stroke-width:0.58999997;stroke-linecap:butt;stroke-linejoin:miter;stroke-miterlimit:10;stroke-dasharray:none;stroke-opacity:1"
           d="M 0,0 -2.268,8.469" />
      </g>
      <g
         transform="translate(198.9297,95.5908)"
         id="g11283">
        <path
           inkscape:connector-curvature="0"
           id="path11285"
           style="fill:none;stroke:#231f20;stroke-width:0.58999997;stroke-linecap:butt;stroke-linejoin:miter;stroke-miterlimit:10;stroke-dasharray:none;stroke-opacity:1"
           d="M 0,0 -3.354,8.101" />
      </g>
      <g
         transform="translate(217.9653,106.5796)"
         id="g11287">
        <path
           inkscape:connector-curvature="0"
           id="path11289"
           style="fill:none;stroke:#231f20;stroke-width:0.58999997;stroke-linecap:butt;stroke-linejoin:miter;stroke-miterlimit:10;stroke-dasharray:none;stroke-opacity:1"
           d="M 0,0 -5.336,6.957" />
      </g>
      <g
         transform="translate(226.2451,113.8403)"
         id="g11291">
        <path
           inkscape:connector-curvature="0"
           id="path11293"
           style="fill:none;stroke:#231f20;stroke-width:0.58999997;stroke-linecap:butt;stroke-linejoin:miter;stroke-miterlimit:10;stroke-dasharray:none;stroke-opacity:1"
           d="M 0,0 -6.199,6.201" />
      </g>
      <g
         transform="translate(233.5059,122.1191)"
         id="g11295">
        <path
           inkscape:connector-curvature="0"
           id="path11297"
           style="fill:none;stroke:#231f20;stroke-width:0.58999997;stroke-linecap:butt;stroke-linejoin:miter;stroke-miterlimit:10;stroke-dasharray:none;stroke-opacity:1"
           d="M 0,0 -6.954,5.339" />
      </g>
      <g
         transform="translate(244.4971,141.1538)"
         id="g11299">
        <path
           inkscape:connector-curvature="0"
           id="path11301"
           style="fill:none;stroke:#231f20;stroke-width:0.58999997;stroke-linecap:butt;stroke-linejoin:miter;stroke-miterlimit:10;stroke-dasharray:none;stroke-opacity:1"
           d="M 0,0 -8.098,3.355" />
      </g>
      <g
         transform="translate(248.0381,151.5811)"
         id="g11303">
        <path
           inkscape:connector-curvature="0"
           id="path11305"
           style="fill:none;stroke:#231f20;stroke-width:0.58999997;stroke-linecap:butt;stroke-linejoin:miter;stroke-miterlimit:10;stroke-dasharray:none;stroke-opacity:1"
           d="M 0,0 -8.466,2.273" />
      </g>
      <g
         transform="translate(250.1875,162.3818)"
         id="g11307">
        <path
           inkscape:connector-curvature="0"
           id="path11309"
           style="fill:none;stroke:#231f20;stroke-width:0.58999997;stroke-linecap:butt;stroke-linejoin:miter;stroke-miterlimit:10;stroke-dasharray:none;stroke-opacity:1"
           d="M 0,0 -8.691,1.148" />
      </g>
      <g
         transform="translate(250.188,184.3618)"
         id="g11311">
        <path
           inkscape:connector-curvature="0"
           id="path11313"
           style="fill:none;stroke:#231f20;stroke-width:0.58999997;stroke-linecap:butt;stroke-linejoin:miter;stroke-miterlimit:10;stroke-dasharray:none;stroke-opacity:1"
           d="M 0,0 -8.691,-1.141" />
      </g>
      <g
         transform="translate(248.04,195.1641)"
         id="g11315">
        <path
           inkscape:connector-curvature="0"
           id="path11317"
           style="fill:none;stroke:#231f20;stroke-width:0.58999997;stroke-linecap:butt;stroke-linejoin:miter;stroke-miterlimit:10;stroke-dasharray:none;stroke-opacity:1"
           d="M 0,0 -8.467,-2.268" />
      </g>
      <g
         transform="translate(244.502,205.5923)"
         id="g11319">
        <path
           inkscape:connector-curvature="0"
           id="path11321"
           style="fill:none;stroke:#231f20;stroke-width:0.58999997;stroke-linecap:butt;stroke-linejoin:miter;stroke-miterlimit:10;stroke-dasharray:none;stroke-opacity:1"
           d="M 0,0 -8.101,-3.353" />
      </g>
      <g
         transform="translate(233.5132,224.6279)"
         id="g11323">
        <path
           inkscape:connector-curvature="0"
           id="path11325"
           style="fill:none;stroke:#231f20;stroke-width:0.58999997;stroke-linecap:butt;stroke-linejoin:miter;stroke-miterlimit:10;stroke-dasharray:none;stroke-opacity:1"
           d="M 0,0 -6.955,-5.335" />
      </g>
      <g
         transform="translate(226.2515,232.9092)"
         id="g11327">
        <path
           inkscape:connector-curvature="0"
           id="path11329"
           style="fill:none;stroke:#231f20;stroke-width:0.58999997;stroke-linecap:butt;stroke-linejoin:miter;stroke-miterlimit:10;stroke-dasharray:none;stroke-opacity:1"
           d="M 0,0 -6.199,-6.198" />
      </g>
      <g
         transform="translate(217.9722,240.1699)"
         id="g11331">
        <path
           inkscape:connector-curvature="0"
           id="path11333"
           style="fill:none;stroke:#231f20;stroke-width:0.58999997;stroke-linecap:butt;stroke-linejoin:miter;stroke-miterlimit:10;stroke-dasharray:none;stroke-opacity:1"
           d="M 0,0 -5.337,-6.952" />
      </g>
      <g
         transform="translate(198.9395,251.1611)"
         id="g11335">
        <path
           inkscape:connector-curvature="0"
           id="path11337"
           style="fill:none;stroke:#231f20;stroke-width:0.58999997;stroke-linecap:butt;stroke-linejoin:miter;stroke-miterlimit:10;stroke-dasharray:none;stroke-opacity:1"
           d="M 0,0 -3.356,-8.097" />
      </g>
      <g
         transform="translate(188.5107,254.7021)"
         id="g11339">
        <path
           inkscape:connector-curvature="0"
           id="path11341"
           style="fill:none;stroke:#231f20;stroke-width:0.58999997;stroke-linecap:butt;stroke-linejoin:miter;stroke-miterlimit:10;stroke-dasharray:none;stroke-opacity:1"
           d="M 0,0 -2.271,-8.468" />
      </g>
      <g
         transform="translate(177.709,256.8511)"
         id="g11343">
        <path
           inkscape:connector-curvature="0"
           id="path11345"
           style="fill:none;stroke:#231f20;stroke-width:0.58999997;stroke-linecap:butt;stroke-linejoin:miter;stroke-miterlimit:10;stroke-dasharray:none;stroke-opacity:1"
           d="M 0,0 -1.146,-8.691" />
      </g>
      <g
         transform="translate(162.1836,152.6646)"
         id="g11347">
        <path
           inkscape:connector-curvature="0"
           id="path11349"
           style="fill:#f7931d;fill-opacity:1;fill-rule:nonzero;stroke:none"
           d="M 0,0 C 0,-5.549 -4.476,-10.025 -10.025,-10.025 V 0 Z m -10.025,15.485 c 3.849,0 7.161,1.969 9.129,5.013 C -0.358,19.155 0,17.812 0,16.291 V 0.806 h -10.025 z m 0,0.806 v 10.024 c 3.67,0 6.982,-1.969 8.682,-5.012 -1.7,-2.954 -5.012,-5.012 -8.682,-5.012 m 0,10.83 c 3.849,0 7.161,-1.969 9.129,-5.013 C -0.358,23.451 0,24.794 0,26.315 V 41.8 H -10.025 Z M 0,42.606 c 0,5.549 -4.476,10.025 -10.025,10.025 V 42.606 Z M -20.855,16.291 h 10.025 v 10.025 h -10.025 z m -8.415,0 h 7.519 v 10.025 h -7.519 z m -0.805,0 v 10.024 c -3.67,0 -6.892,-1.969 -8.682,-5.012 1.79,-2.954 5.012,-5.012 8.682,-5.012 m 0,10.83 c -3.849,0 -7.16,-1.969 -9.13,-5.013 -0.537,1.343 -0.895,2.686 -0.895,4.207 V 41.8 h 10.025 z M -40.1,42.606 c 0,5.549 4.475,10.025 10.025,10.025 V 42.606 Z" />
      </g>
      <g
         transform="translate(211.2295,152.6646)"
         id="g11351">
        <path
           inkscape:connector-curvature="0"
           id="path11353"
           style="fill:#f7931d;fill-opacity:1;fill-rule:nonzero;stroke:none"
           d="M 0,0 C 0,-5.549 -4.476,-10.025 -10.025,-10.025 V 0 Z m -10.025,15.485 c 3.849,0 7.161,1.969 9.129,5.013 C -0.358,19.155 0,17.812 0,16.291 V 0.806 h -10.025 z m 0,0.806 v 10.024 c 3.67,0 6.982,-1.969 8.682,-5.012 -1.7,-2.954 -5.012,-5.012 -8.682,-5.012 M 0,42.606 c 0,5.549 -4.476,10.025 -10.025,10.025 V 42.606 Z M -20.855,16.291 h 10.025 v 10.025 h -10.025 z m -8.415,0 h 7.519 v 10.025 h -7.519 z m 0,36.34 h 18.439 V 42.606 H -29.27 Z m -0.805,-36.34 v 10.024 c -3.67,0 -6.892,-1.969 -8.682,-5.012 1.79,-2.954 5.012,-5.012 8.682,-5.012 m 19.244,-26.316 h -19.244 c -5.55,0 -10.025,4.476 -10.025,10.025 h 29.269 z m -19.244,37.146 c -3.849,0 -7.16,-1.969 -9.13,-5.013 -0.537,1.343 -0.895,2.686 -0.895,4.207 V 41.8 h 10.025 z M -40.1,42.606 c 0,5.549 4.475,10.025 10.025,10.025 V 42.606 Z" />
      </g>
      <g
         id="g11355">
        <g
           id="g11357" />
        <g
           id="g11415">
          <g
             style="opacity:0.5"
             id="g11413"
             clip-path="url(#clipPath11361)">
            <g
               id="g11411">
              <g
                 id="g11409"
                 clip-path="url(#clipPath11365)">
                <g
                   id="g11407">
                  <g
                     id="g11399" />
                  <g
                     id="g11405"
                     mask="url(#mask11379)">
                    <g
                       id="g11403">
                      <path
                         inkscape:connector-curvature="0"
                         id="path11401"
                         style="fill:url(#linearGradient11397);stroke:none"
                         d="m 116.761,202.245 c 10.05,17.091 28.632,28.564 49.892,28.564 21.283,0 39.881,-11.496 49.923,-28.616 8.058,-13.732 -29.238,-20.584 -49.908,-20.575 -20.663,0.011 -57.985,6.895 -49.907,20.627" />
                    </g>
                  </g>
                </g>
              </g>
            </g>
          </g>
        </g>
      </g>
    </g>
  </g>
</svg>
