<?xml version="1.0" encoding="UTF-8" standalone="no"?>
<!-- Created with Inkscape (http://www.inkscape.org/) -->

<svg
   xmlns:dc="http://purl.org/dc/elements/1.1/"
   xmlns:cc="http://creativecommons.org/ns#"
   xmlns:rdf="http://www.w3.org/1999/02/22-rdf-syntax-ns#"
   xmlns:svg="http://www.w3.org/2000/svg"
   xmlns="http://www.w3.org/2000/svg"
   xmlns:sodipodi="http://sodipodi.sourceforge.net/DTD/sodipodi-0.dtd"
   xmlns:inkscape="http://www.inkscape.org/namespaces/inkscape"
   width="70.836365mm"
   height="70.836014mm"
   viewBox="0 0 70.836365 70.836014"
   version="1.1"
   id="svg22002"
   inkscape:version="0.92.4 (5da689c313, 2019-01-14)"
   sodipodi:docname="5.svg">
  <defs
     id="defs21996">
    <clipPath
       clipPathUnits="userSpaceOnUse"
       id="clipPath4529">
      <path
         d="M 115.635,674.239 H 217.698 V 625.048 H 115.635 Z"
         id="path4527"
         inkscape:connector-curvature="0" />
    </clipPath>
    <clipPath
       clipPathUnits="userSpaceOnUse"
       id="clipPath4533">
      <path
         d="m 116.761,645.675 c 10.05,17.091 28.632,28.564 49.892,28.564 21.283,0 39.881,-11.496 49.923,-28.616 8.058,-13.732 -29.238,-20.584 -49.908,-20.575 -20.663,0.011 -57.985,6.894 -49.907,20.627"
         id="path4531"
         inkscape:connector-curvature="0" />
    </clipPath>
    <mask
       maskUnits="userSpaceOnUse"
       x="0"
       y="0"
       width="1"
       height="1"
       id="mask4547">
      <g
         id="g4557">
        <g
           id="g4555">
          <g
             id="g4553">
            <g
               id="g4551">
              <path
                 d="M -32768,32767 H 32767 V -32767 H -32768 Z"
                 style="fill:url(#linearGradient4545);stroke:none"
                 id="path4549"
                 inkscape:connector-curvature="0" />
            </g>
          </g>
        </g>
      </g>
    </mask>
    <linearGradient
       x1="0"
       y1="0"
       x2="1"
       y2="0"
       gradientUnits="userSpaceOnUse"
       gradientTransform="matrix(0,-49.19043,-49.19043,0,166.6665,674.23877)"
       spreadMethod="pad"
       id="linearGradient4545">
      <stop
         style="stop-opacity:1;stop-color:#ffffff"
         offset="0"
         id="stop4539" />
      <stop
         style="stop-opacity:0;stop-color:#ffffff"
         offset="0.41503764"
         id="stop4541" />
      <stop
         style="stop-opacity:0;stop-color:#ffffff"
         offset="1"
         id="stop4543" />
    </linearGradient>
    <linearGradient
       x1="0"
       y1="0"
       x2="1"
       y2="0"
       gradientUnits="userSpaceOnUse"
       gradientTransform="matrix(0,-49.19043,-49.19043,0,166.6665,674.23877)"
       spreadMethod="pad"
       id="linearGradient4565">
      <stop
         style="stop-opacity:1;stop-color:#ffffff"
         offset="0"
         id="stop4559" />
      <stop
         style="stop-opacity:1;stop-color:#ffffff"
         offset="0.41503764"
         id="stop4561" />
      <stop
         style="stop-opacity:1;stop-color:#ffffff"
         offset="1"
         id="stop4563" />
    </linearGradient>
    <linearGradient
       x1="0"
       y1="0"
       x2="1"
       y2="0"
       gradientUnits="userSpaceOnUse"
       gradientTransform="matrix(89.539261,89.539261,89.539261,-89.539246,121.88281,572.04004)"
       spreadMethod="pad"
       id="linearGradient4307">
      <stop
         style="stop-opacity:1;stop-color:#636466"
         offset="0"
         id="stop4297" />
      <stop
         style="stop-opacity:1;stop-color:#414142"
         offset="0.31074429"
         id="stop4299" />
      <stop
         style="stop-opacity:1;stop-color:#414142"
         offset="0.5"
         id="stop4301" />
      <stop
         style="stop-opacity:1;stop-color:#414142"
         offset="0.68925571"
         id="stop4303" />
      <stop
         style="stop-opacity:1;stop-color:#636466"
         offset="1"
         id="stop4305" />
    </linearGradient>
    <clipPath
       clipPathUnits="userSpaceOnUse"
       id="clipPath4231">
      <path
         d="M 0,780 H 1096 V 0 H 0 Z"
         id="path4229"
         inkscape:connector-curvature="0" />
    </clipPath>
    <linearGradient
       x1="0"
       y1="0"
       x2="1"
       y2="0"
       gradientUnits="userSpaceOnUse"
       gradientTransform="matrix(125.46045,125.46045,125.46045,-125.46043,103.92383,554.0791)"
       spreadMethod="pad"
       id="linearGradient4221">
      <stop
         style="stop-opacity:1;stop-color:#414142"
         offset="0"
         id="stop4211" />
      <stop
         style="stop-opacity:1;stop-color:#636466"
         offset="0.31074429"
         id="stop4213" />
      <stop
         style="stop-opacity:1;stop-color:#636466"
         offset="0.5"
         id="stop4215" />
      <stop
         style="stop-opacity:1;stop-color:#636466"
         offset="0.68925571"
         id="stop4217" />
      <stop
         style="stop-opacity:1;stop-color:#414142"
         offset="1"
         id="stop4219" />
    </linearGradient>
    <linearGradient
       x1="0"
       y1="0"
       x2="1"
       y2="0"
       gradientUnits="userSpaceOnUse"
       gradientTransform="matrix(139.23366,139.23366,139.23366,-139.23366,97.037109,547.19238)"
       spreadMethod="pad"
       id="linearGradient4195">
      <stop
         style="stop-opacity:1;stop-color:#636466"
         offset="0"
         id="stop4185" />
      <stop
         style="stop-opacity:1;stop-color:#414142"
         offset="0.31074429"
         id="stop4187" />
      <stop
         style="stop-opacity:1;stop-color:#414142"
         offset="0.5"
         id="stop4189" />
      <stop
         style="stop-opacity:1;stop-color:#414142"
         offset="0.68925571"
         id="stop4191" />
      <stop
         style="stop-opacity:1;stop-color:#636466"
         offset="1"
         id="stop4193" />
    </linearGradient>
    <linearGradient
       x1="0"
       y1="0"
       x2="1"
       y2="0"
       gradientUnits="userSpaceOnUse"
       gradientTransform="matrix(141.98363,141.98363,141.98363,-141.98363,95.661621,545.81689)"
       spreadMethod="pad"
       id="linearGradient4169">
      <stop
         style="stop-opacity:1;stop-color:#414142"
         offset="0"
         id="stop4159" />
      <stop
         style="stop-opacity:1;stop-color:#636466"
         offset="0.31074429"
         id="stop4161" />
      <stop
         style="stop-opacity:1;stop-color:#636466"
         offset="0.5"
         id="stop4163" />
      <stop
         style="stop-opacity:1;stop-color:#636466"
         offset="0.68925571"
         id="stop4165" />
      <stop
         style="stop-opacity:1;stop-color:#414142"
         offset="1"
         id="stop4167" />
    </linearGradient>
    <clipPath
       clipPathUnits="userSpaceOnUse"
       id="clipPath3729">
      <path
         d="M 0,780 H 1096 V 0 H 0 Z"
         id="path3727"
         inkscape:connector-curvature="0" />
    </clipPath>
  </defs>
  <sodipodi:namedview
     id="base"
     pagecolor="#ffffff"
     bordercolor="#666666"
     borderopacity="1.0"
     inkscape:pageopacity="0.0"
     inkscape:pageshadow="2"
     inkscape:zoom="0.7"
     inkscape:cx="395.38647"
     inkscape:cy="-260.22909"
     inkscape:document-units="mm"
     inkscape:current-layer="layer1"
     showgrid="false"
     inkscape:window-width="1920"
     inkscape:window-height="1017"
     inkscape:window-x="-8"
     inkscape:window-y="-8"
     inkscape:window-maximized="1" />
  <metadata
     id="metadata21999">
    <rdf:RDF>
      <cc:Work
         rdf:about="">
        <dc:format>image/svg+xml</dc:format>
        <dc:type
           rdf:resource="http://purl.org/dc/dcmitype/StillImage" />
        <dc:title></dc:title>
      </cc:Work>
    </rdf:RDF>
  </metadata>
  <g
     inkscape:label="Layer 1"
     inkscape:groupmode="layer"
     id="layer1"
     transform="translate(-0.94249915,-0.71974391)">
    <g
       id="g23003">
      <g
         id="g4147"
         transform="matrix(0.35277777,0,0,-0.35277777,-22.430792,253.73443)">
        <g
           id="g4149">
          <g
             id="g4155">
            <g
               id="g4157">
              <path
                 inkscape:connector-curvature="0"
                 id="path4171"
                 style="fill:url(#linearGradient4169);stroke:none"
                 d="m 66.255,616.81 c 0,-55.448 44.95,-100.398 100.398,-100.398 v 0 c 55.448,0 100.398,44.95 100.398,100.398 v 0 c 0,55.448 -44.95,100.397 -100.398,100.397 v 0 c -55.448,0 -100.398,-44.949 -100.398,-100.397" />
            </g>
          </g>
        </g>
      </g>
      <g
         id="g4173"
         transform="matrix(0.35277777,0,0,-0.35277777,-22.430792,253.73443)">
        <g
           id="g4175">
          <g
             id="g4181">
            <g
               id="g4183">
              <path
                 inkscape:connector-curvature="0"
                 id="path4197"
                 style="fill:url(#linearGradient4195);stroke:none"
                 d="m 68.2,616.81 c 0,-54.375 44.08,-98.454 98.453,-98.454 v 0 c 54.374,0 98.454,44.079 98.454,98.454 v 0 c 0,54.373 -44.08,98.453 -98.454,98.453 v 0 C 112.28,715.263 68.2,671.183 68.2,616.81" />
            </g>
          </g>
        </g>
      </g>
      <g
         id="g4199"
         transform="matrix(0.35277777,0,0,-0.35277777,-22.430792,253.73443)">
        <g
           id="g4201">
          <g
             id="g4207">
            <g
               id="g4209">
              <path
                 inkscape:connector-curvature="0"
                 id="path4223"
                 style="fill:url(#linearGradient4221);stroke:none"
                 d="m 77.939,616.81 c 0,-48.996 39.718,-88.713 88.714,-88.713 v 0 c 48.996,0 88.714,39.717 88.714,88.713 v 0 c 0,48.995 -39.718,88.713 -88.714,88.713 v 0 c -48.996,0 -88.714,-39.718 -88.714,-88.713" />
            </g>
          </g>
        </g>
      </g>
      <g
         id="g4225"
         transform="matrix(0.35277777,0,0,-0.35277777,-22.430792,253.73443)">
        <g
           clip-path="url(#clipPath4231)"
           id="g4227">
          <g
             transform="translate(252.6123,616.8101)"
             id="g4233">
            <path
               inkscape:connector-curvature="0"
               id="path4235"
               style="fill:#ffffff;fill-opacity:1;fill-rule:nonzero;stroke:none"
               d="m 0,0 c 0,-47.477 -38.483,-85.96 -85.959,-85.96 -47.477,0 -85.959,38.483 -85.959,85.96 0,47.475 38.482,85.958 85.959,85.958 C -38.483,85.958 0,47.475 0,0" />
          </g>
          <g
             transform="translate(166.6543,702.7681)"
             id="g4237">
            <path
               inkscape:connector-curvature="0"
               id="path4239"
               style="fill:#ffffff;fill-opacity:1;fill-rule:nonzero;stroke:none"
               d="M 0,0 H -0.001 C -15.661,0 -30.33,-4.208 -42.975,-11.524 L -0.001,-85.958 Z" />
          </g>
          <g
             transform="translate(209.6284,691.2437)"
             id="g4241">
            <path
               inkscape:connector-curvature="0"
               id="path4243"
               style="fill:#06bfd7;fill-opacity:1;fill-rule:nonzero;stroke:none"
               d="m 0,0 c -12.645,7.316 -27.314,11.524 -42.974,11.524 l -0.001,-85.958 z" />
          </g>
          <g
             transform="translate(241.0874,573.8345)"
             id="g4245">
            <path
               inkscape:connector-curvature="0"
               id="path4247"
               style="fill:#ffffff;fill-opacity:1;fill-rule:nonzero;stroke:none"
               d="M 0,0 C 7.316,12.646 11.525,27.315 11.525,42.976 H -74.434 Z" />
          </g>
          <g
             transform="translate(252.6123,616.8101)"
             id="g4249">
            <path
               inkscape:connector-curvature="0"
               id="path4251"
               style="fill:#dcddde;fill-opacity:1;fill-rule:nonzero;stroke:none"
               d="M 0,0 C 0,15.661 -4.209,30.33 -11.525,42.974 L -85.959,0 Z" />
          </g>
          <g
             transform="translate(241.0874,659.7837)"
             id="g4253">
            <path
               inkscape:connector-curvature="0"
               id="path4255"
               style="fill:#ffffff;fill-opacity:1;fill-rule:nonzero;stroke:none"
               d="M 0,0 C -7.547,13.044 -18.415,23.912 -31.459,31.46 L -74.434,-42.974 Z" />
          </g>
          <g
             transform="translate(123.6797,691.2437)"
             id="g4257">
            <path
               inkscape:connector-curvature="0"
               id="path4259"
               style="fill:#dcddde;fill-opacity:1;fill-rule:nonzero;stroke:none"
               d="M 0,0 C -13.044,-7.546 -23.913,-18.415 -31.461,-31.458 L 42.974,-74.434 Z" />
          </g>
          <g
             transform="translate(166.6533,530.8501)"
             id="g4261">
            <path
               inkscape:connector-curvature="0"
               id="path4263"
               style="fill:#ffffff;fill-opacity:1;fill-rule:nonzero;stroke:none"
               d="M 0,0 C 15.66,0 30.33,4.208 42.974,11.525 L 0,85.96 Z" />
          </g>
          <g
             transform="translate(123.6782,542.375)"
             id="g4265">
            <path
               inkscape:connector-curvature="0"
               id="path4267"
               style="fill:#dcddde;fill-opacity:1;fill-rule:nonzero;stroke:none"
               d="m 0,0 c 12.645,-7.317 27.315,-11.525 42.975,-11.525 v 85.96 z" />
          </g>
          <g
             transform="translate(241.0874,573.8345)"
             id="g4269">
            <path
               inkscape:connector-curvature="0"
               id="path4271"
               style="fill:#dcddde;fill-opacity:1;fill-rule:nonzero;stroke:none"
               d="M 0,0 -74.434,42.976 -31.46,-31.459 C -18.415,-23.912 -7.547,-13.044 0,0" />
          </g>
          <g
             transform="translate(92.2183,573.8345)"
             id="g4273">
            <path
               inkscape:connector-curvature="0"
               id="path4275"
               style="fill:#ffffff;fill-opacity:1;fill-rule:nonzero;stroke:none"
               d="M 0,0 C 7.547,-13.044 18.416,-23.912 31.46,-31.459 L 74.435,42.976 Z" />
          </g>
          <g
             transform="translate(80.6938,616.8101)"
             id="g4277">
            <path
               inkscape:connector-curvature="0"
               id="path4279"
               style="fill:#dcddde;fill-opacity:1;fill-rule:nonzero;stroke:none"
               d="M 0,0 V 0 C 0,-15.661 4.208,-30.33 11.524,-42.976 L 85.959,0 Z" />
          </g>
          <g
             transform="translate(92.2188,659.7852)"
             id="g4281">
            <path
               inkscape:connector-curvature="0"
               id="path4283"
               style="fill:#ffffff;fill-opacity:1;fill-rule:nonzero;stroke:none"
               d="m 0,0 c -7.316,-12.644 -11.525,-27.313 -11.525,-42.975 h 85.96 z" />
          </g>
        </g>
      </g>
      <g
         id="g4285"
         transform="matrix(0.35277777,0,0,-0.35277777,-22.430792,253.73443)">
        <g
           id="g4287">
          <g
             id="g4293">
            <g
               id="g4295">
              <path
                 inkscape:connector-curvature="0"
                 id="path4309"
                 style="fill:url(#linearGradient4307);stroke:none"
                 d="m 103.339,616.81 c 0,-34.967 28.346,-63.315 63.314,-63.315 v 0 c 34.966,0 63.314,28.348 63.314,63.315 v 0 c 0,34.966 -28.348,63.314 -63.314,63.314 v 0 c -34.968,0 -63.314,-28.348 -63.314,-63.314" />
            </g>
          </g>
        </g>
      </g>
      <g
         transform="matrix(0.35277777,0,0,-0.35277777,57.891699,36.138069)"
         id="g4319">
        <path
           inkscape:connector-curvature="0"
           id="path4321"
           style="fill:#333132;fill-opacity:1;fill-rule:nonzero;stroke:none"
           d="m 0,0 c 0,-33.705 -27.325,-61.03 -61.033,-61.03 -33.706,0 -61.033,27.325 -61.033,61.03 0,33.708 27.327,61.034 61.033,61.034 C -27.325,61.034 0,33.708 0,0" />
      </g>
      <g
         transform="matrix(0.35277777,0,0,-0.35277777,36.383471,6.4372095)"
         id="g4323">
        <path
           inkscape:connector-curvature="0"
           id="path4325"
           style="fill:none;stroke:#231f20;stroke-width:1.17999995;stroke-linecap:butt;stroke-linejoin:miter;stroke-miterlimit:10;stroke-dasharray:none;stroke-opacity:1"
           d="M 0,0 V -13.716" />
      </g>
      <g
         transform="matrix(0.35277777,0,0,-0.35277777,21.533893,10.416649)"
         id="g4327">
        <path
           inkscape:connector-curvature="0"
           id="path4329"
           style="fill:none;stroke:#231f20;stroke-width:1.17999995;stroke-linecap:butt;stroke-linejoin:miter;stroke-miterlimit:10;stroke-dasharray:none;stroke-opacity:1"
           d="M 0,0 6.857,-11.877" />
      </g>
      <g
         transform="matrix(0.35277777,0,0,-0.35277777,10.663079,21.287639)"
         id="g4331">
        <path
           inkscape:connector-curvature="0"
           id="path4333"
           style="fill:none;stroke:#231f20;stroke-width:1.17999995;stroke-linecap:butt;stroke-linejoin:miter;stroke-miterlimit:10;stroke-dasharray:none;stroke-opacity:1"
           d="M 0,0 11.878,-6.857" />
      </g>
      <g
         transform="matrix(0.35277777,0,0,-0.35277777,6.6839941,36.137539)"
         id="g4335">
        <path
           inkscape:connector-curvature="0"
           id="path4337"
           style="fill:none;stroke:#231f20;stroke-width:1.17999995;stroke-linecap:butt;stroke-linejoin:miter;stroke-miterlimit:10;stroke-dasharray:none;stroke-opacity:1"
           d="M 0,0 13.716,0.001" />
      </g>
      <g
         transform="matrix(0.35277777,0,0,-0.35277777,61.199343,36.137539)"
         id="g4339">
        <path
           inkscape:connector-curvature="0"
           id="path4341"
           style="fill:none;stroke:#231f20;stroke-width:1.17999995;stroke-linecap:butt;stroke-linejoin:miter;stroke-miterlimit:10;stroke-dasharray:none;stroke-opacity:1"
           d="M 0,0 13.717,0.001" />
      </g>
      <g
         transform="matrix(0.35277777,0,0,-0.35277777,10.663079,50.987649)"
         id="g4343">
        <path
           inkscape:connector-curvature="0"
           id="path4345"
           style="fill:none;stroke:#231f20;stroke-width:1.17999995;stroke-linecap:butt;stroke-linejoin:miter;stroke-miterlimit:10;stroke-dasharray:none;stroke-opacity:1"
           d="M 0,0 11.878,6.86" />
      </g>
      <g
         transform="matrix(0.35277777,0,0,-0.35277777,21.533893,61.858629)"
         id="g4347">
        <path
           inkscape:connector-curvature="0"
           id="path4349"
           style="fill:none;stroke:#231f20;stroke-width:1.17999995;stroke-linecap:butt;stroke-linejoin:miter;stroke-miterlimit:10;stroke-dasharray:none;stroke-opacity:1"
           d="M 0,0 6.857,11.88" />
      </g>
      <g
         transform="matrix(0.35277777,0,0,-0.35277777,36.384143,65.837719)"
         id="g4351">
        <path
           inkscape:connector-curvature="0"
           id="path4353"
           style="fill:none;stroke:#231f20;stroke-width:1.17999995;stroke-linecap:butt;stroke-linejoin:miter;stroke-miterlimit:10;stroke-dasharray:none;stroke-opacity:1"
           d="M 0,0 -0.002,13.717" />
      </g>
      <g
         transform="matrix(0.35277777,0,0,-0.35277777,51.234745,61.858629)"
         id="g4355">
        <path
           inkscape:connector-curvature="0"
           id="path4357"
           style="fill:none;stroke:#231f20;stroke-width:1.17999995;stroke-linecap:butt;stroke-linejoin:miter;stroke-miterlimit:10;stroke-dasharray:none;stroke-opacity:1"
           d="M 0,0 -6.862,11.879" />
      </g>
      <g
         transform="matrix(0.35277777,0,0,-0.35277777,62.106088,50.987289)"
         id="g4359">
        <path
           inkscape:connector-curvature="0"
           id="path4361"
           style="fill:none;stroke:#231f20;stroke-width:1.17999995;stroke-linecap:butt;stroke-linejoin:miter;stroke-miterlimit:10;stroke-dasharray:none;stroke-opacity:1"
           d="M 0,0 -11.885,6.856" />
      </g>
      <g
         transform="matrix(0.35277777,0,0,-0.35277777,62.105242,21.286439)"
         id="g4363">
        <path
           inkscape:connector-curvature="0"
           id="path4365"
           style="fill:none;stroke:#231f20;stroke-width:1.17999995;stroke-linecap:butt;stroke-linejoin:miter;stroke-miterlimit:10;stroke-dasharray:none;stroke-opacity:1"
           d="M 0,0 -11.88,-6.863" />
      </g>
      <g
         transform="matrix(0.35277777,0,0,-0.35277777,51.233899,10.415449)"
         id="g4367">
        <path
           inkscape:connector-curvature="0"
           id="path4369"
           style="fill:none;stroke:#231f20;stroke-width:1.17999995;stroke-linecap:butt;stroke-linejoin:miter;stroke-miterlimit:10;stroke-dasharray:none;stroke-opacity:1"
           d="M 0,0 -6.856,-11.884" />
      </g>
      <g
         transform="matrix(0.35277777,0,0,-0.35277777,32.50669,6.6912795)"
         id="g4371">
        <path
           inkscape:connector-curvature="0"
           id="path4373"
           style="fill:none;stroke:#231f20;stroke-width:0.58999997;stroke-linecap:butt;stroke-linejoin:miter;stroke-miterlimit:10;stroke-dasharray:none;stroke-opacity:1"
           d="M 0,0 1.144,-8.691" />
      </g>
      <g
         transform="matrix(0.35277777,0,0,-0.35277777,28.695915,7.4493695)"
         id="g4375">
        <path
           inkscape:connector-curvature="0"
           id="path4377"
           style="fill:none;stroke:#231f20;stroke-width:0.58999997;stroke-linecap:butt;stroke-linejoin:miter;stroke-miterlimit:10;stroke-dasharray:none;stroke-opacity:1"
           d="M 0,0 2.269,-8.466" />
      </g>
      <g
         transform="matrix(0.35277777,0,0,-0.35277777,25.017397,8.6982395)"
         id="g4379">
        <path
           inkscape:connector-curvature="0"
           id="path4381"
           style="fill:none;stroke:#231f20;stroke-width:0.58999997;stroke-linecap:butt;stroke-linejoin:miter;stroke-miterlimit:10;stroke-dasharray:none;stroke-opacity:1"
           d="M 0,0 3.354,-8.097" />
      </g>
      <g
         transform="matrix(0.35277777,0,0,-0.35277777,18.302552,12.574799)"
         id="g4383">
        <path
           inkscape:connector-curvature="0"
           id="path4385"
           style="fill:none;stroke:#231f20;stroke-width:0.58999997;stroke-linecap:butt;stroke-linejoin:miter;stroke-miterlimit:10;stroke-dasharray:none;stroke-opacity:1"
           d="M 0,0 5.337,-6.954" />
      </g>
      <g
         transform="matrix(0.35277777,0,0,-0.35277777,15.381306,15.135899)"
         id="g4387">
        <path
           inkscape:connector-curvature="0"
           id="path4389"
           style="fill:none;stroke:#231f20;stroke-width:0.58999997;stroke-linecap:butt;stroke-linejoin:miter;stroke-miterlimit:10;stroke-dasharray:none;stroke-opacity:1"
           d="M 0,0 6.199,-6.198" />
      </g>
      <g
         transform="matrix(0.35277777,0,0,-0.35277777,12.819716,18.057179)"
         id="g4391">
        <path
           inkscape:connector-curvature="0"
           id="path4393"
           style="fill:none;stroke:#231f20;stroke-width:0.58999997;stroke-linecap:butt;stroke-linejoin:miter;stroke-miterlimit:10;stroke-dasharray:none;stroke-opacity:1"
           d="M 0,0 6.955,-5.335" />
      </g>
      <g
         transform="matrix(0.35277777,0,0,-0.35277777,8.9429356,24.770969)"
         id="g4395">
        <path
           inkscape:connector-curvature="0"
           id="path4397"
           style="fill:none;stroke:#231f20;stroke-width:0.58999997;stroke-linecap:butt;stroke-linejoin:miter;stroke-miterlimit:10;stroke-dasharray:none;stroke-opacity:1"
           d="M 0,0 8.097,-3.355" />
      </g>
      <g
         transform="matrix(0.35277777,0,0,-0.35277777,7.6941025,28.449979)"
         id="g4399">
        <path
           inkscape:connector-curvature="0"
           id="path4401"
           style="fill:none;stroke:#231f20;stroke-width:0.58999997;stroke-linecap:butt;stroke-linejoin:miter;stroke-miterlimit:10;stroke-dasharray:none;stroke-opacity:1"
           d="M 0,0 8.466,-2.269" />
      </g>
      <g
         transform="matrix(0.35277777,0,0,-0.35277777,6.9361588,32.259769)"
         id="g4403">
        <path
           inkscape:connector-curvature="0"
           id="path4405"
           style="fill:none;stroke:#231f20;stroke-width:0.58999997;stroke-linecap:butt;stroke-linejoin:miter;stroke-miterlimit:10;stroke-dasharray:none;stroke-opacity:1"
           d="M 0,0 8.689,-1.146" />
      </g>
      <g
         transform="matrix(0.35277777,0,0,-0.35277777,6.9354898,40.013469)"
         id="g4407">
        <path
           inkscape:connector-curvature="0"
           id="path4409"
           style="fill:none;stroke:#231f20;stroke-width:0.58999997;stroke-linecap:butt;stroke-linejoin:miter;stroke-miterlimit:10;stroke-dasharray:none;stroke-opacity:1"
           d="M 0,0 8.691,1.143" />
      </g>
      <g
         transform="matrix(0.35277777,0,0,-0.35277777,7.6935735,43.824069)"
         id="g4411">
        <path
           inkscape:connector-curvature="0"
           id="path4413"
           style="fill:none;stroke:#231f20;stroke-width:0.58999997;stroke-linecap:butt;stroke-linejoin:miter;stroke-miterlimit:10;stroke-dasharray:none;stroke-opacity:1"
           d="M 0,0 8.466,2.267" />
      </g>
      <g
         transform="matrix(0.35277777,0,0,-0.35277777,8.9419116,47.503079)"
         id="g4415">
        <path
           inkscape:connector-curvature="0"
           id="path4417"
           style="fill:none;stroke:#231f20;stroke-width:0.58999997;stroke-linecap:butt;stroke-linejoin:miter;stroke-miterlimit:10;stroke-dasharray:none;stroke-opacity:1"
           d="M 0,0 8.099,3.354" />
      </g>
      <g
         transform="matrix(0.35277777,0,0,-0.35277777,12.818481,54.218099)"
         id="g4419">
        <path
           inkscape:connector-curvature="0"
           id="path4421"
           style="fill:none;stroke:#231f20;stroke-width:0.58999997;stroke-linecap:butt;stroke-linejoin:miter;stroke-miterlimit:10;stroke-dasharray:none;stroke-opacity:1"
           d="M 0,0 6.955,5.337" />
      </g>
      <g
         transform="matrix(0.35277777,0,0,-0.35277777,15.380108,57.139029)"
         id="g4423">
        <path
           inkscape:connector-curvature="0"
           id="path4425"
           style="fill:none;stroke:#231f20;stroke-width:0.58999997;stroke-linecap:butt;stroke-linejoin:miter;stroke-miterlimit:10;stroke-dasharray:none;stroke-opacity:1"
           d="M 0,0 6.199,6.198" />
      </g>
      <g
         transform="matrix(0.35277777,0,0,-0.35277777,18.300507,59.700979)"
         id="g4427">
        <path
           inkscape:connector-curvature="0"
           id="path4429"
           style="fill:none;stroke:#231f20;stroke-width:0.58999997;stroke-linecap:butt;stroke-linejoin:miter;stroke-miterlimit:10;stroke-dasharray:none;stroke-opacity:1"
           d="M 0,0 5.338,6.956" />
      </g>
      <g
         transform="matrix(0.35277777,0,0,-0.35277777,25.01482,63.577899)"
         id="g4431">
        <path
           inkscape:connector-curvature="0"
           id="path4433"
           style="fill:none;stroke:#231f20;stroke-width:0.58999997;stroke-linecap:butt;stroke-linejoin:miter;stroke-miterlimit:10;stroke-dasharray:none;stroke-opacity:1"
           d="M 0,0 3.355,8.099" />
      </g>
      <g
         transform="matrix(0.35277777,0,0,-0.35277777,28.693481,64.826759)"
         id="g4435">
        <path
           inkscape:connector-curvature="0"
           id="path4437"
           style="fill:none;stroke:#231f20;stroke-width:0.58999997;stroke-linecap:butt;stroke-linejoin:miter;stroke-miterlimit:10;stroke-dasharray:none;stroke-opacity:1"
           d="M 0,0 2.271,8.467" />
      </g>
      <g
         transform="matrix(0.35277777,0,0,-0.35277777,32.503764,65.585029)"
         id="g4439">
        <path
           inkscape:connector-curvature="0"
           id="path4441"
           style="fill:none;stroke:#231f20;stroke-width:0.58999997;stroke-linecap:butt;stroke-linejoin:miter;stroke-miterlimit:10;stroke-dasharray:none;stroke-opacity:1"
           d="M 0,0 1.147,8.691" />
      </g>
      <g
         transform="matrix(0.35277777,0,0,-0.35277777,40.257466,65.585559)"
         id="g4443">
        <path
           inkscape:connector-curvature="0"
           id="path4445"
           style="fill:none;stroke:#231f20;stroke-width:0.58999997;stroke-linecap:butt;stroke-linejoin:miter;stroke-miterlimit:10;stroke-dasharray:none;stroke-opacity:1"
           d="M 0,0 -1.142,8.69" />
      </g>
      <g
         transform="matrix(0.35277777,0,0,-0.35277777,44.068101,64.828319)"
         id="g4447">
        <path
           inkscape:connector-curvature="0"
           id="path4449"
           style="fill:none;stroke:#231f20;stroke-width:0.58999997;stroke-linecap:butt;stroke-linejoin:miter;stroke-miterlimit:10;stroke-dasharray:none;stroke-opacity:1"
           d="M 0,0 -2.268,8.469" />
      </g>
      <g
         transform="matrix(0.35277777,0,0,-0.35277777,47.747114,63.579979)"
         id="g4451">
        <path
           inkscape:connector-curvature="0"
           id="path4453"
           style="fill:none;stroke:#231f20;stroke-width:0.58999997;stroke-linecap:butt;stroke-linejoin:miter;stroke-miterlimit:10;stroke-dasharray:none;stroke-opacity:1"
           d="M 0,0 -3.354,8.102" />
      </g>
      <g
         transform="matrix(0.35277777,0,0,-0.35277777,54.46245,59.703379)"
         id="g4455">
        <path
           inkscape:connector-curvature="0"
           id="path4457"
           style="fill:none;stroke:#231f20;stroke-width:0.58999997;stroke-linecap:butt;stroke-linejoin:miter;stroke-miterlimit:10;stroke-dasharray:none;stroke-opacity:1"
           d="M 0,0 -5.336,6.957" />
      </g>
      <g
         transform="matrix(0.35277777,0,0,-0.35277777,57.383382,57.141789)"
         id="g4459">
        <path
           inkscape:connector-curvature="0"
           id="path4461"
           style="fill:none;stroke:#231f20;stroke-width:0.58999997;stroke-linecap:butt;stroke-linejoin:miter;stroke-miterlimit:10;stroke-dasharray:none;stroke-opacity:1"
           d="M 0,0 -6.199,6.2" />
      </g>
      <g
         transform="matrix(0.35277777,0,0,-0.35277777,59.944829,54.221379)"
         id="g4463">
        <path
           inkscape:connector-curvature="0"
           id="path4465"
           style="fill:none;stroke:#231f20;stroke-width:0.58999997;stroke-linecap:butt;stroke-linejoin:miter;stroke-miterlimit:10;stroke-dasharray:none;stroke-opacity:1"
           d="M 0,0 -6.954,5.339" />
      </g>
      <g
         transform="matrix(0.35277777,0,0,-0.35277777,63.822282,47.506359)"
         id="g4467">
        <path
           inkscape:connector-curvature="0"
           id="path4469"
           style="fill:none;stroke:#231f20;stroke-width:0.58999997;stroke-linecap:butt;stroke-linejoin:miter;stroke-miterlimit:10;stroke-dasharray:none;stroke-opacity:1"
           d="M 0,0 -8.098,3.355" />
      </g>
      <g
         transform="matrix(0.35277777,0,0,-0.35277777,65.071467,43.827699)"
         id="g4471">
        <path
           inkscape:connector-curvature="0"
           id="path4473"
           style="fill:none;stroke:#231f20;stroke-width:0.58999997;stroke-linecap:butt;stroke-linejoin:miter;stroke-miterlimit:10;stroke-dasharray:none;stroke-opacity:1"
           d="M 0,0 -8.466,2.273" />
      </g>
      <g
         transform="matrix(0.35277777,0,0,-0.35277777,65.829726,40.017419)"
         id="g4475">
        <path
           inkscape:connector-curvature="0"
           id="path4477"
           style="fill:none;stroke:#231f20;stroke-width:0.58999997;stroke-linecap:butt;stroke-linejoin:miter;stroke-miterlimit:10;stroke-dasharray:none;stroke-opacity:1"
           d="M 0,0 -8.691,1.148" />
      </g>
      <g
         transform="matrix(0.35277777,0,0,-0.35277777,65.829903,32.263539)"
         id="g4479">
        <path
           inkscape:connector-curvature="0"
           id="path4481"
           style="fill:none;stroke:#231f20;stroke-width:0.58999997;stroke-linecap:butt;stroke-linejoin:miter;stroke-miterlimit:10;stroke-dasharray:none;stroke-opacity:1"
           d="M 0,0 -8.691,-1.141" />
      </g>
      <g
         transform="matrix(0.35277777,0,0,-0.35277777,65.072136,28.452729)"
         id="g4483">
        <path
           inkscape:connector-curvature="0"
           id="path4485"
           style="fill:none;stroke:#231f20;stroke-width:0.58999997;stroke-linecap:butt;stroke-linejoin:miter;stroke-miterlimit:10;stroke-dasharray:none;stroke-opacity:1"
           d="M 0,0 -8.467,-2.268" />
      </g>
      <g
         transform="matrix(0.35277777,0,0,-0.35277777,63.824009,24.773719)"
         id="g4487">
        <path
           inkscape:connector-curvature="0"
           id="path4489"
           style="fill:none;stroke:#231f20;stroke-width:0.58999997;stroke-linecap:butt;stroke-linejoin:miter;stroke-miterlimit:10;stroke-dasharray:none;stroke-opacity:1"
           d="M 0,0 -8.101,-3.354" />
      </g>
      <g
         transform="matrix(0.35277777,0,0,-0.35277777,59.947406,18.058379)"
         id="g4491">
        <path
           inkscape:connector-curvature="0"
           id="path4493"
           style="fill:none;stroke:#231f20;stroke-width:0.58999997;stroke-linecap:butt;stroke-linejoin:miter;stroke-miterlimit:10;stroke-dasharray:none;stroke-opacity:1"
           d="M 0,0 -6.955,-5.336" />
      </g>
      <g
         transform="matrix(0.35277777,0,0,-0.35277777,57.385639,15.137099)"
         id="g4495">
        <path
           inkscape:connector-curvature="0"
           id="path4497"
           style="fill:none;stroke:#231f20;stroke-width:0.58999997;stroke-linecap:butt;stroke-linejoin:miter;stroke-miterlimit:10;stroke-dasharray:none;stroke-opacity:1"
           d="M 0,0 -6.199,-6.198" />
      </g>
      <g
         transform="matrix(0.35277777,0,0,-0.35277777,54.464885,12.575509)"
         id="g4499">
        <path
           inkscape:connector-curvature="0"
           id="path4501"
           style="fill:none;stroke:#231f20;stroke-width:0.58999997;stroke-linecap:butt;stroke-linejoin:miter;stroke-miterlimit:10;stroke-dasharray:none;stroke-opacity:1"
           d="M 0,0 -5.337,-6.952" />
      </g>
      <g
         transform="matrix(0.35277777,0,0,-0.35277777,47.750572,8.6982395)"
         id="g4503">
        <path
           inkscape:connector-curvature="0"
           id="path4505"
           style="fill:none;stroke:#231f20;stroke-width:0.58999997;stroke-linecap:butt;stroke-linejoin:miter;stroke-miterlimit:10;stroke-dasharray:none;stroke-opacity:1"
           d="M 0,0 -3.356,-8.097" />
      </g>
      <g
         transform="matrix(0.35277777,0,0,-0.35277777,44.071522,7.4488695)"
         id="g4507">
        <path
           inkscape:connector-curvature="0"
           id="path4509"
           style="fill:none;stroke:#231f20;stroke-width:0.58999997;stroke-linecap:butt;stroke-linejoin:miter;stroke-miterlimit:10;stroke-dasharray:none;stroke-opacity:1"
           d="M 0,0 -2.271,-8.468" />
      </g>
      <g
         transform="matrix(0.35277777,0,0,-0.35277777,40.260924,6.6909295)"
         id="g4511">
        <path
           inkscape:connector-curvature="0"
           id="path4513"
           style="fill:none;stroke:#231f20;stroke-width:0.58999997;stroke-linecap:butt;stroke-linejoin:miter;stroke-miterlimit:10;stroke-dasharray:none;stroke-opacity:1"
           d="M 0,0 -1.146,-8.691" />
      </g>
      <g
         transform="matrix(0.35277777,0,0,-0.35277777,34.783906,43.445649)"
         id="g4515">
        <path
           inkscape:connector-curvature="0"
           id="path4517"
           style="fill:#06bfd7;fill-opacity:1;fill-rule:nonzero;stroke:none"
           d="M 0,0 C 0,-5.549 -4.476,-10.025 -10.025,-10.025 V 0 Z m -10.025,15.485 c 3.849,0 7.161,1.969 9.129,5.013 C -0.358,19.155 0,17.812 0,16.291 V 0.806 h -10.025 z m 0,0.806 v 10.024 c 3.67,0 6.982,-1.969 8.682,-5.012 -1.7,-2.954 -5.012,-5.012 -8.682,-5.012 m 0,10.83 c 3.849,0 7.161,-1.969 9.129,-5.013 C -0.358,23.451 0,24.794 0,26.315 V 41.8 H -10.025 Z M 0,42.606 c 0,5.549 -4.476,10.025 -10.025,10.025 V 42.606 Z m -29.27,10.025 h 18.439 V 42.606 H -29.27 Z m -0.805,-36.34 v 10.024 c -3.67,0 -6.892,-1.969 -8.682,-5.012 1.79,-2.954 5.012,-5.012 8.682,-5.012 m 19.244,-26.316 h -19.244 c -5.55,0 -10.025,4.476 -10.025,10.025 h 29.269 z m -19.244,25.51 c -3.849,0 -7.16,1.969 -9.13,5.013 -0.537,-1.343 -0.895,-2.686 -0.895,-4.207 V 0.806 h 10.025 z m 0,11.636 c -3.849,0 -7.16,-1.969 -9.13,-5.013 -0.537,1.343 -0.895,2.686 -0.895,4.207 V 41.8 h 10.025 z M -40.1,42.606 c 0,5.549 4.475,10.025 10.025,10.025 V 42.606 Z" />
      </g>
      <g
         transform="matrix(0.35277777,0,0,-0.35277777,52.086212,43.445649)"
         id="g4519">
        <path
           inkscape:connector-curvature="0"
           id="path4521"
           style="fill:#06bfd7;fill-opacity:1;fill-rule:nonzero;stroke:none"
           d="M 0,0 C 0,-5.549 -4.476,-10.025 -10.025,-10.025 V 0 Z m -10.025,15.485 c 3.849,0 7.161,1.969 9.129,5.013 C -0.358,19.155 0,17.812 0,16.291 V 0.806 h -10.025 z m 0,0.806 v 10.024 c 3.67,0 6.982,-1.969 8.682,-5.012 -1.7,-2.954 -5.012,-5.012 -8.682,-5.012 M 0,42.606 c 0,5.549 -4.476,10.025 -10.025,10.025 V 42.606 Z M -20.855,16.291 h 10.025 v 10.025 h -10.025 z m -8.415,0 h 7.519 v 10.025 h -7.519 z m 0,36.34 h 18.439 V 42.606 H -29.27 Z m -0.805,-36.34 v 10.024 c -3.67,0 -6.892,-1.969 -8.682,-5.012 1.79,-2.954 5.012,-5.012 8.682,-5.012 m 19.244,-26.316 h -19.244 c -5.55,0 -10.025,4.476 -10.025,10.025 h 29.269 z m -19.244,37.146 c -3.849,0 -7.16,-1.969 -9.13,-5.013 -0.537,1.343 -0.895,2.686 -0.895,4.207 V 41.8 h 10.025 z M -40.1,42.606 c 0,5.549 4.475,10.025 10.025,10.025 V 42.606 Z" />
      </g>
      <g
         id="g4523"
         transform="matrix(0.35277777,0,0,-0.35277777,-22.430792,253.73443)">
        <g
           id="g4525" />
        <g
           id="g4583">
          <g
             style="opacity:0.5"
             id="g4581"
             clip-path="url(#clipPath4529)">
            <g
               id="g4579">
              <g
                 id="g4577"
                 clip-path="url(#clipPath4533)">
                <g
                   id="g4575">
                  <g
                     id="g4567" />
                  <g
                     id="g4573"
                     mask="url(#mask4547)">
                    <g
                       id="g4571">
                      <path
                         inkscape:connector-curvature="0"
                         id="path4569"
                         style="fill:url(#linearGradient4565);stroke:none"
                         d="m 116.761,645.675 c 10.05,17.091 28.632,28.564 49.892,28.564 21.283,0 39.881,-11.496 49.923,-28.616 8.058,-13.732 -29.238,-20.584 -49.908,-20.575 -20.663,0.011 -57.985,6.894 -49.907,20.627" />
                    </g>
                  </g>
                </g>
              </g>
            </g>
          </g>
        </g>
      </g>
    </g>
  </g>
</svg>
